<mxfile modified="2022-08-04T09:23:28.056Z" host="app.diagrams.net" agent="5.0 (Macintosh; Intel Mac OS X 10_15_7) AppleWebKit/537.36 (KHTML, like Gecko) Chrome/103.0.0.0 Safari/537.36" etag="6YS85cBfkUubNmnecqOb" version="20.0.4" type="github">
  <diagram id="WI9T0HZ2pTsCkuznbFz-" name="Page-1">
    <mxGraphModel dx="1358" dy="763" grid="1" gridSize="10" guides="1" tooltips="1" connect="1" arrows="1" fold="1" page="1" pageScale="1" pageWidth="827" pageHeight="1169" math="0" shadow="0">
      <root>
        <mxCell id="0" />
        <mxCell id="1" parent="0" />
        <mxCell id="AcxdMaKK0mU5kZiv2lnr-41" style="edgeStyle=elbowEdgeStyle;rounded=0;orthogonalLoop=1;jettySize=auto;elbow=vertical;html=1;strokeColor=#000000;" parent="1" source="AcxdMaKK0mU5kZiv2lnr-31" target="AcxdMaKK0mU5kZiv2lnr-32" edge="1">
          <mxGeometry relative="1" as="geometry" />
        </mxCell>
        <mxCell id="AcxdMaKK0mU5kZiv2lnr-48" style="rounded=0;orthogonalLoop=1;jettySize=auto;elbow=vertical;html=1;strokeColor=#000000;" parent="1" source="AcxdMaKK0mU5kZiv2lnr-32" edge="1">
          <mxGeometry relative="1" as="geometry">
            <mxPoint x="580" y="422" as="targetPoint" />
          </mxGeometry>
        </mxCell>
        <mxCell id="AcxdMaKK0mU5kZiv2lnr-46" style="edgeStyle=elbowEdgeStyle;rounded=0;orthogonalLoop=1;jettySize=auto;elbow=vertical;html=1;strokeColor=#000000;startArrow=none;" parent="1" source="ul5Ljdfapj6bAUza6q9H-19" edge="1">
          <mxGeometry relative="1" as="geometry">
            <mxPoint x="830" y="590" as="targetPoint" />
            <Array as="points">
              <mxPoint x="830" y="590" />
              <mxPoint x="690" y="590" />
            </Array>
          </mxGeometry>
        </mxCell>
        <mxCell id="AcxdMaKK0mU5kZiv2lnr-49" style="edgeStyle=elbowEdgeStyle;rounded=0;orthogonalLoop=1;jettySize=auto;elbow=vertical;html=1;strokeColor=#000000;exitX=0.5;exitY=1;exitDx=0;exitDy=0;startArrow=none;" parent="1" source="RLjyjs_sm2IHfBNOWAbh-7" edge="1">
          <mxGeometry relative="1" as="geometry">
            <mxPoint x="680" y="425" as="sourcePoint" />
            <mxPoint x="830" y="560" as="targetPoint" />
            <Array as="points">
              <mxPoint x="670" y="560" />
              <mxPoint x="800" y="479" />
            </Array>
          </mxGeometry>
        </mxCell>
        <mxCell id="AcxdMaKK0mU5kZiv2lnr-50" style="edgeStyle=elbowEdgeStyle;rounded=0;orthogonalLoop=1;jettySize=auto;html=1;strokeColor=#000000;exitX=0.5;exitY=0;exitDx=0;exitDy=0;" parent="1" source="AcxdMaKK0mU5kZiv2lnr-32" edge="1">
          <mxGeometry relative="1" as="geometry">
            <mxPoint x="414" y="391" as="sourcePoint" />
            <mxPoint x="830" y="320" as="targetPoint" />
            <Array as="points">
              <mxPoint x="410" y="340" />
            </Array>
          </mxGeometry>
        </mxCell>
        <mxCell id="AcxdMaKK0mU5kZiv2lnr-42" style="edgeStyle=elbowEdgeStyle;rounded=0;orthogonalLoop=1;jettySize=auto;elbow=vertical;html=1;strokeColor=#000000;startArrow=none;" parent="1" source="ul5Ljdfapj6bAUza6q9H-6" target="AcxdMaKK0mU5kZiv2lnr-31" edge="1">
          <mxGeometry relative="1" as="geometry" />
        </mxCell>
        <mxCell id="AcxdMaKK0mU5kZiv2lnr-43" style="edgeStyle=elbowEdgeStyle;rounded=0;orthogonalLoop=1;jettySize=auto;elbow=vertical;html=1;strokeColor=#808080;" parent="1" source="AcxdMaKK0mU5kZiv2lnr-38" target="AcxdMaKK0mU5kZiv2lnr-37" edge="1">
          <mxGeometry relative="1" as="geometry" />
        </mxCell>
        <mxCell id="AcxdMaKK0mU5kZiv2lnr-31" value="GitHub" style="shape=image;verticalLabelPosition=bottom;labelBackgroundColor=#ffffff;verticalAlign=top;aspect=fixed;imageAspect=0;image=data:image/svg+xml,PHN2ZyB4bWxuczpjYz0iaHR0cDovL2NyZWF0aXZlY29tbW9ucy5vcmcvbnMjIiB4bWxuczpkYz0iaHR0cDovL3B1cmwub3JnL2RjL2VsZW1lbnRzLzEuMS8iIHhtbG5zOmlua3NjYXBlPSJodHRwOi8vd3d3Lmlua3NjYXBlLm9yZy9uYW1lc3BhY2VzL2lua3NjYXBlIiB4bWxuczpyZGY9Imh0dHA6Ly93d3cudzMub3JnLzE5OTkvMDIvMjItcmRmLXN5bnRheC1ucyMiIHhtbG5zOnNvZGlwb2RpPSJodHRwOi8vc29kaXBvZGkuc291cmNlZm9yZ2UubmV0L0RURC9zb2RpcG9kaS0wLmR0ZCIgeG1sbnM6c3ZnPSJodHRwOi8vd3d3LnczLm9yZy8yMDAwL3N2ZyIgeG1sbnM9Imh0dHA6Ly93d3cudzMub3JnLzIwMDAvc3ZnIiB4bWxuczp4bGluaz0iaHR0cDovL3d3dy53My5vcmcvMTk5OS94bGluayIgdmVyc2lvbj0iMS4xIiBpZD0ic3ZnMTc1NjcxIiBpbmtzY2FwZTp2ZXJzaW9uPSIwLjkyLjMgKDI0MDU1NDYsIDIwMTgtMDMtMTEpIiBzb2RpcG9kaTpkb2NuYW1lPSJnaXRodWIuc3ZnIiB4PSIwcHgiIHk9IjBweCIgdmlld0JveD0iMCAwIDQ1LjI3IDQ1LjI5IiBzdHlsZT0iZW5hYmxlLWJhY2tncm91bmQ6bmV3IDAgMCA0NS4yNyA0NS4yOTsiIHhtbDpzcGFjZT0icHJlc2VydmUiPiYjeGE7PHNvZGlwb2RpOm5hbWVkdmlldyBib3JkZXJjb2xvcj0iIzY2NjY2NiIgYm9yZGVyb3BhY2l0eT0iMSIgZml0LW1hcmdpbi1ib3R0b209IjAiIGZpdC1tYXJnaW4tbGVmdD0iMCIgZml0LW1hcmdpbi1yaWdodD0iMCIgZml0LW1hcmdpbi10b3A9IjAiIGdyaWR0b2xlcmFuY2U9IjEwIiBndWlkZXRvbGVyYW5jZT0iMTAiIGlkPSJuYW1lZHZpZXcxNzU2NzMiIGlua3NjYXBlOmN1cnJlbnQtbGF5ZXI9InN2ZzE3NTY3MSIgaW5rc2NhcGU6Y3g9IjMwLjE3ODAyNSIgaW5rc2NhcGU6Y3k9IjMwLjE5NDMxOSIgaW5rc2NhcGU6cGFnZW9wYWNpdHk9IjAiIGlua3NjYXBlOnBhZ2VzaGFkb3c9IjIiIGlua3NjYXBlOndpbmRvdy1oZWlnaHQ9IjEwMTciIGlua3NjYXBlOndpbmRvdy1tYXhpbWl6ZWQ9IjEiIGlua3NjYXBlOndpbmRvdy13aWR0aD0iMTkyMCIgaW5rc2NhcGU6d2luZG93LXg9Ii04IiBpbmtzY2FwZTp3aW5kb3cteT0iLTgiIGlua3NjYXBlOnpvb209IjEwLjA5NTE1OCIgb2JqZWN0dG9sZXJhbmNlPSIxMCIgcGFnZWNvbG9yPSIjZmZmZmZmIiBzaG93Z3JpZD0iZmFsc2UiPiYjeGE7CTwvc29kaXBvZGk6bmFtZWR2aWV3PiYjeGE7PGcgaWQ9ImcxNzU2NjkiIHRyYW5zZm9ybT0idHJhbnNsYXRlKC05LjU2MjU0MTcsLTkuNTYxMzEpIj4mI3hhOwk8dGl0bGUgaWQ9InRpdGxlMTc1NjU5Ij5QYWdlLTE8L3RpdGxlPiYjeGE7CTxnIGlkPSJncm91cDIyNTAtMSIgdHJhbnNmb3JtPSJ0cmFuc2xhdGUoOS41NjMwOCwtOS4zNzg2OSkiPiYjeGE7CQk8dGl0bGUgaWQ9InRpdGxlMTc1NjYxIj5HaXRIdWI8L3RpdGxlPiYjeGE7CQk8ZyBpZD0ic2hhcGUyMjUxLTIiPiYjeGE7CQkJPHRpdGxlIGlkPSJ0aXRsZTE3NTY2MyI+U2hlZXQuMjI1MTwvdGl0bGU+JiN4YTsJCQk8cGF0aCBpZD0icGF0aDE3NTY2NSIgaW5rc2NhcGU6Y29ubmVjdG9yLWN1cnZhdHVyZT0iMCIgZD0iTTIyLjYzLDE4Ljk0QzEwLjE0LDE4Ljk0LDAsMjkuMzMsMCw0Mi4xNSAgICAgYy0wLjA3LDkuODksNi4xNSwxOC43MywxNS40OCwyMi4wMWMxLjEzLDAuMjIsMS41NC0wLjUsMS41NC0xLjExYzAtMC42MiwwLTIuMDEsMC0zLjk1Yy02LjI5LDEuNDEtNy42Mi0zLjExLTcuNjItMy4xMSAgICAgYy0xLjAzLTIuNjgtMi41MS0zLjQtMi41MS0zLjRjLTIuMDYtMS40MSwwLjE1LTEuNDEsMC4xNS0xLjQxYzIuMjcsMC4xNiwzLjQ3LDIuMzksMy40NywyLjM5YzIuMDIsMy41NCw1LjMsMi41Miw2LjU4LDEuOTMgICAgIGMwLjEtMS4xNywwLjYtMi4yNiwxLjQyLTMuMUMxMy40OCw1MS44MSw4LjIsNDkuODIsOC4yLDQwLjkyYy0wLjA0LTIuMjksMC43OS00LjUxLDIuMzItNi4yMmMtMC42OS0yLTAuNjEtNC4xOSwwLjIyLTYuMTQgICAgIGMwLDAsMS45MS0wLjYyLDYuMjMsMi40YzMuNy0xLjA0LDcuNjItMS4wNCwxMS4zMiwwYzQuMzItMyw2LjIyLTIuMzcsNi4yMi0yLjM3YzAuODMsMS45NSwwLjkxLDQuMTQsMC4yMiw2LjE0ICAgICBjMS41MywxLjcsMi4zNywzLjkzLDIuMzMsNi4yMmMwLDguOTEtNS4yOSwxMC44OC0xMC4zMywxMS40NWMwLjgxLDAuNzEsMS41MywyLjEyLDEuNTMsNC4zYzAsMy4xMSwwLDUuNjEsMCw2LjM3ICAgICBjMCwwLjYyLDAuNDEsMS4zNCwxLjU2LDEuMTJjOS4zMy0zLjMsMTUuNTMtMTIuMTUsMTUuNDUtMjIuMDRDNDUuMjcsMjkuMzMsMzUuMTMsMTguOTQsMjIuNjMsMTguOTR6Ii8+JiN4YTsJCTwvZz4mI3hhOwk8L2c+JiN4YTs8L2c+JiN4YTs8L3N2Zz4=;spacingTop=4;" parent="1" vertex="1">
          <mxGeometry x="114.5" y="391.5" width="60" height="60" as="geometry" />
        </mxCell>
        <mxCell id="AcxdMaKK0mU5kZiv2lnr-32" value="Jenkins" style="shape=image;verticalLabelPosition=bottom;labelBackgroundColor=none;verticalAlign=top;aspect=fixed;imageAspect=0;image=data:image/svg+xml,PHN2ZyB4bWxuczpjYz0iaHR0cDovL2NyZWF0aXZlY29tbW9ucy5vcmcvbnMjIiB4bWxuczpkYz0iaHR0cDovL3B1cmwub3JnL2RjL2VsZW1lbnRzLzEuMS8iIHhtbG5zOmlua3NjYXBlPSJodHRwOi8vd3d3Lmlua3NjYXBlLm9yZy9uYW1lc3BhY2VzL2lua3NjYXBlIiB4bWxuczpyZGY9Imh0dHA6Ly93d3cudzMub3JnLzE5OTkvMDIvMjItcmRmLXN5bnRheC1ucyMiIHhtbG5zOnNvZGlwb2RpPSJodHRwOi8vc29kaXBvZGkuc291cmNlZm9yZ2UubmV0L0RURC9zb2RpcG9kaS0wLmR0ZCIgeG1sbnM6c3ZnPSJodHRwOi8vd3d3LnczLm9yZy8yMDAwL3N2ZyIgeG1sbnM9Imh0dHA6Ly93d3cudzMub3JnLzIwMDAvc3ZnIiB4bWxuczp4bGluaz0iaHR0cDovL3d3dy53My5vcmcvMTk5OS94bGluayIgdmVyc2lvbj0iMS4xIiBpZD0ic3ZnMjQ4MSIgaW5rc2NhcGU6dmVyc2lvbj0iMC45Mi4zICgyNDA1NTQ2LCAyMDE4LTAzLTExKSIgc29kaXBvZGk6ZG9jbmFtZT0iamVua2lucy5zdmciIHg9IjBweCIgeT0iMHB4IiB2aWV3Qm94PSIwIDAgNDMuMzkgNDcuODIiIHN0eWxlPSJlbmFibGUtYmFja2dyb3VuZDpuZXcgMCAwIDQzLjM5IDQ3LjgyOyIgeG1sOnNwYWNlPSJwcmVzZXJ2ZSI+JiN4YTs8c29kaXBvZGk6bmFtZWR2aWV3IGJvcmRlcmNvbG9yPSIjNjY2NjY2IiBib3JkZXJvcGFjaXR5PSIxIiBmaXQtbWFyZ2luLWJvdHRvbT0iMCIgZml0LW1hcmdpbi1sZWZ0PSIwIiBmaXQtbWFyZ2luLXJpZ2h0PSIwIiBmaXQtbWFyZ2luLXRvcD0iMCIgZ3JpZHRvbGVyYW5jZT0iMTAiIGd1aWRldG9sZXJhbmNlPSIxMCIgaWQ9Im5hbWVkdmlldzI0ODMiIGlua3NjYXBlOmN1cnJlbnQtbGF5ZXI9InN2ZzI0ODEiIGlua3NjYXBlOmN4PSIzOC45MDIzMDgiIGlua3NjYXBlOmN5PSI5LjMxNTMxNyIgaW5rc2NhcGU6cGFnZW9wYWNpdHk9IjAiIGlua3NjYXBlOnBhZ2VzaGFkb3c9IjIiIGlua3NjYXBlOndpbmRvdy1oZWlnaHQ9IjEwMTciIGlua3NjYXBlOndpbmRvdy1tYXhpbWl6ZWQ9IjEiIGlua3NjYXBlOndpbmRvdy13aWR0aD0iMTkyMCIgaW5rc2NhcGU6d2luZG93LXg9Ii04IiBpbmtzY2FwZTp3aW5kb3cteT0iLTgiIGlua3NjYXBlOnpvb209IjYuNTkyNzExNCIgb2JqZWN0dG9sZXJhbmNlPSIxMCIgcGFnZWNvbG9yPSIjZmZmZmZmIiBzaG93Z3JpZD0iZmFsc2UiPiYjeGE7CTwvc29kaXBvZGk6bmFtZWR2aWV3PiYjeGE7PGcgaWQ9ImcyNDc5IiB0cmFuc2Zvcm09InRyYW5zbGF0ZSgtMC43NSwtMC43NTA5OTM0NSkiPiYjeGE7CTx0aXRsZSBpZD0idGl0bGUyMzExIj5QYWdlLTE8L3RpdGxlPiYjeGE7CTxnIGlkPSJncm91cDE2NDEtMSIgdHJhbnNmb3JtPSJ0cmFuc2xhdGUoMC43NSwtMC43NSkiPiYjeGE7CQk8dGl0bGUgaWQ9InRpdGxlMjMxMyI+SmVua2luczwvdGl0bGU+JiN4YTsJCTxnIGlkPSJncm91cDE2NDItMiI+JiN4YTsJCQk8dGl0bGUgaWQ9InRpdGxlMjMxNSI+ZzE0NTI0PC90aXRsZT4mI3hhOwkJCTxnIGlkPSJzaGFwZTE2NDMtMyI+JiN4YTsJCQkJPHRpdGxlIGlkPSJ0aXRsZTIzMTciPnBhdGgxNDQ2MDwvdGl0bGU+JiN4YTsJCQkJPHBhdGggaWQ9InBhdGgyMzE5IiBpbmtzY2FwZTpjb25uZWN0b3ItY3VydmF0dXJlPSIwIiBzdHlsZT0iZmlsbDojMjgyNDI1OyIgZD0iTTQwLjY2LDM4LjEyYy0wLjcxLTAuNzUtMS41LTEuMzctMi4yNS0yLjA1ICAgICAgYy0wLjU3LTAuNDItMC43MS0xLjIyLTAuMzEtMS44MWMzLjM5LTYuMjYsMy44LTEyLjk4LDIuODYtMTkuODZjLTAuOTMtNi40Ny03LTEyLjQtMTMuNjgtMTIuODVjLTEuODgtMC4wOS0zLjc3LTAuMDUtNS42NSwwLjExICAgICAgYy00LjIyLDAuNzUtNy44OCwyLjY5LTExLjM4LDVDOC45Niw3LjQ5LDgsOC43NCw3LjUxLDEwLjE5Yy0wLjA4LDAuMjItMC4xOCwwLjUyLTAuMzUsMC42M2MtMS44NywxLjA2LTIuMzcsMi44Ni0yLjU2LDQuNzUgICAgICBjLTAuMDcsMS4wOC0wLjA1LDIuMTYsMC4wNywzLjIzYzAuMDgsMC42OS0wLjA1LDEuMzktMC4zNiwyLjAyYy0xLjAzLDIuMTYtMC42OSw0LjM1LDAuMTYsNi40OGMwLjYxLDEuOCwyLjA3LDMuMTcsMy45LDMuNjcgICAgICBjMC4yNiwwLjExLDAuNDYsMC4zMywwLjU2LDAuNTljMC40NywxLjEzLDAuODMsMi4zMSwxLjM1LDMuNDJjMC41MywxLjExLDAuNTYsMS41NS0wLjYxLDIuMjVjLTIuOCwxLjczLTUuNjQsMy4zOS04LjQ3LDUuMDkgICAgICBjLTAuNDMsMC4zMi0wLjg0LDAuNjktMS4yLDEuMDl2MS4xMmMwLjUyLDEuNDgsMS4yLDMuMjksMS43Miw0Ljc5aDM5LjQyYzAuNzUtMi4zNiwxLjUtNS4wNCwyLjI1LTcuNHYtMC43NSAgICAgIEM0Mi40NSw0MC4xNSw0MS42MSwzOS4xLDQwLjY2LDM4LjEyeiBNMzAuMjksNDMuNjRjMC4wNywwLjU4LTAuMzUsMS4xMS0wLjkzLDEuMTdjLTAuMDMsMC0wLjA2LDAuMDEtMC4wOSwwLjAxICAgICAgYy0wLjU3LDAuMDYtMC44Ny0wLjQ3LTAuODktMS43N2MwLjI2LTAuMjIsMC41Ni0wLjM4LDAuODgtMC40OEMyOS45Miw0Mi41NywzMC4yNyw0My4wMiwzMC4yOSw0My42NHoiLz4mI3hhOwkJCTwvZz4mI3hhOwkJCTxnIGlkPSJzaGFwZTE2NDQtNSIgdHJhbnNmb3JtPSJ0cmFuc2xhdGUoNS43LC04LjA0NzUpIj4mI3hhOwkJCQk8dGl0bGUgaWQ9InRpdGxlMjMyMiI+cGF0aDE0NDYyPC90aXRsZT4mI3hhOwkJCQk8cGF0aCBpZD0icGF0aDIzMjQiIGlua3NjYXBlOmNvbm5lY3Rvci1jdXJ2YXR1cmU9IjAiIHN0eWxlPSJmaWxsOiNFRUQ0QjU7IiBkPSJNMjguNzUsMTkuODNjMC43My0wLjIsMS40OS0wLjI5LDIuMjUtMC4yNiAgICAgIGMxLjY0LDAuMjMsMi45MiwxLjUyLDMuMTMsMy4xNmMxLjE1LDcuNTYsMC42OCwxNC45Mi00LjQ2LDIxYy0zLjEzLDMuNzUtOS4yMSw1LjU5LTE0LjMzLDEuMDVjLTEuMjctMS4yNy0yLjQ2LTIuNjEtMy41Ni00LjAzICAgICAgYy0wLjIxLTAuMjUtMC40MS0wLjUtMC43NS0wLjkxYzAuMzksMi4yNSwyLjE4LDQuNSw1LjQsNy4wNmMtMC44MiwwLjQtMS42OSwwLjctMi41OSwwLjljLTEuMy0wLjAyLTIuNTktMC4xNC0zLjg3LTAuMzggICAgICBDNy4zLDQ0LjU3LDYuOSw0MS4yNSw2LjU4LDM3LjM4YzAtMC4zNi0wLjQ2LTAuNjktMC43LTEuMDRjLTAuMzgsMC4wNS0wLjc1LDAuMTUtMS4xLDAuM2MtMS41NiwwLjk4LTIuNzcsMC43NS0zLjkyLTAuODIgICAgICBMMC42NywzNS42TDAsMzQuNzdjMC4wOC0wLjI0LDAuMDQtMS4zNiwwLjA4LTEuNjJjMC4xNC0xLjA4LDAuOC0wLjc1LDAuOTItMS44N2wwLjkzLTAuMzdjLTAuMzYsMi4xMi0wLjI4LDIuODQsMC4zNCwzLjU1ICAgICAgYzAuMDEtMC42OCwwLjA2LTEuMzYsMC4xNS0yLjAzYzAuMDctMC4zMywwLjQtMC42MywwLjYxLTAuOTRjMC4zMSwwLjE5LDAuNjEsMC40MiwwLjg3LDAuNjhjMC4yOCwwLjQxLDAuNTMsMC44NCwwLjc1LDEuMjggICAgICBjMC4yNi0xLjI5LTAuNjUtMy4xNi0xLjI3LTMuOTdjMC4zNywwLDEuMjUsMS4wMywxLjYxLDEuMDRsMC4wOCwwLjI2bDAuMzQsMC45NWMwLjI3LDAsMC4yNSwwLjEzLDAuNTUsMC4xMiAgICAgIGMxLjM4LTAuMDksMi4wNi0wLjYsMS43My0xLjg5Yy0wLjk0LTMuOC0wLjA1LTcuNC0wLjE5LTguOWMwLjI4LTAuNDMsMC43LTIuMjksMC45NC0yLjc1YzEuMzEtMi41NSwzLjM4LTMuOCw2LTUuMDQgICAgICBjMy43NS0xLjc4LDYuMzUtMS4yOCwxMC40MS0wLjYzYzAuMzQsMC4wNSwyLjMsMC44MywyLjY1LDAuODZjMS40MSwxLjIxLDIuNzIsMi41MiwzLjkzLDMuOTNjLTEuMjcsMC4yMy0xLjk2LTAuNTMtMi4yNSwwLjc1ICAgICAgQzI5LjAzLDE4LjY2LDI4LjE0LDE5Ljc0LDI4Ljc1LDE5LjgzeiBNMzEuODksMjQuMzNjLTAuMjEsMC4wNCwwLjcxLDIuMzcsMC44OCwyLjc3bC0xLjM2LDAuMjJsLTEuMzUsMC4xOWwtMC4xNywwLjI3ICAgICAgYzAuMzMsMC4zMywwLjYxLDAuOCwxLjAxLDAuOTZjMC43NSwwLjMzLDIuMzMtMC4yNSwyLjg1LTAuOTRjMC4xLTAuMTQsMC4yMy0wLjM4LDAuMTgtMC40OGMtMC42Mi0xLjI0LTEuMjctMi40NS0xLjk4LTMuODMgICAgICBMMzEuODksMjQuMzN6IE0xMi41NiwyMi42MmwwLjQxLDAuNzVjMC4wOC0wLjA3LDAuMTYtMC4xNCwwLjIzLTAuMjJjMC4wNS0wLjA4LDAuMDktMC4xNiwwLjEzLTAuMjRjMC45Mi0xLjg0LDIuMjUtMyw0LjQ1LTIuNzIgICAgICBjMC43NSwwLjA5LDAuNjEtMC40NiwwLjM2LTAuODRjLTAuMjItMC4yNS0wLjQ3LTAuNDgtMC43NS0wLjY2QzE1LjA2LDE3LjM0LDExLjk0LDIxLjk5LDEyLjU2LDIyLjYyeiBNMjAuMzksMjYuODlMMjEsMjcuNzUgICAgICBjLTEuMTYsMC43NS0yLjMzLDAuMDYtMy40MywwLjE1Yy0wLjM1LDAuNzUtMC4wOSwxLjI4LDAuNTgsMS4zOWMwLjkyLDAuMiwxLjg4LDAuMjMsMi44MSwwLjA4YzEuMjktMC4yOCwxLjUtMS41LDAuNjQtMi40OSAgICAgIGMtMC4zNi0wLjM4LTAuNjgtMC43OS0wLjk2LTEuMjNjLTAuMzQtMC41OC0wLjU5LTEuMjItMC45NS0xLjk1bC0wLjE4LDAuNmMtMC42MywwLjIzLDAuMjUsMi42NSwwLjg5LDIuNTlMMjAuMzksMjYuODl6ICAgICAgIE0yOC4wOSw0MS42MWMtMS42MSwwLTMuMDMsMC4wOC00LjQ0LDBjLTEuNzgtMC4xMS0zLjQzLTAuNTctNC40MS0yLjI5Yy0wLjA5LTAuMTctMC41Mi0wLjE0LTAuOTQtMC4yMyAgICAgIGMxLjU4LDIuNTIsMy4xNyw0LjU2LDYuMzEsNC4wNkMyNS44Myw0Mi45MiwyNy4xOSw0My4xMSwyOC4wOSw0MS42MXogTTI2LjkxLDM4LjQ1bC03LjM1LTAuNzVjMi4wMSwyLjI1LDQuNjQsMi4zMyw3LjM1LDIuNDMgICAgICBWMzguNDV6IE0yNy42NiwzOS44OGMyLjE0LDAsNC4wNC0xLjM5LDQuNjktMy40M2wtNC42OSwxLjlMMjcuNjYsMzkuODh6Ii8+JiN4YTsJCQk8L2c+JiN4YTsJCQk8ZyBpZD0ic2hhcGUxNjQ1LTciIHRyYW5zZm9ybT0idHJhbnNsYXRlKDQuNDU1LC0xLjU5KSI+JiN4YTsJCQkJPHRpdGxlIGlkPSJ0aXRsZTIzMjciPnBhdGgxNDQ2NDwvdGl0bGU+JiN4YTsJCQkJPHBhdGggaWQ9InBhdGgyMzI5IiBpbmtzY2FwZTpjb25uZWN0b3ItY3VydmF0dXJlPSIwIiBzdHlsZT0iZmlsbDojMzM1MDYxOyIgZD0iTTE1LjQ5LDQ5LjMySDAuNjEgICAgICBjLTAuMTQtMC44Mi0wLjIyLTEuNjYtMC40NS0yLjQ2Yy0wLjE2LTAuNTksMC0wLjg0LDAuNTQtMS4wNWMyLjAxLTAuODcsNC4wMi0xLjc2LDYtMi42N2MwLjc1LTAuMzMsMS40LTAuNzUsMi4xLTEuMTIgICAgICBjMS4zOSwwLjg4LDIuNzUsMS44Myw0LjIsMi42YzAuOTMsMC41LDEuNzcsMC44NCwxLjgzLDIuMTJDMTQuOTYsNDcuNjIsMTUuMTgsNDguNDksMTUuNDksNDkuMzJ6Ii8+JiN4YTsJCQk8L2c+JiN4YTsJCQk8ZyBpZD0ic2hhcGUxNjQ2LTkiIHRyYW5zZm9ybT0idHJhbnNsYXRlKDEzLjExNzUsLTM1LjI1KSI+JiN4YTsJCQkJPHRpdGxlIGlkPSJ0aXRsZTIzMzIiPnBhdGgxNDQ2NjwvdGl0bGU+JiN4YTsJCQkJPHBhdGggaWQ9InBhdGgyMzM0IiBpbmtzY2FwZTpjb25uZWN0b3ItY3VydmF0dXJlPSIwIiBzdHlsZT0iZmlsbDojRjNFMUNBOyIgZD0iTTIwLjAzLDQwLjcxYy0wLjM1LDAtMC43LDAtMS4wNi0wLjA5ICAgICAgQzE1LDM5Ljg1LDEwLjg5LDQwLjMzLDcuMjEsNDJjLTIuNTMsMS4yMy00LjU4LDMuMjgtNS44LDUuODJjLTAuMjMsMC40NS0xLjA0LDEuMTEtMS4zMywxLjVjLTAuMDgtMC45OCwwLjA1LTIuMDMsMC0zICAgICAgYzAuMDQtMC40MSwwLjE4LTAuOCwwLjQxLTEuMTRjMC40OS0wLjc4LDEuMDYtMS41MSwxLjcxLTIuMTdjMi4xNC0xLjk1LDQuNS0zLjcxLDcuMzUtNC4zNCAgICAgIEMxMy4yNywzNy44NSwxNi43NiwzOC44NiwyMC4wMyw0MC43MXoiLz4mI3hhOwkJCTwvZz4mI3hhOwkJCTxnIGlkPSJzaGFwZTE2NDctMTEiIHRyYW5zZm9ybT0idHJhbnNsYXRlKDYuNTk0MDUsLTI2Ljk3NzUpIj4mI3hhOwkJCQk8dGl0bGUgaWQ9InRpdGxlMjMzNyI+cGF0aDE0NDY4PC90aXRsZT4mI3hhOwkJCQk8cGF0aCBpZD0icGF0aDIzMzkiIGlua3NjYXBlOmNvbm5lY3Rvci1jdXJ2YXR1cmU9IjAiIHN0eWxlPSJmaWxsOiM2RDZCNkQ7IiBkPSJNNS45LDM4Ljc2YzAuMDcsMS4yNiwwLjA1LDIuNTItMC4wNCwzLjc4ICAgICAgYy0wLjMyLDIuMS0wLjc1LDMsMC4xNSw1LjgxYzAuMDgsMC4yNC0wLjEyLDAuNTgtMC4yMSwwLjk3Yy0wLjI1LTAuMTktMC4zMy0wLjIxLTAuMzQtMC4yNmMtMC43NS0yLjU5LTIuMjUtMy40MS01LjI1LTIuODMgICAgICBjLTAuNC0xLjM0LTAuMjctMi43OSwwLjM3LTQuMDNDMS41OSwzOS45MywzLjYxLDM5LjA3LDUuOSwzOC43NnoiLz4mI3hhOwkJCTwvZz4mI3hhOwkJCTxnIGlkPSJzaGFwZTE2NDgtMTMiIHRyYW5zZm9ybT0idHJhbnNsYXRlKDIuMDkyNSwtMS42MDUpIj4mI3hhOwkJCQk8dGl0bGUgaWQ9InRpdGxlMjM0MiI+cGF0aDE0NDcwPC90aXRsZT4mI3hhOwkJCQk8cGF0aCBpZD0icGF0aDIzNDQiIGlua3NjYXBlOmNvbm5lY3Rvci1jdXJ2YXR1cmU9IjAiIHN0eWxlPSJmaWxsOiM0ODcwODk7IiBkPSJNMTEuMTcsNDIuMDJjLTAuNywwLjM3LTEuMzgsMC44LTIuMSwxLjEyICAgICAgYy0xLjk5LDAuOTEtNCwxLjgtNiwyLjY3Yy0wLjUsMC4yMS0wLjcsMC40Ni0wLjU0LDEuMDVjMC4yMywwLjgsMC4zMSwxLjY0LDAuNDUsMi40NkgxLjFjLTAuMzctMC45NS0wLjc5LTEuODktMS4xLTIuODUgICAgICBjLTAuMDYtMC4zMSwwLjAyLTAuNjMsMC4yMy0wLjg3YzIuNTItMi4wOCw1LjI5LTMuODUsOC4yNS01LjI1YzAuNTEtMC4zMSwxLjE3LTAuMTcsMS41LDAuMzIgICAgICBDMTAuMzksNDEuMTcsMTAuNzksNDEuNTcsMTEuMTcsNDIuMDJ6Ii8+JiN4YTsJCQk8L2c+JiN4YTsJCQk8ZyBpZD0ic2hhcGUxNjQ5LTE1IiB0cmFuc2Zvcm09InRyYW5zbGF0ZSgzNi43OTUsLTEuNTgyNSkiPiYjeGE7CQkJCTx0aXRsZSBpZD0idGl0bGUyMzQ3Ij5wYXRoMTQ0NzI8L3RpdGxlPiYjeGE7CQkJCTxwYXRoIGlkPSJwYXRoMjM0OSIgaW5rc2NhcGU6Y29ubmVjdG9yLWN1cnZhdHVyZT0iMCIgc3R5bGU9ImZpbGw6IzMzNEY2MDsiIGQ9Ik0zLjYxLDQ5LjMyTDEsNDkuMjdjMC0wLjE1LDAtMC4zNy0wLjA2LTAuNDQgICAgICBDMCw0OC4wMiwwLjI5LDQ3LjEsMC41Miw0Ni4wOGMwLjMtMS42MSwwLjE1LTMuMjctMC40NS00LjhjMC4yMiwwLjEsMC40MywwLjIxLDAuNjMsMC4zM2MxLjM1LDAuOTQsMi43LDEuODksNC4wNCwyLjgzICAgICAgTDMuNjEsNDkuMzJ6Ii8+JiN4YTsJCQk8L2c+JiN4YTsJCQk8ZyBpZD0ic2hhcGUxNjUwLTE3IiB0cmFuc2Zvcm09InRyYW5zbGF0ZSgxMC40ODE2LC05Ljg0KSI+JiN4YTsJCQkJPHRpdGxlIGlkPSJ0aXRsZTIzNTIiPnBhdGgxNDQ3NDwvdGl0bGU+JiN4YTsJCQkJPHBhdGggaWQ9InBhdGgyMzU0IiBpbmtzY2FwZTpjb25uZWN0b3ItY3VydmF0dXJlPSIwIiBzdHlsZT0iZmlsbDojRjJFMEM5OyIgZD0iTTEuMDgsMzguMTZjMC4yNCwwLjM0LDAuOTMsMC42NywwLjk2LDEuMDMgICAgICBjMC4zMSwzLjg3LDEuNCw3LjI4LDQuMDgsMTAuMTNjLTEuNTMsMC4wMS0yLjkzLTAuODItMy42Ni0yLjE2Yy0wLjkzLTEuOTEtMS42Mi0zLjkzLTIuMzgtNS45MWMtMC4yNS0wLjU5LTAuMDktMS4yNywwLjM5LTEuNyAgICAgIEMwLjc1LDM5LjEyLDAuOTUsMzguNjUsMS4wOCwzOC4xNnoiLz4mI3hhOwkJCTwvZz4mI3hhOwkJCTxnIGlkPSJzaGFwZTE2NTEtMTkiIHRyYW5zZm9ybT0idHJhbnNsYXRlKDMxLjMyLC0zLjU3KSI+JiN4YTsJCQkJPHRpdGxlIGlkPSJ0aXRsZTIzNTciPnBhdGgxNDQ3NjwvdGl0bGU+JiN4YTsJCQkJPHBhdGggaWQ9InBhdGgyMzU5IiBpbmtzY2FwZTpjb25uZWN0b3ItY3VydmF0dXJlPSIwIiBzdHlsZT0iZmlsbDojQ0YzNzMzOyIgZD0iTTQuNyw0NC43M2MwLjExLDEuMjUsMC4yMywyLjQ5LDAuMywzLjc1ICAgICAgYzAsMC41Ny0wLjMxLDAuODQtMC45MSwwLjc1bC0zLjc1LTAuNTdDMC4yOCw0OC4wMywwLDQ3LjExLDAuNzYsNDcuMDdjMC43NS0wLjA1LDAuODItMS4zNSwwLjg2LTEuOSAgICAgIGMwLjA5LTEuMzEsMC41MS0wLjksMS44NC0xLjA4QzMuODgsNDQuMDQsNC4yNyw0NC43OSw0LjcsNDQuNzN6Ii8+JiN4YTsJCQk8L2c+JiN4YTsJCQk8ZyBpZD0ic2hhcGUxNjUyLTIxIiB0cmFuc2Zvcm09InRyYW5zbGF0ZSgyMC4wMSwtMC42MykiPiYjeGE7CQkJCTx0aXRsZSBpZD0idGl0bGUyMzYyIj5wYXRoMTQ0Nzg8L3RpdGxlPiYjeGE7CQkJCTxwYXRoIGlkPSJwYXRoMjM2NCIgaW5rc2NhcGU6Y29ubmVjdG9yLWN1cnZhdHVyZT0iMCIgc3R5bGU9ImZpbGw6I0QxMzgzMzsiIGQ9Ik0zLjgxLDQ4Ljg0Yy0wLjU1LDAuMjEtMS4xMSwwLjM3LTEuNjgsMC40OCAgICAgIEMxLjc2LDQ5LjI4LDEuNDEsNDkuMTcsMS4wOCw0OWMwLTAuMDQtMC4wMi0wLjA4LTAuMDUtMC4xMWwtMC4xNS0wLjc1Yy0wLjQ0LTEuNC0wLjcxLTIuODUtMC44MS00LjMxICAgICAgQzAsNDIuOTksMS4xLDQyLjE2LDEuNzIsNDIuMThjMS4yMiwwLjE1LDIuNDMsMC4zOSwzLjYyLDAuN2MwLjIyLDAsMC42OCwwLjMyLDAuNjIsMC41MmMtMC4yMiwwLjc1LTAuMTYsMS4xOCwwLjMyLDEuMzUgICAgICBDNi43Myw0NSw3LjIxLDQ1LjIsNy43LDQ1LjM2Yy0wLjE2LDAuMzktMC4yMiwwLjkzLTAuNTIsMS4xNUM2LjEsNDcuMzIsNC45NSw0OC4wNiwzLjgxLDQ4Ljg0eiIvPiYjeGE7CQkJPC9nPiYjeGE7CQkJPGcgaWQ9InNoYXBlMTY1My0yMyIgdHJhbnNmb3JtPSJ0cmFuc2xhdGUoMjAuMDY1NywtMS43ODUpIj4mI3hhOwkJCQk8dGl0bGUgaWQ9InRpdGxlMjM2NyI+cGF0aDE0NDgwPC90aXRsZT4mI3hhOwkJCQk8cGF0aCBpZD0icGF0aDIzNjkiIGlua3NjYXBlOmNvbm5lY3Rvci1jdXJ2YXR1cmU9IjAiIHN0eWxlPSJmaWxsOiNFNTNCMzk7IiBkPSJNNy42Niw0Ni40OWMtMC41MS0wLjA0LTEuMDEtMC4xMy0xLjUtMC4yNyAgICAgIGMtMC40Ny0wLjE3LTAuOTQtMC40NC0wLjc1LTEuMTdjLTAuMDMtMC4zMi0wLjIyLTAuNi0wLjUxLTAuNzVjLTEuMTItMC4yLTIuMjUtMC4zMS0zLjM4LTAuMzRjLTAuNjIsMC0wLjksMC43NS0wLjgzLDEuNjEgICAgICBjMC4xMSwxLjIzLDAuMTEsMi40OSwwLjE1LDMuNzVjLTAuODUtMS43NC0xLjEzLTMuNjktMC44MS01LjZjMC4yLTEuMjUsMC43LTEuNjYsMS44OS0xLjI4YzEuMTgsMC4zNywyLjQ5LDAuOTEsMy43MSwxLjQyICAgICAgYzAuNjQsMC4yNywxLjI1LDAuNjQsMi4xMSwxLjA4bC0xLjY1LDAuNzFMNy42Niw0Ni40OXoiLz4mI3hhOwkJCTwvZz4mI3hhOwkJCTxnIGlkPSJzaGFwZTE2NTQtMjUiIHRyYW5zZm9ybT0idHJhbnNsYXRlKDQuNzQsLTIyLjAyNzUpIj4mI3hhOwkJCQk8dGl0bGUgaWQ9InRpdGxlMjM3MiI+cGF0aDE0NDgyPC90aXRsZT4mI3hhOwkJCQk8cGF0aCBpZD0icGF0aDIzNzQiIGlua3NjYXBlOmNvbm5lY3Rvci1jdXJ2YXR1cmU9IjAiIHN0eWxlPSJmaWxsOiNFRkREQzc7IiBkPSJNNiw0NC40OUg0Ljg5Yy0wLjQ4LTAuMjUtMC45OC0wLjQ1LTEuNS0wLjU4ICAgICAgYy0wLjY3LTAuMS0xLjMsMC4zNi0xLjQsMS4wNGMtMC4wMiwwLjExLTAuMDIsMC4yMywwLDAuMzRjLTAuMTIsMS4wOS0wLjI0LDIuMTktMC4zOCwzLjI4Yy0wLjA2LDAuMjYtMC4xNCwwLjUxLTAuMjQsMC43NSAgICAgIEMwLjU1LDQ3Ljk4LDAsNDYuNTksMC41Myw0NS4wOWMwLjMxLTAuODMsMC44NS0xLjU1LDEuNTYtMi4wN0MzLjczLDQxLjg3LDUuMjYsNDIuNTEsNiw0NC40OXoiLz4mI3hhOwkJCTwvZz4mI3hhOwkJCTxnIGlkPSJzaGFwZTE2NTUtMjciIHRyYW5zZm9ybT0idHJhbnNsYXRlKDM1LjI3MjUsLTYuNDU3NSkiPiYjeGE7CQkJCTx0aXRsZSBpZD0idGl0bGUyMzc3Ij5wYXRoMTQ0ODQ8L3RpdGxlPiYjeGE7CQkJCTxwYXRoIGlkPSJwYXRoMjM3OSIgaW5rc2NhcGU6Y29ubmVjdG9yLWN1cnZhdHVyZT0iMCIgc3R5bGU9ImZpbGw6IzQ3NkY4NzsiIGQ9Ik02LjI1LDQ5LjMyYy0xLjM0LTAuOTUtMi42OC0xLjg5LTQuMDMtMi44MyAgICAgIGMtMC4yLTAuMTMtMC40MS0wLjI0LTAuNjMtMC4zNEwwLDQ0LjU5bDEuMzMtMS4xNmwyLjI1LDIuMDJjMC40NCwwLjQ3LDAuOTEsMC45MSwxLjQxLDEuMzJDNS45MSw0Ny4yNyw2LjQxLDQ4LjI5LDYuMjUsNDkuMzJ6Ii8+JiN4YTsJCQk8L2c+JiN4YTsJCQk8ZyBpZD0ic2hhcGUxNjU2LTI5IiB0cmFuc2Zvcm09InRyYW5zbGF0ZSg4LjgyLC0zOC44NjUpIj4mI3hhOwkJCQk8dGl0bGUgaWQ9InRpdGxlMjM4MiI+cGF0aDE0NDg2PC90aXRsZT4mI3hhOwkJCQk8cGF0aCBpZD0icGF0aDIzODQiIGlua3NjYXBlOmNvbm5lY3Rvci1jdXJ2YXR1cmU9IjAiIHN0eWxlPSJmaWxsOiNEM0QwQ0Y7IiBkPSJNMS45Nyw0OC41N0wwLDQ5LjMyICAgICAgYzAuOTgtMi42Miw3LjA1LTYuNTEsOC43NC01LjU5bC0yLjQ0LDEuNUM0LjUzLDQ1Ljg0LDMuMDEsNDcuMDEsMS45Nyw0OC41N3oiLz4mI3hhOwkJCTwvZz4mI3hhOwkJCTxnIGlkPSJzaGFwZTE2NTctMzEiIHRyYW5zZm9ybT0idHJhbnNsYXRlKDYuMzE1LC0zMC4wNzUpIj4mI3hhOwkJCQk8dGl0bGUgaWQ9InRpdGxlMjM4NyI+cGF0aDE0NDg4PC90aXRsZT4mI3hhOwkJCQk8cGF0aCBpZD0icGF0aDIzODkiIGlua3NjYXBlOmNvbm5lY3Rvci1jdXJ2YXR1cmU9IjAiIHN0eWxlPSJmaWxsOiNEQ0Q5RDg7IiBkPSJNNi4xOCw0MS44NWMtMi4zMSwwLjMzLTQuMzEsMS4xOC01LjM1LDMuNDMgICAgICBjLTAuNjQsMS4yNS0wLjc4LDIuNy0wLjM3LDQuMDRjLTAuMTUsMC0wLjQ0LDAtMC40Ni0wLjA2Yy0xLjA4LTMuMjcsMC43LTYuOCwzLjk3LTcuODhjMC4zMi0wLjExLDAuNjUtMC4xOSwwLjk4LTAuMjQgICAgICBsMS4wOS0wLjE2TDYuMTgsNDEuODV6Ii8+JiN4YTsJCQk8L2c+JiN4YTsJCQk8ZyBpZD0ic2hhcGUxNjU4LTMzIiB0cmFuc2Zvcm09InRyYW5zbGF0ZSgzMC44NTUsLTQuMjIyNSkiPiYjeGE7CQkJCTx0aXRsZSBpZD0idGl0bGUyMzkyIj5wYXRoMTQ0OTA8L3RpdGxlPiYjeGE7CQkJCTxwYXRoIGlkPSJwYXRoMjM5NCIgaW5rc2NhcGU6Y29ubmVjdG9yLWN1cnZhdHVyZT0iMCIgc3R5bGU9ImZpbGw6I0U1M0IzOTsiIGQ9Ik01LjE3LDQ1LjM4Yy0wLjQyLDAuMDctMC44NCwwLjE0LTEuMjcsMC4xOSAgICAgIGMtMS4zNCwwLjE4LTEuMzMsMC4xOC0xLjQyLDEuNWMtMC4wNCwwLjU1LTAuMTMsMS4wOC0wLjgyLDEuMTJjLTAuNjksMC4wNC0wLjkxLDAuNS0wLjg1LDEuMTNDMC43LDQ4LjksMC40LDQ4LjQxLDAuNTMsNDguMDkgICAgICBjMC4xNC0wLjMxLDAuNjgtMC41NCwxLjA4LTAuODJjLTAuNDQtMC4yNC0xLjYxLDAuMzQtMS40NC0xLjFjMC45NS0wLjU1LDEuOTgtMS4yMywzLjA5LTEuNzVDNC4zNyw0My45LDQuODQsNDQuMjYsNS4xNyw0NS4zOHogICAgICAiLz4mI3hhOwkJCTwvZz4mI3hhOwkJCTxnIGlkPSJzaGFwZTE2NTktMzUiIHRyYW5zZm9ybT0idHJhbnNsYXRlKDI4LjUsLTEuNTk3NSkiPiYjeGE7CQkJCTx0aXRsZSBpZD0idGl0bGUyMzk3Ij5wYXRoMTQ0OTI8L3RpdGxlPiYjeGE7CQkJCTxwYXRoIGlkPSJwYXRoMjM5OSIgaW5rc2NhcGU6Y29ubmVjdG9yLWN1cnZhdHVyZT0iMCIgc3R5bGU9ImZpbGw6I0Y3RjdGNzsiIGQ9Ik0xLjExLDQ5LjMyQzAsNDcuOTEsMS43OCw0Ny45MSwyLjg0LDQ3LjkxICAgICAgYzAuODYsMCwxLjE2LDAuNjYsMS4yNSwxLjM4Yy0wLjQ3LTAuMDktMC45My0wLjItMS4zOS0wLjI1Yy0wLjI3LDAtMC41MywwLjAzLTAuNzksMC4xQzEuNjQsNDkuMTcsMS4zNyw0OS4yNSwxLjExLDQ5LjMyeiIvPiYjeGE7CQkJPC9nPiYjeGE7CQkJPGcgaWQ9InNoYXBlMTY2MC0zNyIgdHJhbnNmb3JtPSJ0cmFuc2xhdGUoMjcuODc3NSwtMS41OTc1KSI+JiN4YTsJCQkJPHRpdGxlIGlkPSJ0aXRsZTI0MDIiPnBhdGgxNDQ5NDwvdGl0bGU+JiN4YTsJCQkJPHBhdGggaWQ9InBhdGgyNDA0IiBpbmtzY2FwZTpjb25uZWN0b3ItY3VydmF0dXJlPSIwIiBzdHlsZT0iZmlsbDojRDdENEQzOyIgZD0iTTQuODksNDkuMjhINC43MWMtMC40OC0wLjI3LTAuOTUtMC41NS0xLjQzLTAuOCAgICAgIGMtMC45NS0wLjQ3LTEuMzItMC4yNi0xLjU2LDAuODRsLTEuMDctMC4wNkwwLDQ4LjE4YzAuNTgtMC44OSwxLjY1LTAuODYsMi40My0wLjg5czEuNjQsMC42MiwyLjQ2LDFMNC44OSw0OS4yOHoiLz4mI3hhOwkJCTwvZz4mI3hhOwkJCTxnIGlkPSJzaGFwZTE2NjEtMzkiIHRyYW5zZm9ybT0idHJhbnNsYXRlKDEwLjc5MjUsLTM5LjU3KSI+JiN4YTsJCQkJPHRpdGxlIGlkPSJ0aXRsZTI0MDciPnBhdGgxNDQ5NjwvdGl0bGU+JiN4YTsJCQkJPHBhdGggaWQ9InBhdGgyNDA5IiBpbmtzY2FwZTpjb25uZWN0b3ItY3VydmF0dXJlPSIwIiBzdHlsZT0iZmlsbDojNkQ2QjZEOyIgZD0iTTAsNDkuMjdjMS4wNS0xLjU0LDIuNTctMi42OSw0LjMzLTMuMjkgICAgICBDMy43OCw0Ny4wMiwzLjEsNDgsMi4zMSw0OC44OEMxLjgyLDQ5LjMyLDAuNzksNDkuMTQsMCw0OS4yN3oiLz4mI3hhOwkJCTwvZz4mI3hhOwkJCTxnIGlkPSJzaGFwZTE2NjItNDEiIHRyYW5zZm9ybT0idHJhbnNsYXRlKDE1LjI0NzUsLTcuMTMyNSkiPiYjeGE7CQkJCTx0aXRsZSBpZD0idGl0bGUyNDEyIj5wYXRoMTQ0OTg8L3RpdGxlPiYjeGE7CQkJCTxwYXRoIGlkPSJwYXRoMjQxNCIgaW5rc2NhcGU6Y29ubmVjdG9yLWN1cnZhdHVyZT0iMCIgc3R5bGU9ImZpbGw6I0U5RThFODsiIGQ9Ik0zLjk1LDQ3Ljk3bC0wLjMxLDEuMzUgICAgICBDMS44LDQ5LjIyLDAuMTksNDguMzYsMCw0Ny4zN0wzLjk1LDQ3Ljk3eiIvPiYjeGE7CQkJPC9nPiYjeGE7CQkJPGcgaWQ9InNoYXBlMTY2My00MyIgdHJhbnNmb3JtPSJ0cmFuc2xhdGUoMzMuODQsLTM3LjUzNzUpIj4mI3hhOwkJCQk8dGl0bGUgaWQ9InRpdGxlMjQxNyI+cGF0aDE0NTAwPC90aXRsZT4mI3hhOwkJCQk8cGF0aCBpZD0icGF0aDI0MTkiIGlua3NjYXBlOmNvbm5lY3Rvci1jdXJ2YXR1cmU9IjAiIHN0eWxlPSJmaWxsOiNGMkUwQzk7IiBkPSJNMC42MSw0OS4zMkMwLDQ5LjIzLDAuMDEsNDguNzksMC4xLDQ4LjM0ICAgICAgYzAuMjMtMS4xOSwxLjIyLTIuMSwyLjQzLTIuMjFsMS4wOSwxLjNjLTAuNjYsMC4wNS0xLjMyLDAuMTUtMS45NiwwLjNDMS4wMSw0Ny45OCwwLjU5LDQ4LjYyLDAuNjEsNDkuMzJ6Ii8+JiN4YTsJCQk8L2c+JiN4YTsJCQk8ZyBpZD0ic2hhcGUxNjY0LTQ1IiB0cmFuc2Zvcm09InRyYW5zbGF0ZSgyNi41MTI1LC03LjYwOTI0KSI+JiN4YTsJCQkJPHRpdGxlIGlkPSJ0aXRsZTI0MjIiPnBhdGgxNDUwMjwvdGl0bGU+JiN4YTsJCQkJPHBhdGggaWQ9InBhdGgyNDI0IiBpbmtzY2FwZTpjb25uZWN0b3ItY3VydmF0dXJlPSIwIiBzdHlsZT0iZmlsbDojREVDOEFEOyIgZD0iTTAsNDguNDFsNC44Mi0wLjUzICAgICAgYy0wLjksMS40NS0yLjgsMS44OS00LjI1LDAuOTlDMC4zNyw0OC43NCwwLjE3LDQ4LjU5LDAsNDguNDF6Ii8+JiN4YTsJCQk8L2c+JiN4YTsJCQk8ZyBpZD0ic2hhcGUxNjY1LTQ3IiB0cmFuc2Zvcm09InRyYW5zbGF0ZSgyOC4zOCwtNC40MjUpIj4mI3hhOwkJCQk8dGl0bGUgaWQ9InRpdGxlMjQyNyI+cGF0aDE0NTA0PC90aXRsZT4mI3hhOwkJCQk8cGF0aCBpZD0icGF0aDI0MjkiIGlua3NjYXBlOmNvbm5lY3Rvci1jdXJ2YXR1cmU9IjAiIHN0eWxlPSJmaWxsOiNFNTNCMzk7IiBkPSJNMCw0Ny40OWMwLjI1LTAuMjMsMC41NS0wLjQsMC44OC0wLjUgICAgICBjMC42Ni0wLjA3LDEuMDEsMC40MSwxLjAzLDEuMDRjMC4wOCwwLjU4LTAuMzIsMS4xMS0wLjg5LDEuMmMtMC4wNCwwLjAxLTAuMDgsMC4wMS0wLjEzLDAuMDFDMC4zMiw0OS4zMiwwLjAyLDQ4LjgsMCw0Ny40OXoiLz4mI3hhOwkJCTwvZz4mI3hhOwkJCTxnIGlkPSJzaGFwZTE2NjYtNDkiIHRyYW5zZm9ybT0idHJhbnNsYXRlKDMzLjQ1LC0xLjUpIj4mI3hhOwkJCQk8dGl0bGUgaWQ9InRpdGxlMjQzMiI+cGF0aDE0NTA2PC90aXRsZT4mI3hhOwkJCQk8cGF0aCBpZD0icGF0aDI0MzQiIGlua3NjYXBlOmNvbm5lY3Rvci1jdXJ2YXR1cmU9IjAiIHN0eWxlPSJmaWxsOiM3RUFBQkQ7IiBkPSJNMy43NSw0OS4zMkgwYzAuMDEtMC44NiwwLjcyLTEuNTQsMS41OC0xLjUzICAgICAgYzAuMjgsMCwwLjU1LDAuMDgsMC43OCwwLjIzQzIuODQsNDguMjQsMy4zMyw0OC45NiwzLjc1LDQ5LjMyeiIvPiYjeGE7CQkJPC9nPiYjeGE7CQkJPGcgaWQ9InNoYXBlMTY2Ny01MSIgdHJhbnNmb3JtPSJ0cmFuc2xhdGUoNi4zNDUsLTIxLjUyNSkiPiYjeGE7CQkJCTx0aXRsZSBpZD0idGl0bGUyNDM3Ij5wYXRoMTQ1MDg8L3RpdGxlPiYjeGE7CQkJCTxwYXRoIGlkPSJwYXRoMjQzOSIgaW5rc2NhcGU6Y29ubmVjdG9yLWN1cnZhdHVyZT0iMCIgc3R5bGU9ImZpbGw6I0VGRERDNzsiIGQ9Ik0wLDQ5LjA5bDAuMTksMC4yM0wwLDQ5LjA5eiIvPiYjeGE7CQkJPC9nPiYjeGE7CQkJPGcgaWQ9InNoYXBlMTY2OC01MyIgdHJhbnNmb3JtPSJ0cmFuc2xhdGUoMTAuNzMyNSwtMjYuNTY1KSI+JiN4YTsJCQkJPHRpdGxlIGlkPSJ0aXRsZTI0NDIiPnBhdGgxNDUxMDwvdGl0bGU+JiN4YTsJCQkJPHBhdGggaWQ9InBhdGgyNDQ0IiBpbmtzY2FwZTpjb25uZWN0b3ItY3VydmF0dXJlPSIwIiBzdHlsZT0iZmlsbDojRUZEREM3OyIgZD0iTTAuMDcsNDkuMzJMMCw0OS4wNUwwLjA3LDQ5LjMyeiIvPiYjeGE7CQkJPC9nPiYjeGE7CQkJPGcgaWQ9InNoYXBlMTY2OS01NSIgdHJhbnNmb3JtPSJ0cmFuc2xhdGUoMjguNTYsLTIwLjA3KSI+JiN4YTsJCQkJPHRpdGxlIGlkPSJ0aXRsZTI0NDciPnBhdGgxNDUxMjwvdGl0bGU+JiN4YTsJCQkJPHBhdGggaWQ9InBhdGgyNDQ5IiBpbmtzY2FwZTpjb25uZWN0b3ItY3VydmF0dXJlPSIwIiBzdHlsZT0iZmlsbDojMkIyNzI2OyIgZD0iTTAuOSw0Ni44OWMwLjI3LDEuMTgsMC41MSwxLjUsMS41OSwxLjI3ICAgICAgYzEuNTgtMC40MSwzLjExLTAuOTUsNC41OS0xLjYzYzAuNjctMC4yOSwwLjYxLTEuMjYsMC0yLjA0Yy0wLjk1LTEuMjItMS45NS0yLjQtMi44NS0zLjY1Yy0wLjk2LTEuMjItMS40My0yLjc2LTEuMzEtNC4zMSAgICAgIGMwLjI1LDAuMjIsMC40NywwLjMxLDAuNTIsMC40NmMwLjk1LDIuNzEsMi44Nyw0Ljc0LDQuNzcsNi43NWMwLjg4LDAuODIsMC45NCwyLjIsMC4xMiwzLjA4Yy0wLjE0LDAuMTUtMC4zMSwwLjI5LTAuNDksMC40ICAgICAgYy0xLjk1LDEuMi0zLjk5LDIuMS02LjM2LDEuOTVjLTAuODQtMC4wNS0xLjA0LTAuNjMtMS4xMS0xLjIzQzAuMzEsNDcuNDcsMCw0Ni43OCwwLjg1LDQ2LjU2TDAuOSw0Ni44OXoiLz4mI3hhOwkJCTwvZz4mI3hhOwkJCTxnIGlkPSJzaGFwZTE2NzAtNTciIHRyYW5zZm9ybT0idHJhbnNsYXRlKDIzLjEwNzUsLTMwLjMyMjUpIj4mI3hhOwkJCQk8dGl0bGUgaWQ9InRpdGxlMjQ1MiI+cGF0aDE0NTE0PC90aXRsZT4mI3hhOwkJCQk8cGF0aCBpZD0icGF0aDI0NTQiIGlua3NjYXBlOmNvbm5lY3Rvci1jdXJ2YXR1cmU9IjAiIHN0eWxlPSJmaWxsOiNGNUUyQ0I7IiBkPSJNMi4wOSw0Ni41NmwwLjkzLDIuNjEgICAgICBjLTAuNjMsMC4xMi0xLjI3LDAuMTctMS45MSwwLjE1QzAuNjUsNDkuMjUsMC4yNCw0OC45OCwwLDQ4LjU3Yy0wLjEtMC40NiwwLjA0LTAuOTMsMC4zNy0xLjI3ICAgICAgQzAuOTEsNDYuOTcsMS40OSw0Ni43MywyLjA5LDQ2LjU2eiIvPiYjeGE7CQkJPC9nPiYjeGE7CQkJPGcgaWQ9InNoYXBlMTY3MS01OSIgdHJhbnNmb3JtPSJ0cmFuc2xhdGUoMTcuNjQ3NSwtMzQuNzQ3NSkiPiYjeGE7CQkJCTx0aXRsZSBpZD0idGl0bGUyNDU3Ij5wYXRoMTQ1MTY8L3RpdGxlPiYjeGE7CQkJCTxwYXRoIGlkPSJwYXRoMjQ1OSIgaW5rc2NhcGU6Y29ubmVjdG9yLWN1cnZhdHVyZT0iMCIgc3R5bGU9ImZpbGw6I0VGRERDNzsiIGQ9Ik01LjQ2LDQ1LjRjLTEuOTEtMC41My00LjU3LDEuNy00Ljg0LDMuOTIgICAgICBjLTAuNjItMC42My0wLjM4LTEuMzMtMC4xLTEuOThDMS4wNyw0Ni4wMSwyLjIsNDUsMy41OCw0NC41OWMwLjcyLTAuMzEsMS41NCwwLjAyLDEuODUsMC43NEM1LjQ0LDQ1LjM1LDUuNDUsNDUuMzgsNS40Niw0NS40eiIvPiYjeGE7CQkJPC9nPiYjeGE7CQkJPGcgaWQ9InNoYXBlMTY3Mi02MSIgdHJhbnNmb3JtPSJ0cmFuc2xhdGUoMzUuNjEsLTMwLjI3NzUpIj4mI3hhOwkJCQk8dGl0bGUgaWQ9InRpdGxlMjQ2MiI+cGF0aDE0NTE4PC90aXRsZT4mI3hhOwkJCQk8cGF0aCBpZD0icGF0aDI0NjQiIGlua3NjYXBlOmNvbm5lY3Rvci1jdXJ2YXR1cmU9IjAiIHN0eWxlPSJmaWxsOiNGNUUyQ0I7IiBkPSJNMS45OCw0Ni41MmwwLjQ2LDEuNzYgICAgICBjLTAuMDYsMC4wNy0wLjExLDAuMTctMC4xOCwwLjJjLTAuNiwwLjI0LTEuMjMsMC44NC0xLjgzLDAuMTVjLTAuNDMtMC41LDAuMTItMS41OCwwLjkzLTEuOTdDMS41Niw0Ni41OSwxLjc3LDQ2LjU0LDEuOTgsNDYuNTIgICAgICB6Ii8+JiN4YTsJCQk8L2c+JiN4YTsJCQk8ZyBpZD0ic2hhcGUxNjczLTYzIiB0cmFuc2Zvcm09InRyYW5zbGF0ZSgyMi40NzgzLC0xNy4xMTUpIj4mI3hhOwkJCQk8dGl0bGUgaWQ9InRpdGxlMjQ2NyI+cGF0aDE0NTIwPC90aXRsZT4mI3hhOwkJCQk8cGF0aCBpZD0icGF0aDI0NjkiIGlua3NjYXBlOmNvbm5lY3Rvci1jdXJ2YXR1cmU9IjAiIHN0eWxlPSJmaWxsOiNGNUUyQ0I7IiBkPSJNMC4wNSw0OS4yOWMtMC4wNy0wLjY5LTAuMDctMS40LDAtMi4wOSAgICAgIGMwLTAuMTYsMC43NS0wLjIxLDEuNC0wLjM3bC0wLjk4LDIuNDlMMC4wNSw0OS4yOXoiLz4mI3hhOwkJCTwvZz4mI3hhOwkJCTxnIGlkPSJzaGFwZTE2NzQtNjUiIHRyYW5zZm9ybT0idHJhbnNsYXRlKDI5LjM4NSwtMjIuNSkiPiYjeGE7CQkJCTx0aXRsZSBpZD0idGl0bGUyNDcyIj5wYXRoMTQ1MjI8L3RpdGxlPiYjeGE7CQkJCTxwYXRoIGlkPSJwYXRoMjQ3NCIgaW5rc2NhcGU6Y29ubmVjdG9yLWN1cnZhdHVyZT0iMCIgc3R5bGU9ImZpbGw6I0Y1RTJDQjsiIGQ9Ik0wLjA3LDQ5LjMyTDAsNDkuMDIgICAgICBjMC4wMy0wLjQsMC4xLTAuNzksMC4yMi0xLjE3YzAuMTEtMC4yNiwwLjM0LTAuNDUsMC42MS0wLjUzYzAuMjYsMC4wMywwLjQ5LDAuMiwwLjYsMC40NGMwLjA1LDAuMjktMC4wMywwLjU4LTAuMjMsMC43OSAgICAgIEMwLjg1LDQ4Ljg1LDAuNDcsNDkuMTEsMC4wNyw0OS4zMnoiLz4mI3hhOwkJCTwvZz4mI3hhOwkJPC9nPiYjeGE7CTwvZz4mI3hhOzwvZz4mI3hhOzwvc3ZnPg==;" parent="1" vertex="1">
          <mxGeometry x="389.5" y="397.5" width="43" height="48" as="geometry" />
        </mxCell>
        <mxCell id="AcxdMaKK0mU5kZiv2lnr-33" value="Terraform" style="shape=image;verticalLabelPosition=bottom;labelBackgroundColor=none;verticalAlign=top;aspect=fixed;imageAspect=0;image=data:image/svg+xml,PHN2ZyB4bWxuczpjYz0iaHR0cDovL2NyZWF0aXZlY29tbW9ucy5vcmcvbnMjIiB4bWxuczpkYz0iaHR0cDovL3B1cmwub3JnL2RjL2VsZW1lbnRzLzEuMS8iIHhtbG5zOmlua3NjYXBlPSJodHRwOi8vd3d3Lmlua3NjYXBlLm9yZy9uYW1lc3BhY2VzL2lua3NjYXBlIiB4bWxuczpyZGY9Imh0dHA6Ly93d3cudzMub3JnLzE5OTkvMDIvMjItcmRmLXN5bnRheC1ucyMiIHhtbG5zOnNvZGlwb2RpPSJodHRwOi8vc29kaXBvZGkuc291cmNlZm9yZ2UubmV0L0RURC9zb2RpcG9kaS0wLmR0ZCIgeG1sbnM6c3ZnPSJodHRwOi8vd3d3LnczLm9yZy8yMDAwL3N2ZyIgeG1sbnM9Imh0dHA6Ly93d3cudzMub3JnLzIwMDAvc3ZnIiB4bWxuczp4bGluaz0iaHR0cDovL3d3dy53My5vcmcvMTk5OS94bGluayIgdmVyc2lvbj0iMS4xIiBpZD0ic3ZnNDA4ODAiIGlua3NjYXBlOnZlcnNpb249IjAuOTIuMyAoMjQwNTU0NiwgMjAxOC0wMy0xMSkiIHNvZGlwb2RpOmRvY25hbWU9InRlcnJhZm9ybS5zdmciIHg9IjBweCIgeT0iMHB4IiB2aWV3Qm94PSIwIDAgMzkuNiA0NSIgc3R5bGU9ImVuYWJsZS1iYWNrZ3JvdW5kOm5ldyAwIDAgMzkuNiA0NTsiIHhtbDpzcGFjZT0icHJlc2VydmUiPiYjeGE7PHNvZGlwb2RpOm5hbWVkdmlldyBib3JkZXJjb2xvcj0iIzY2NjY2NiIgYm9yZGVyb3BhY2l0eT0iMSIgZml0LW1hcmdpbi1ib3R0b209IjAiIGZpdC1tYXJnaW4tbGVmdD0iMCIgZml0LW1hcmdpbi1yaWdodD0iMCIgZml0LW1hcmdpbi10b3A9IjAiIGdyaWR0b2xlcmFuY2U9IjEwIiBndWlkZXRvbGVyYW5jZT0iMTAiIGlkPSJuYW1lZHZpZXc0MDg4MiIgaW5rc2NhcGU6Y3VycmVudC1sYXllcj0ic3ZnNDA4ODAiIGlua3NjYXBlOmN4PSIyNi4zOTk5ODYiIGlua3NjYXBlOmN5PSIyOS45OTk5ODUiIGlua3NjYXBlOnBhZ2VvcGFjaXR5PSIwIiBpbmtzY2FwZTpwYWdlc2hhZG93PSIyIiBpbmtzY2FwZTp3aW5kb3ctaGVpZ2h0PSIxMDE3IiBpbmtzY2FwZTp3aW5kb3ctbWF4aW1pemVkPSIxIiBpbmtzY2FwZTp3aW5kb3ctd2lkdGg9IjE5MjAiIGlua3NjYXBlOndpbmRvdy14PSItOCIgaW5rc2NhcGU6d2luZG93LXk9Ii04IiBpbmtzY2FwZTp6b29tPSIxMy45ODM4NzgiIG9iamVjdHRvbGVyYW5jZT0iMTAiIHBhZ2Vjb2xvcj0iI2ZmZmZmZiIgc2hvd2dyaWQ9ImZhbHNlIj4mI3hhOwk8L3NvZGlwb2RpOm5hbWVkdmlldz4mI3hhOzxnIGlkPSJnNDA4NzgiIHRyYW5zZm9ybT0idHJhbnNsYXRlKC0wLjc1LC0wLjc0NzUpIj4mI3hhOwk8dGl0bGUgaWQ9InRpdGxlNDA4NDQiPlBhZ2UtMTwvdGl0bGU+JiN4YTsJPGcgaWQ9Imdyb3VwMTU3MC0xIiB0cmFuc2Zvcm09InRyYW5zbGF0ZSgwLjc1LC0wLjc1KSI+JiN4YTsJCTx0aXRsZSBpZD0idGl0bGU0MDg0NiI+VGVycmFmb3JtPC90aXRsZT4mI3hhOwkJPGcgaWQ9Imdyb3VwMTU3MS0yIj4mI3hhOwkJCTx0aXRsZSBpZD0idGl0bGU0MDg0OCI+TG9nbzwvdGl0bGU+JiN4YTsJCQk8ZyBpZD0ic2hhcGUxNTcyLTMiIHRyYW5zZm9ybT0idHJhbnNsYXRlKDEzLjY1LC0xNS43NjUpIj4mI3hhOwkJCQk8dGl0bGUgaWQ9InRpdGxlNDA4NTAiPnBvbHlnb24zNzA2PC90aXRsZT4mI3hhOwkJCQk8cGF0aCBpZD0icGF0aDQwODUyIiBpbmtzY2FwZTpjb25uZWN0b3ItY3VydmF0dXJlPSIwIiBzdHlsZT0iZmlsbDojNUM0RUU1OyIgZD0iTTEyLjMsNDYuNUwwLDM5LjRWMjUuMTlsMTIuMyw3LjExVjQ2LjV6Ii8+JiN4YTsJCQk8L2c+JiN4YTsJCQk8ZyBpZD0ic2hhcGUxNTczLTUiIHRyYW5zZm9ybT0idHJhbnNsYXRlKDI3LjMsLTE1Ljc2NSkiPiYjeGE7CQkJCTx0aXRsZSBpZD0idGl0bGU0MDg1NSI+cG9seWdvbjM3MDg8L3RpdGxlPiYjeGE7CQkJCTxwYXRoIGlkPSJwYXRoNDA4NTciIGlua3NjYXBlOmNvbm5lY3Rvci1jdXJ2YXR1cmU9IjAiIHN0eWxlPSJmaWxsOiM0MDQwQjI7IiBkPSJNMTIuMywzOS40MVYyNS4xOUwwLDMyLjN2MTQuMkwxMi4zLDM5LjQxeiIvPiYjeGE7CQkJPC9nPiYjeGE7CQkJPGcgaWQ9InNoYXBlMTU3NC03IiB0cmFuc2Zvcm09InRyYW5zbGF0ZSgwLC0yMy42OTI1KSI+JiN4YTsJCQkJPHRpdGxlIGlkPSJ0aXRsZTQwODYwIj5wb2x5Z29uMzcxMDwvdGl0bGU+JiN4YTsJCQkJPHBhdGggaWQ9InBhdGg0MDg2MiIgaW5rc2NhcGU6Y29ubmVjdG9yLWN1cnZhdHVyZT0iMCIgc3R5bGU9ImZpbGw6IzVDNEVFNTsiIGQ9Ik0xMi4zLDQ2LjVWMzIuM0wwLDI1LjE5VjM5LjRMMTIuMyw0Ni41eiIvPiYjeGE7CQkJPC9nPiYjeGE7CQkJPGcgaWQ9InNoYXBlMTU3NS05IiB0cmFuc2Zvcm09InRyYW5zbGF0ZSgxMy42NSkiPiYjeGE7CQkJCTx0aXRsZSBpZD0idGl0bGU0MDg2NSI+cG9seWdvbjM3MTI8L3RpdGxlPiYjeGE7CQkJCTxwYXRoIGlkPSJwYXRoNDA4NjciIGlua3NjYXBlOmNvbm5lY3Rvci1jdXJ2YXR1cmU9IjAiIHN0eWxlPSJmaWxsOiM1QzRFRTU7IiBkPSJNMTIuMywzMi4zOVYzMi4zTDAsMjUuMTlWMzkuNGwxMi4zLDcuMVYzMi4zOXogICAgICAiLz4mI3hhOwkJCTwvZz4mI3hhOwkJCTxnIGlkPSJzaGFwZTE1NzYtMTEiIHRyYW5zZm9ybT0idHJhbnNsYXRlKDM0LjQwMjUsLTkuMzIyNSkiPiYjeGE7CQkJCTx0aXRsZSBpZD0idGl0bGU0MDg3MCI+cGF0aDM3MTQ8L3RpdGxlPiYjeGE7CQkJPC9nPiYjeGE7CQkJPGcgaWQ9InNoYXBlMTU3Ny0xMiIgdHJhbnNmb3JtPSJ0cmFuc2xhdGUoMTMuNjUsLTIxLjMwNzUpIj4mI3hhOwkJCQk8dGl0bGUgaWQ9InRpdGxlNDA4NzMiPnBhdGgzNzE2PC90aXRsZT4mI3hhOwkJCTwvZz4mI3hhOwkJPC9nPiYjeGE7CTwvZz4mI3hhOzwvZz4mI3hhOzwvc3ZnPg==;" parent="1" vertex="1">
          <mxGeometry x="357.5" y="568.5" width="40" height="45" as="geometry" />
        </mxCell>
        <mxCell id="ul5Ljdfapj6bAUza6q9H-10" style="edgeStyle=orthogonalEdgeStyle;rounded=0;orthogonalLoop=1;jettySize=auto;html=1;exitX=1;exitY=0;exitDx=0;exitDy=0;" edge="1" parent="1" source="AcxdMaKK0mU5kZiv2lnr-37">
          <mxGeometry relative="1" as="geometry">
            <mxPoint x="168.66666666666652" y="759.8571428571429" as="targetPoint" />
          </mxGeometry>
        </mxCell>
        <mxCell id="AcxdMaKK0mU5kZiv2lnr-37" value="Visual Studio&#xa;Code" style="shape=image;verticalLabelPosition=bottom;labelBackgroundColor=none;verticalAlign=top;aspect=fixed;imageAspect=0;image=data:image/svg+xml,PHN2ZyB4bWxuczpkYz0iaHR0cDovL3B1cmwub3JnL2RjL2VsZW1lbnRzLzEuMS8iIHhtbG5zOmNjPSJodHRwOi8vY3JlYXRpdmVjb21tb25zLm9yZy9ucyMiIHhtbG5zOnJkZj0iaHR0cDovL3d3dy53My5vcmcvMTk5OS8wMi8yMi1yZGYtc3ludGF4LW5zIyIgeG1sbnM6c3ZnPSJodHRwOi8vd3d3LnczLm9yZy8yMDAwL3N2ZyIgeG1sbnM9Imh0dHA6Ly93d3cudzMub3JnLzIwMDAvc3ZnIiB4bWxuczp4bGluaz0iaHR0cDovL3d3dy53My5vcmcvMTk5OS94bGluayIgeG1sbnM6c29kaXBvZGk9Imh0dHA6Ly9zb2RpcG9kaS5zb3VyY2Vmb3JnZS5uZXQvRFREL3NvZGlwb2RpLTAuZHRkIiB4bWxuczppbmtzY2FwZT0iaHR0cDovL3d3dy5pbmtzY2FwZS5vcmcvbmFtZXNwYWNlcy9pbmtzY2FwZSIgdmVyc2lvbj0iMS4xIiBpZD0iTGF5ZXJfMSIgeD0iMHB4IiB5PSIwcHgiIHZpZXdCb3g9IjAgMCA1MC44NDk5OTggNTEuMDkiIHhtbDpzcGFjZT0icHJlc2VydmUiIHNvZGlwb2RpOmRvY25hbWU9InZpc3VhbF9zdHVkaW9fY29kZS5zdmciIHdpZHRoPSI1MC44NDk5OTgiIGhlaWdodD0iNTEuMDkiIGlua3NjYXBlOnZlcnNpb249IjAuOTIuMyAoMjQwNTU0NiwgMjAxOC0wMy0xMSkiPjxtZXRhZGF0YSBpZD0ibWV0YWRhdGE0MzE4OSI+PHJkZjpSREY+PGNjOldvcmsgcmRmOmFib3V0PSIiPjxkYzpmb3JtYXQ+aW1hZ2Uvc3ZnK3htbDwvZGM6Zm9ybWF0PjxkYzp0eXBlIHJkZjpyZXNvdXJjZT0iaHR0cDovL3B1cmwub3JnL2RjL2RjbWl0eXBlL1N0aWxsSW1hZ2UiLz48ZGM6dGl0bGUvPjwvY2M6V29yaz48L3JkZjpSREY+PC9tZXRhZGF0YT48ZGVmcyBpZD0iZGVmczQzMTg3Ii8+PHNvZGlwb2RpOm5hbWVkdmlldyBwYWdlY29sb3I9IiNmZmZmZmYiIGJvcmRlcmNvbG9yPSIjNjY2NjY2IiBib3JkZXJvcGFjaXR5PSIxIiBvYmplY3R0b2xlcmFuY2U9IjEwIiBncmlkdG9sZXJhbmNlPSIxMCIgZ3VpZGV0b2xlcmFuY2U9IjEwIiBpbmtzY2FwZTpwYWdlb3BhY2l0eT0iMCIgaW5rc2NhcGU6cGFnZXNoYWRvdz0iMiIgaW5rc2NhcGU6d2luZG93LXdpZHRoPSIxOTIwIiBpbmtzY2FwZTp3aW5kb3ctaGVpZ2h0PSIxMDE3IiBpZD0ibmFtZWR2aWV3NDMxODUiIHNob3dncmlkPSJmYWxzZSIgZml0LW1hcmdpbi10b3A9IjAiIGZpdC1tYXJnaW4tbGVmdD0iMCIgZml0LW1hcmdpbi1yaWdodD0iMCIgZml0LW1hcmdpbi1ib3R0b209IjAiIGlua3NjYXBlOnpvb209IjEuMDMwMzAzIiBpbmtzY2FwZTpjeD0iLTYuNTU1IiBpbmtzY2FwZTpjeT0iLTI5Ni4wNyIgaW5rc2NhcGU6d2luZG93LXg9Ii04IiBpbmtzY2FwZTp3aW5kb3cteT0iLTgiIGlua3NjYXBlOndpbmRvdy1tYXhpbWl6ZWQ9IjEiIGlua3NjYXBlOmN1cnJlbnQtbGF5ZXI9IkxheWVyXzEiLz4mI3hhOyYjeGE7PGcgaWQ9Imc0MzE4MiIgdHJhbnNmb3JtPSJ0cmFuc2xhdGUoLTMwMy45MywtNzMuNTkpIj4mI3hhOwk8ZGVmcyBpZD0iZGVmczQzMTY3Ij4mI3hhOwkJPHJlY3QgaWQ9IlNWR0lEXzNfIiB4PSIzMDMuOTI5OTkiIHk9IjczLjU4OTk5NiIgd2lkdGg9IjUxLjI1IiBoZWlnaHQ9IjUxLjI1Ii8+JiN4YTsJPC9kZWZzPiYjeGE7CTxjbGlwUGF0aCBpZD0iU1ZHSURfNF8iPiYjeGE7CQk8dXNlIHhsaW5rOmhyZWY9IiNTVkdJRF8zXyIgc3R5bGU9Im92ZXJmbG93OnZpc2libGUiIGlkPSJ1c2U0MzE2OSIgeD0iMCIgeT0iMCIgd2lkdGg9IjEwMCUiIGhlaWdodD0iMTAwJSIvPiYjeGE7CTwvY2xpcFBhdGg+JiN4YTsJPGcgY2xpcC1wYXRoPSJ1cmwoI1NWR0lEXzRfKSIgaWQ9Imc0MzE4MCI+JiN4YTsJCTxkZWZzIGlkPSJkZWZzNDMxNzMiPiYjeGE7CQkJPHJlY3QgaWQ9IlNWR0lEXzVfIiB4PSIzMDMuOTI5OTkiIHk9IjczLjU4OTk5NiIgd2lkdGg9IjUxLjI1IiBoZWlnaHQ9IjUxLjI1Ii8+JiN4YTsJCTwvZGVmcz4mI3hhOwkJPGNsaXBQYXRoIGlkPSJTVkdJRF82XyI+JiN4YTsJCQk8dXNlIHhsaW5rOmhyZWY9IiNTVkdJRF81XyIgc3R5bGU9Im92ZXJmbG93OnZpc2libGUiIGlkPSJ1c2U0MzE3NSIgeD0iMCIgeT0iMCIgd2lkdGg9IjEwMCUiIGhlaWdodD0iMTAwJSIvPiYjeGE7CQk8L2NsaXBQYXRoPiYjeGE7CQk8cGF0aCBzdHlsZT0iZmlsbDojMDE3OWNiIiBkPSJtIDMwOS44NywxMDUuMDIgNi4yMywtNS42NiAtNi4yMywtNi4yMyBWIDEwNSBaIG0gMzEuNTEsMy4zIFYgODkuOTUgbCAtMTEuODksOS4xOSAxMS44Nyw5LjE3IGggMC4wMiB6IG0gLTE5LjM1LC0zLjQ0IC0xMi42LDkuNzggLTUuNSwtMi43IFYgODYuMzUgbCA1LjQ4LC0yLjc2IDEyLjUyLDkuODQgMTkuODIsLTE5Ljg0IDEzLjAzLDUuMjMgdiA0MC41OSBsIC0xMi45OCw1LjI3IHoiIGNsaXAtcGF0aD0idXJsKCNTVkdJRF82XykiIGlkPSJwYXRoNDMxNzgiIGlua3NjYXBlOmNvbm5lY3Rvci1jdXJ2YXR1cmU9IjAiLz4mI3hhOwk8L2c+JiN4YTs8L2c+JiN4YTs8L3N2Zz4=;" parent="1" vertex="1">
          <mxGeometry x="119" y="760" width="50" height="50" as="geometry" />
        </mxCell>
        <mxCell id="AcxdMaKK0mU5kZiv2lnr-38" value="Engineer" style="shape=image;verticalLabelPosition=bottom;labelBackgroundColor=none;verticalAlign=top;aspect=fixed;imageAspect=0;image=data:image/svg+xml,PHN2ZyB4bWxuczpjYz0iaHR0cDovL2NyZWF0aXZlY29tbW9ucy5vcmcvbnMjIiB4bWxuczpkYz0iaHR0cDovL3B1cmwub3JnL2RjL2VsZW1lbnRzLzEuMS8iIHhtbG5zOmlua3NjYXBlPSJodHRwOi8vd3d3Lmlua3NjYXBlLm9yZy9uYW1lc3BhY2VzL2lua3NjYXBlIiB4bWxuczpyZGY9Imh0dHA6Ly93d3cudzMub3JnLzE5OTkvMDIvMjItcmRmLXN5bnRheC1ucyMiIHhtbG5zOnNvZGlwb2RpPSJodHRwOi8vc29kaXBvZGkuc291cmNlZm9yZ2UubmV0L0RURC9zb2RpcG9kaS0wLmR0ZCIgeG1sbnM6c3ZnPSJodHRwOi8vd3d3LnczLm9yZy8yMDAwL3N2ZyIgeG1sbnM9Imh0dHA6Ly93d3cudzMub3JnLzIwMDAvc3ZnIiB4bWxuczp4bGluaz0iaHR0cDovL3d3dy53My5vcmcvMTk5OS94bGluayIgdmVyc2lvbj0iMS4xIiBpZD0ic3ZnMzExODM2IiBpbmtzY2FwZTp2ZXJzaW9uPSIwLjkyLjMgKDI0MDU1NDYsIDIwMTgtMDMtMTEpIiBzb2RpcG9kaTpkb2NuYW1lPSJkZXZlbG9wZXJfNS5zdmciIHg9IjBweCIgeT0iMHB4IiB2aWV3Qm94PSIwIDAgMTkuMjkgNDguMDciIHN0eWxlPSJlbmFibGUtYmFja2dyb3VuZDpuZXcgMCAwIDE5LjI5IDQ4LjA3OyIgeG1sOnNwYWNlPSJwcmVzZXJ2ZSI+JiN4YTs8c29kaXBvZGk6bmFtZWR2aWV3IGJvcmRlcmNvbG9yPSIjNjY2NjY2IiBib3JkZXJvcGFjaXR5PSIxIiBmaXQtbWFyZ2luLWJvdHRvbT0iMCIgZml0LW1hcmdpbi1sZWZ0PSIwIiBmaXQtbWFyZ2luLXJpZ2h0PSIwIiBmaXQtbWFyZ2luLXRvcD0iMCIgZ3JpZHRvbGVyYW5jZT0iMTAiIGd1aWRldG9sZXJhbmNlPSIxMCIgaWQ9Im5hbWVkdmlldzMxMTgzOCIgaW5rc2NhcGU6Y3VycmVudC1sYXllcj0ic3ZnMzExODM2IiBpbmtzY2FwZTpjeD0iMTIuODYzMjIyIiBpbmtzY2FwZTpjeT0iMzIuMDQ4MDkyIiBpbmtzY2FwZTpwYWdlb3BhY2l0eT0iMCIgaW5rc2NhcGU6cGFnZXNoYWRvdz0iMiIgaW5rc2NhcGU6d2luZG93LWhlaWdodD0iMTAxNyIgaW5rc2NhcGU6d2luZG93LW1heGltaXplZD0iMSIgaW5rc2NhcGU6d2luZG93LXdpZHRoPSIxOTIwIiBpbmtzY2FwZTp3aW5kb3cteD0iLTgiIGlua3NjYXBlOndpbmRvdy15PSItOCIgaW5rc2NhcGU6em9vbT0iMTMuNTI3NzczIiBvYmplY3R0b2xlcmFuY2U9IjEwIiBwYWdlY29sb3I9IiNmZmZmZmYiIHNob3dncmlkPSJmYWxzZSI+JiN4YTsJPC9zb2RpcG9kaTpuYW1lZHZpZXc+JiN4YTs8ZyBpZD0iZzMxMTgzNCIgdHJhbnNmb3JtPSJ0cmFuc2xhdGUoLTAuMDAxNzcxNzcsMC4wMDM0KSI+JiN4YTsJPHRpdGxlIGlkPSJ0aXRsZTMxMTYyOSI+UGFnZS0xPC90aXRsZT4mI3hhOwk8ZyBpZD0iZ3JvdXA3MDY1LTEiPiYjeGE7CQk8dGl0bGUgaWQ9InRpdGxlMzExNjMxIj5EZXZlbG9wZXIgIzU8L3RpdGxlPiYjeGE7CQk8ZyBpZD0ic2hhcGU3MDY2LTIiIHRyYW5zZm9ybT0idHJhbnNsYXRlKDExLjQ3MzcsLTEuMzYyMjQpIj4mI3hhOwkJCTx0aXRsZSBpZD0idGl0bGUzMTE2MzMiPlNoZWV0LjcwNjY8L3RpdGxlPiYjeGE7CQkJPHBhdGggaWQ9InBhdGgzMTE2MzUiIGlua3NjYXBlOmNvbm5lY3Rvci1jdXJ2YXR1cmU9IjAiIGQ9Ik0wLDQ3Ljk3bDIuMzEsMC4xbDAuMDItMi45MmgtMi4xTDAsNDcuOTd6Ii8+JiN4YTsJCTwvZz4mI3hhOwkJPGcgaWQ9InNoYXBlNzA2Ny00IiB0cmFuc2Zvcm09InRyYW5zbGF0ZSgxMC44OTA0KSI+JiN4YTsJCQk8dGl0bGUgaWQ9InRpdGxlMzExNjM4Ij5TaGVldC43MDY3PC90aXRsZT4mI3hhOwkJCTxwYXRoIGlkPSJwYXRoMzExNjQwIiBpbmtzY2FwZTpjb25uZWN0b3ItY3VydmF0dXJlPSIwIiBzdHlsZT0iZmlsbDojNUMyRDkxOyIgZD0iTTAsNDcuODZjMi4xNiwwLjExLDIuMTYsMC4xMSwyLjE2LDAuMTEgICAgIGMwLjEyLTAuMzMsMC4xMi0wLjMzLDAuMTItMC4zM2MwLjcxLDAuMTEsMi4xNiwwLjMzLDIuOTgsMC40M2MwLjU2LDAsMS4zNCwwLDEuNzktMC4yMWMwLDAsMC4xNC0wLjExLDAuMTQtMC4yMiAgICAgYzAtMC44Ni0zLjQyLTEuMzItNC4zMS0yLjNjLTAuMTIsMC0wLjEyLDAtMC4xMiwwQzIuNSw0NS41NiwyLjI4LDQ2LDEuNzMsNDZjLTAuNTYsMC0xLjAxLTAuNTUtMS4yNC0wLjY2ICAgICBDMC4xMiw0NS41NiwwLDQ3Ljc1LDAsNDcuODZ6Ii8+JiN4YTsJCTwvZz4mI3hhOwkJPGcgaWQ9InNoYXBlNzA2OC02IiB0cmFuc2Zvcm09InRyYW5zbGF0ZSgzLjExMjg1LC0wLjM4OTIxMykiPiYjeGE7CQkJPHRpdGxlIGlkPSJ0aXRsZTMxMTY0MyI+U2hlZXQuNzA2ODwvdGl0bGU+JiN4YTsJCQk8cGF0aCBpZD0icGF0aDMxMTY0NSIgaW5rc2NhcGU6Y29ubmVjdG9yLWN1cnZhdHVyZT0iMCIgc3R5bGU9ImZpbGw6IzVDMkQ5MTsiIGQ9Ik0xLjE1LDQ1LjM0YzAsMC40OCwwLDAuNDgsMCwwLjQ4ICAgICBDMCw0Ny4zNSwwLDQ3LjM1LDAsNDcuMzVjMCwwLjUxLDAsMC41MSwwLDAuNTFjMCwwLjExLDAuMTEsMC4yMSwwLjIyLDAuMjFjMi40NywwLDIuNDcsMCwyLjQ3LDBjMC4yNSwwLDAuNDItMC4yMSwwLjQyLTAuNDMgICAgIGMwLTEuNDksMC0xLjQ5LDAtMS40OWMwLTAuNDgsMC0wLjQ4LDAtMC40OGMwLTAuMzMsMC0wLjMzLDAtMC4zM0wxLjE1LDQ1LjM0eiIvPiYjeGE7CQk8L2c+JiN4YTsJCTxnIGlkPSJzaGFwZTcwNjktOCIgdHJhbnNmb3JtPSJ0cmFuc2xhdGUoNC4yNzk0OCwtMy4xMTM3KSI+JiN4YTsJCQk8dGl0bGUgaWQ9InRpdGxlMzExNjQ4Ij5TaGVldC43MDY5PC90aXRsZT4mI3hhOwkJCTxwYXRoIGlkPSJwYXRoMzExNjUwIiBpbmtzY2FwZTpjb25uZWN0b3ItY3VydmF0dXJlPSIwIiBzdHlsZT0iZmlsbDojMDA3OEQ3OyIgZD0iTTcuMyw0OC4wN2MtMC4xOC0xLjE3LDAuMjMtNi45NC0wLjAzLTExLjA4ICAgICBjLTAuMjYtNC4wNC0xLjI1LTUuNjktMS4yNS01LjY5cy0wLjMzLTAuMjItMC40MSwwLjFjLTAuMDMsMC4xNS0xLjg4LDUuMy0xLjg4LDUuM3MtMS4yMSw5LjM1LTEuNywxMS4zN2MtMi4wMywwLTIuMDMsMC0yLjAzLDAgICAgIGMwLjUyLTEyLjAxLDAuNTItMTIuMDEsMC41Mi0xMi4wMWMwLjg5LTguNjIsMC44OS04LjYyLDAuODktOC42MmM4LjM3LTMuMzEsOC4zNy0zLjMxLDguMzctMy4zMWMtMC4yMywxLjE4LDAuOTEsNy4yLDAuODgsMTIuNzUgICAgIGMtMC4wOCw0LjY5LTEuMTQsMTAuMzEtMS4xMSwxMS4xOUw3LjMsNDguMDd6Ii8+JiN4YTsJCTwvZz4mI3hhOwkJPGcgaWQ9InNoYXBlNzA3MC0xMCIgdHJhbnNmb3JtPSJ0cmFuc2xhdGUoMy44OTA2LC0yLjkxOTA5KSI+JiN4YTsJCQk8dGl0bGUgaWQ9InRpdGxlMzExNjUzIj5TaGVldC43MDcwPC90aXRsZT4mI3hhOwkJCTxwYXRoIGlkPSJwYXRoMzExNjU1IiBpbmtzY2FwZTpjb25uZWN0b3ItY3VydmF0dXJlPSIwIiBzdHlsZT0iZmlsbDojMDA3OEQ3OyIgZD0iTTIuNjEsNDguMDdjLTIuNjEsMC0yLjYxLDAtMi42MSwwICAgICBjMC41Ni0xMi4zNCwwLjU2LTEyLjM0LDAuNTYtMTIuMzRjMC44Ny04Ljc5LDAuODctOC43OSwwLjg3LTguNzljOS4wNS0zLjU5LDkuMDUtMy41OSw5LjA1LTMuNTljLTAuMTEsMC41Ni0wLjExLDAuNTYtMC4xMSwwLjU2ICAgICBjLTAuMDgsMC40OCwwLjA3LDEuOTQsMC4yNSwzLjYzYzAuMjksMi40NCwwLjY2LDUuODEsMC42Miw5LjAzYy0wLjA0LDMuMDgtMC41MSw2LjU2LTAuODQsOC44M2MtMC4xNCwxLjE3LTAuMjUsMi4wNS0wLjI1LDIuMzQgICAgIGMwLjAzLDAuMzMsMC4wMywwLjMzLDAuMDMsMC4zM2MtMi44MywwLTIuODMsMC0yLjgzLDBjLTAuMDctMC4yNi0wLjA3LTAuMjYtMC4wNy0wLjI2Yy0wLjA3LTAuNTQtMC4wNC0xLjkzLDAtMy43ICAgICBjMC4wNy0yLjI2LDAuMTEtNS4wOC0wLjA0LTcuNDNjLTAuMTgtMy4xOC0wLjg1LTQuODMtMS4wNy01LjM0Yy0wLjI5LDAuODEtMS41NCw0LjI5LTEuODMsNS4xMmMtMC4wNywwLjctMS4yMiw5LjM4LTEuNjksMTEuMzUgICAgIEwyLjYxLDQ4LjA3eiBNMC42Nyw0Ny40NWMxLjQzLDAsMS40MywwLDEuNDMsMGMwLjUxLTIuNDEsMS42Mi0xMS4wMiwxLjY2LTExLjFjMC0wLjA3LDAtMC4wNywwLTAuMDdjMC43Mi0yLDEuODMtNS4xMiwxLjg3LTUuMjYgICAgIGMwLjA3LTAuMjIsMC4yMi0wLjMsMC4yOS0wLjMzYzAuMjktMC4xMSwwLjU1LDAuMDMsMC41OSwwLjA3YzAuMDgsMC4wNCwwLjA4LDAuMDQsMC4wOCwwLjA0YzAuMDMsMC4wNywwLjAzLDAuMDcsMC4wMywwLjA3ICAgICBjMC4wNCwwLjA3LDAuOTksMS43NSwxLjI0LDUuNzhjMC4xNSwyLjM4LDAuMDgsNS4yLDAuMDQsNy40NmMtMC4wNCwxLjQ0LTAuMDcsMi43Mi0wLjA0LDMuMzRjMS42OSwwLDEuNjksMCwxLjY5LDAgICAgIGMwLTAuNDQsMC4xMS0xLjEzLDAuMjctMi4xMmMwLjI5LTIuMjcsMC43Ni01LjcyLDAuOC04Ljc2YzAuMDQtMy4xOC0wLjMzLTYuNTItMC41OC04Ljk2Yy0wLjE4LTEuNTEtMC4yOS0yLjYtMC4yOS0zLjMgICAgIGMtNy43MiwzLjA4LTcuNzIsMy4wOC03LjcyLDMuMDhjLTAuODUsOC4zOC0wLjg1LDguMzgtMC44NSw4LjM4TDAuNjcsNDcuNDV6Ii8+JiN4YTsJCTwvZz4mI3hhOwkJPGcgaWQ9InNoYXBlNzA3MS0xMiIgdHJhbnNmb3JtPSJ0cmFuc2xhdGUoNC44NjI3OSwtMjMuNzQyKSI+JiN4YTsJCQk8dGl0bGUgaWQ9InRpdGxlMzExNjU4Ij5TaGVldC43MDcxPC90aXRsZT4mI3hhOwkJCTxwYXRoIGlkPSJwYXRoMzExNjYwIiBpbmtzY2FwZTpjb25uZWN0b3ItY3VydmF0dXJlPSIwIiBzdHlsZT0iZmlsbDojRTZFN0U4OyIgZD0iTTcuNTgsNDguMDdIMC4zNmwtMC4xMy04Ljg4TDAsMzQuNTRsNi44OS0wLjQ4ICAgICBMNy41OCw0OC4wN3oiLz4mI3hhOwkJPC9nPiYjeGE7CQk8ZyBpZD0ic2hhcGU3MDcyLTE0IiB0cmFuc2Zvcm09InRyYW5zbGF0ZSg0Ljg2Mjc5LC0zNS44MDc2KSI+JiN4YTsJCQk8dGl0bGUgaWQ9InRpdGxlMzExNjYzIj5TaGVldC43MDcyPC90aXRsZT4mI3hhOwkJCTxwYXRoIGlkPSJwYXRoMzExNjY1IiBpbmtzY2FwZTpjb25uZWN0b3ItY3VydmF0dXJlPSIwIiBzdHlsZT0iZmlsbDojRTZFN0U4OyIgZD0iTTAuNjYsNDguMDdMMCw0NS4ybDQuNjQtMS4wMmwwLjYxLDIuODQgICAgIEwwLjY2LDQ4LjA3eiIvPiYjeGE7CQk8L2c+JiN4YTsJCTxnIGlkPSJzaGFwZTcwNzMtMTYiIHRyYW5zZm9ybT0idHJhbnNsYXRlKDkuOTE4MTgsLTIzLjc0MikiPiYjeGE7CQkJPHRpdGxlIGlkPSJ0aXRsZTMxMTY2OCI+U2hlZXQuNzA3MzwvdGl0bGU+JiN4YTsJCQk8cGF0aCBpZD0icGF0aDMxMTY3MCIgaW5rc2NhcGU6Y29ubmVjdG9yLWN1cnZhdHVyZT0iMCIgc3R5bGU9ImZpbGw6I0U2RTdFODsiIGQ9Ik0wLDQ4LjA3aDQuNjdsMC4xNy04Ljg0bDAuMjItNC42M0wwLDM0LjI1ICAgICBWNDguMDd6Ii8+JiN4YTsJCTwvZz4mI3hhOwkJPGcgaWQ9InNoYXBlNzA3NC0xOCIgdHJhbnNmb3JtPSJ0cmFuc2xhdGUoOS41MjkzMSwtMzUuODA3NikiPiYjeGE7CQkJPHRpdGxlIGlkPSJ0aXRsZTMxMTY3MyI+U2hlZXQuNzA3NDwvdGl0bGU+JiN4YTsJCQk8cGF0aCBpZD0icGF0aDMxMTY3NSIgaW5rc2NhcGU6Y29ubmVjdG9yLWN1cnZhdHVyZT0iMCIgc3R5bGU9ImZpbGw6I0U2RTdFODsiIGQ9Ik01LjA2LDQ4LjA3bC01LjA2LTFsMC42LTIuODlsNS4wNCwxLjA0ICAgICBMNS4wNiw0OC4wN3oiLz4mI3hhOwkJPC9nPiYjeGE7CQk8ZyBpZD0ic2hhcGU3MDc1LTIwIiB0cmFuc2Zvcm09InRyYW5zbGF0ZSg3LjE5NjA1LC0zMi4zMDQ2KSI+JiN4YTsJCQk8dGl0bGUgaWQ9InRpdGxlMzExNjc4Ij5TaGVldC43MDc1PC90aXRsZT4mI3hhOwkJCTxwYXRoIGlkPSJwYXRoMzExNjgwIiBpbmtzY2FwZTpjb25uZWN0b3ItY3VydmF0dXJlPSIwIiBzdHlsZT0iZmlsbDojMDBCMjk0OyIgZD0iTTQuNDEsNDYuMDJjLTAuMTgsMC0wLjM2LDAuMDQtMC41MiwwLjE1ICAgICBjMC0wLjExLTAuMDQtMC4xOC0wLjA3LTAuMjZjLTAuMDgtMC4xOC0wLjA4LTAuMTgtMC4wOC0wLjE4Yy0wLjAzLTAuMTgtMC4xMS0wLjMzLTAuMTEtMC40YzAuMDgtMC4xNCwwLjA4LTAuMTQsMC4wOC0wLjE0ICAgICBjMC0wLjA0LDAtMC4wNC0wLjA0LTAuMDhjLTAuMTEtMC4xMi0wLjExLTAuMTItMC4xMS0wLjEyYzAtMC4wNC0wLjA0LTAuMDQtMC4wNC0wLjA0Yy0wLjQxLDAtMC40MSwwLTAuNDEsMCAgICAgYy0wLjA0LDAtMC4wNywwLjA0LTAuMDcsMC4wOGMwLDAuMDUsMC4wMywwLjA4LDAuMDcsMC4wOGMwLjM4LDAsMC4zOCwwLDAuMzgsMGMwLjA3LDAuMDgsMC4wNywwLjA4LDAuMDcsMC4wOCAgICAgYy0wLjA3LDAuMTQtMC4wNywwLjE0LTAuMDcsMC4xNHMwLDAsMCwwLjA0YzAuMDMsMCwwLjA3LDAuMTQsMC4xNCwwLjMzYy0xLjUyLDAtMS41MiwwLTEuNTIsMGMtMC4wMy0wLjExLTAuMDMtMC4xMS0wLjAzLTAuMTEgICAgIGMwLjE0LTAuMDQsMC4zNC0wLjExLDAuNDEtMC4yMmMtMC45MywwLTAuOTMsMC0wLjkzLDBjMCwwLjE0LDAuMTUsMC4yNSwwLjM0LDAuMjVjMC4wMywwLDAuMDMsMCwwLjA3LDBsMCwwICAgICBjMC4wNCwwLjE1LDAuMDQsMC4xNSwwLjA0LDAuMTVjLTAuMzcsMC40NC0wLjM3LDAuNDQtMC4zNywwLjQ0Yy0wLjE5LTAuMTEtMC4zOC0wLjE5LTAuNTktMC4xOUMwLjQ5LDQ2LjAyLDAsNDYuNDYsMCw0Ny4wNSAgICAgYzAsMC41NCwwLjQ5LDEuMDIsMS4wNSwxLjAyYzAuNDcsMCwwLjg4LTAuMzMsMC45OS0wLjc3YzAuMjIsMC4wNCwwLjIyLDAuMDQsMC4yMiwwLjA0YzAsMC4wNywwLjA3LDAuMTgsMC4xNiwwLjIyICAgICBjLTAuMDQsMC4yMi0wLjA0LDAuMjItMC4wNCwwLjIyYy0wLjEyLDAtMC4xMiwwLTAuMTIsMGMtMC4wNCwwLTAuMDcsMC0wLjA3LDAuMDNjMCwwLjA0LDAuMDMsMC4wOCwwLjA3LDAuMDhjMC4zLDAsMC4zLDAsMC4zLDAgICAgIGMwLjA0LDAsMC4wNC0wLjA0LDAuMDQtMC4wOGMwLTAuMDMsMC0wLjAzLTAuMDQtMC4wM2MtMC4wNywwLTAuMDcsMC0wLjA3LDBjMC4wNC0wLjIyLDAuMDQtMC4yMiwwLjA0LTAuMjIgICAgIGMwLjE0LDAsMC4yNS0wLjExLDAuMjUtMC4yNmMwLTAuMDMtMC4wMy0wLjA3LTAuMDctMC4xMWMxLjAzLTEuMTMsMS4wMy0xLjEzLDEuMDMtMS4xM2MwLjA0LDAuMDQsMC4wNCwwLjExLDAuMDgsMC4xNSAgICAgYy0wLjI2LDAuMjItMC40NCwwLjQ3LTAuNDQsMC44NGMwLDAuNTQsMC40NCwxLjAyLDEuMDMsMS4wMmMwLjYsMCwxLjAzLTAuNDgsMS4wMy0xLjAyQzUuNDQsNDYuNDYsNS4wMSw0Ni4wMiw0LjQxLDQ2LjAyeiAgICAgIE0xLjA1LDQ3LjkyYy0wLjQ5LDAtMC44OS0wLjQtMC44OS0wLjg3YzAtMC40OCwwLjQtMC44OCwwLjg5LTAuODhjMC4xOCwwLDAuMzIsMC4wNywwLjQ3LDAuMTVjLTAuNDcsMC42Mi0wLjQ3LDAuNjItMC40NywwLjYyICAgICBsMCwwYy0wLjA0LDAtMC4xMSwwLjAzLTAuMTEsMC4xMWgwLjAzYy0wLjAzLDAuMDMtMC4wMywwLjAzLTAuMDMsMC4wM2MwLjA3LDAsMC4wNywwLDAuMDcsMGMwLDAuMDQsMCwwLjA4LDAuMDQsMC4wOCAgICAgYzAuMDMsMCwwLjAzLTAuMDQsMC4wMy0wLjA0YzAuODIsMC4xNSwwLjgyLDAuMTUsMC44MiwwLjE1QzEuNzksNDcuNjMsMS40NSw0Ny45MiwxLjA1LDQ3LjkyeiBNMS45Myw0Ny4wNWMwLDAuMDMsMCwwLjA3LDAsMC4xMSAgICAgYy0wLjc4LTAuMTUtMC43OC0wLjE1LTAuNzgtMC4xNWMwLjQ5LTAuNjIsMC40OS0wLjYyLDAuNDktMC42MkMxLjgyLDQ2LjU3LDEuOTMsNDYuNzksMS45Myw0Ny4wNXogTTEuNzUsNDYuMjggICAgIGMwLjI5LTAuNCwwLjI5LTAuNCwwLjI5LTAuNGMwLjM4LDEuMjQsMC4zOCwxLjI0LDAuMzgsMS4yNGMtMC4wOSwwLjA0LTAuMDksMC4wNC0wLjEyLDAuMTFjLTAuMjItMC4wNy0wLjIyLTAuMDctMC4yMi0wLjA3ICAgICBjMC0wLjA0LDAtMC4wOCwwLTAuMTFDMi4wOCw0Ni43MiwxLjk3LDQ2LjQ2LDEuNzUsNDYuMjh6IE0yLjY3LDQ3LjA1YzAuMDgtMC4yMiwwLjA4LTAuMjIsMC4wOC0wLjIyYzAuMDcsMCwwLjA3LDAsMC4wNywwICAgICBjMC4wNCwwLDAuMDctMC4wNCwwLjA3LTAuMDRjMC0wLjA0LTAuMDMtMC4wNy0wLjA3LTAuMDdjLTAuMjYsMC0wLjI2LDAtMC4yNiwwYy0wLjAzLDAtMC4wNywwLjAzLTAuMDcsMC4wNyAgICAgYzAsMCwwLjA0LDAuMDQsMC4wNywwLjA0YzAuMDQsMCwwLjA0LDAsMC4wNCwwYy0wLjA0LDAuMjUtMC4wNCwwLjI1LTAuMDQsMC4yNWMtMC4wMywwLTAuMDMsMC0wLjAzLDBsMCwwICAgICBjLTAuMzgtMS4yNy0wLjM4LTEuMjctMC4zOC0xLjI3YzEuNTIsMCwxLjUyLDAsMS41MiwwYzAsMC4wMywwLDAuMDcsMC4wNCwwLjFMMi42Nyw0Ny4wNXogTTQuNDEsNDcuOTIgICAgIGMtMC40NywwLTAuODktMC40LTAuODktMC44N2MwLTAuMywwLjE1LTAuNTEsMC4zMy0wLjY2YzAuMDQsMC4wNywwLjA5LDAuMTUsMC4wOSwwLjIyYzAuMTEsMC4xOCwwLjI5LDAuMzMsMC4zNiwwLjQ0bDAsMCAgICAgYzAsMC4wMywwLjA0LDAuMTEsMC4xMSwwLjExczAuMTEtMC4wOCwwLjExLTAuMTFjMC0wLjA4LTAuMDQtMC4xMS0wLjExLTAuMTFsMCwwYy0wLjExLTAuMDgtMC4yOS0wLjIyLTAuMzYtMC40ICAgICBjMC0wLjA0LTAuMDQtMC4xMS0wLjA4LTAuMjJjMC4xMS0wLjA4LDAuMjYtMC4xNSwwLjQ0LTAuMTVjMC40OSwwLDAuODksMC40LDAuODksMC44OEM1LjMsNDcuNTIsNC45LDQ3LjkyLDQuNDEsNDcuOTJ6Ii8+JiN4YTsJCTwvZz4mI3hhOwkJPGcgaWQ9InNoYXBlNzA3Ni0yMiIgdHJhbnNmb3JtPSJ0cmFuc2xhdGUoOS45MTgxOCwtMzguMzM3NCkiPiYjeGE7CQkJPHRpdGxlIGlkPSJ0aXRsZTMxMTY4MyI+U2hlZXQuNzA3NjwvdGl0bGU+JiN4YTsJCQk8cGF0aCBpZD0icGF0aDMxMTY4NSIgaW5rc2NhcGU6Y29ubmVjdG9yLWN1cnZhdHVyZT0iMCIgc3R5bGU9ImZpbGw6I0YyN0FCNDsiIGQ9Ik0wLjE5LDQ3Ljg3YzAsMC4xNC0wLjA5LDAuMi0wLjE0LDAuMiAgICAgYzAsMCwwLDAtMC4wNS0wLjA2QzAuMTksNDcuODcsMC4xOSw0Ny44NywwLjE5LDQ3Ljg3TDAuMTksNDcuODd6Ii8+JiN4YTsJCTwvZz4mI3hhOwkJPGcgaWQ9InNoYXBlNzA3Ny0yNCIgdHJhbnNmb3JtPSJ0cmFuc2xhdGUoOC4xNjgyNCwtMzcuNzUzNikiPiYjeGE7CQkJPHRpdGxlIGlkPSJ0aXRsZTMxMTY4OCI+U2hlZXQuNzA3NzwvdGl0bGU+JiN4YTsJCQk8cGF0aCBpZD0icGF0aDMxMTY5MCIgaW5rc2NhcGU6Y29ubmVjdG9yLWN1cnZhdHVyZT0iMCIgc3R5bGU9ImZpbGw6I0NFOUM1RTsiIGQ9Ik0xLjg1LDQ4LjA3QzAuODQsNDguMDcsMCw0Ny4zOSwwLDQ2LjMzICAgICBjMC0xLjM4LDAtMS4zOCwwLTEuMzhjMy42OSwwLDMuNjksMCwzLjY5LDBjMCwxLjM4LDAsMS4zOCwwLDEuMzhDMy42OSw0Ny4zOSwyLjg3LDQ4LjA3LDEuODUsNDguMDd6Ii8+JiN4YTsJCTwvZz4mI3hhOwkJPGcgaWQ9InNoYXBlNzA3OC0yNiIgdHJhbnNmb3JtPSJ0cmFuc2xhdGUoNy4wMDE2MSwtMzkuNjk5NykiPiYjeGE7CQkJPHRpdGxlIGlkPSJ0aXRsZTMxMTY5MyI+U2hlZXQuNzA3ODwvdGl0bGU+JiN4YTsJCQk8cGF0aCBpZD0icGF0aDMxMTY5NSIgaW5rc2NhcGU6Y29ubmVjdG9yLWN1cnZhdHVyZT0iMCIgc3R5bGU9ImZpbGw6I0NFOUM1RTsiIGQ9Ik01LjgzLDQ0LjE0YzAsMi4zMy0xLjI2LDMuOTMtMi45MywzLjkzICAgICBjLTEuNjYsMC0yLjktMS42LTIuOS0zLjkzYzAtMi4zNSwxLjI0LTQuMjUsMi45LTQuMjVDNS4wMSwzOS44OSw1LjgzLDQxLjc5LDUuODMsNDQuMTR6Ii8+JiN4YTsJCTwvZz4mI3hhOwkJPGcgaWQ9InNoYXBlNzA3OS0yOCIgdHJhbnNmb3JtPSJ0cmFuc2xhdGUoNi42MTI3MywtNDIuNDI0MikiPiYjeGE7CQkJPHRpdGxlIGlkPSJ0aXRsZTMxMTY5OCI+U2hlZXQuNzA3OTwvdGl0bGU+JiN4YTsJCQk8cGF0aCBpZD0icGF0aDMxMTcwMCIgaW5rc2NhcGU6Y29ubmVjdG9yLWN1cnZhdHVyZT0iMCIgc3R5bGU9ImZpbGw6I0NFOUM1RTsiIGQ9Ik0wLjU4LDQ2LjMyYy0wLjMyLDAtMC4zMiwwLTAuMzIsMCAgICAgQzAuMSw0Ni4zMiwwLDQ2LjQ2LDAsNDYuNjNjMCwxLjEzLDAsMS4xMywwLDEuMTNjMCwwLjE3LDAuMSwwLjMxLDAuMjYsMC4zMWMwLjIsMCwwLjIsMCwwLjIsMEwwLjU4LDQ2LjMyeiIvPiYjeGE7CQk8L2c+JiN4YTsJCTxnIGlkPSJzaGFwZTcwODAtMzAiIHRyYW5zZm9ybT0idHJhbnNsYXRlKDEyLjY0MDMsLTQyLjQyNDIpIj4mI3hhOwkJCTx0aXRsZSBpZD0idGl0bGUzMTE3MDMiPlNoZWV0LjcwODA8L3RpdGxlPiYjeGE7CQkJPHBhdGggaWQ9InBhdGgzMTE3MDUiIGlua3NjYXBlOmNvbm5lY3Rvci1jdXJ2YXR1cmU9IjAiIHN0eWxlPSJmaWxsOiNDRTlDNUU7IiBkPSJNMCw0Ni4zMmMwLjQ2LDAsMC40NiwwLDAuNDYsMCAgICAgYzAuMiwwLDAuMzIsMC4xNCwwLjMyLDAuMzFjMCwxLjEzLDAsMS4xMywwLDEuMTNjMCwwLjE3LTAuMTIsMC4zMS0wLjMyLDAuMzFjLTAuMjksMC0wLjI5LDAtMC4yOSwwTDAsNDYuMzJ6Ii8+JiN4YTsJCTwvZz4mI3hhOwkJPGcgaWQ9InNoYXBlNzA4MS0zMiIgdHJhbnNmb3JtPSJ0cmFuc2xhdGUoOC41NTcxMSwtNDMuNTkxOCkiPiYjeGE7CQkJPHRpdGxlIGlkPSJ0aXRsZTMxMTcwOCI+U2hlZXQuNzA4MTwvdGl0bGU+JiN4YTsJCQk8cGF0aCBpZD0icGF0aDMxMTcxMCIgaW5rc2NhcGU6Y29ubmVjdG9yLWN1cnZhdHVyZT0iMCIgc3R5bGU9ImZpbGw6IzIzMUYyMDsiIGQ9Ik0wLjE5LDQ4LjA3YzAuMSwwLDAuMi0wLjA5LDAuMi0wLjIxICAgICBjMC0wLjA4LTAuMS0wLjE4LTAuMi0wLjE4QzAuMDcsNDcuNjgsMCw0Ny43OCwwLDQ3LjlDMCw0Ny45OCwwLjEsNDguMDcsMC4xOSw0OC4wN3oiLz4mI3hhOwkJPC9nPiYjeGE7CQk8ZyBpZD0ic2hhcGU3MDgyLTM0IiB0cmFuc2Zvcm09InRyYW5zbGF0ZSgxMS4wODQ4LC00My4zOTcyKSI+JiN4YTsJCQk8dGl0bGUgaWQ9InRpdGxlMzExNzEzIj5TaGVldC43MDgyPC90aXRsZT4mI3hhOwkJCTxwYXRoIGlkPSJwYXRoMzExNzE1IiBpbmtzY2FwZTpjb25uZWN0b3ItY3VydmF0dXJlPSIwIiBzdHlsZT0iZmlsbDojMjMxRjIwOyIgZD0iTTAuMTksNDguMDdjMC4xLDAsMC4yLTAuMTQsMC4yLTAuMzEgICAgIGMwLTAuMTMtMC4xLTAuMjgtMC4yLTAuMjhDMC4xLDQ3LjQ4LDAsNDcuNjMsMCw0Ny44QzAsNDcuOTMsMC4xLDQ4LjA3LDAuMTksNDguMDd6Ii8+JiN4YTsJCTwvZz4mI3hhOwkJPGcgaWQ9InNoYXBlNzA4My0zNiIgdHJhbnNmb3JtPSJ0cmFuc2xhdGUoOC4xNjgyNCwtMzkuNTA1MSkiPiYjeGE7CQkJPHRpdGxlIGlkPSJ0aXRsZTMxMTcxOCI+U2hlZXQuNzA4MzwvdGl0bGU+JiN4YTsJCQk8cGF0aCBpZD0icGF0aDMxMTcyMCIgaW5rc2NhcGU6Y29ubmVjdG9yLWN1cnZhdHVyZT0iMCIgc3R5bGU9ImZpbGw6I0NFOUM1RTsiIGQ9Ik0wLDQ2LjcxYzMuNSwwLDMuNSwwLDMuNSwwICAgICBjLTAuNDQsMC44My0xLjAzLDEuMzYtMS43NSwxLjM2QzEuMDUsNDguMDcsMC40NSw0Ny41NCwwLDQ2LjcxeiIvPiYjeGE7CQk8L2c+JiN4YTsJCTxnIGlkPSJzaGFwZTcwODQtMzgiIHRyYW5zZm9ybT0idHJhbnNsYXRlKDguMTY4MjQsLTM5LjMxMDUpIj4mI3hhOwkJCTx0aXRsZSBpZD0idGl0bGUzMTE3MjMiPlNoZWV0LjcwODQ8L3RpdGxlPiYjeGE7CQkJPHBhdGggaWQ9InBhdGgzMTE3MjUiIGlua3NjYXBlOmNvbm5lY3Rvci1jdXJ2YXR1cmU9IjAiIHN0eWxlPSJmaWxsOiNCQThENTc7IiBkPSJNMy42OSw0Ni45YzAsMC4yOSwwLDAuMjksMCwwLjI5ICAgICBjMCwwLjI4LTEuMTksMC44OC0xLjg0LDAuODhDMS4yNCw0OC4wNywwLDQ3LjYyLDAsNDcuMTljMC0wLjI5LDAtMC4yOSwwLTAuMjljMC4yNiwwLjI2LDAuNTUsMC40NiwwLjg3LDAuNjEgICAgIGMwLjMsMC4yNCwwLjYyLDAuMzUsMC45OCwwLjM1czAuNjktMC4xMSwwLjk4LTAuMzVDMy4xNiw0Ny4zNiwzLjQ1LDQ3LjE2LDMuNjksNDYuOXoiLz4mI3hhOwkJPC9nPiYjeGE7CQk8ZyBpZD0ic2hhcGU3MDg1LTQwIiB0cmFuc2Zvcm09InRyYW5zbGF0ZSg4Ljc1MTU1LC00MS4wNjE5KSI+JiN4YTsJCQk8dGl0bGUgaWQ9InRpdGxlMzExNzI4Ij5TaGVldC43MDg1PC90aXRsZT4mI3hhOwkJCTxwYXRoIGlkPSJwYXRoMzExNzMwIiBpbmtzY2FwZTpjb25uZWN0b3ItY3VydmF0dXJlPSIwIiBzdHlsZT0iZmlsbDojRkZGRkZGOyIgZD0iTTEuMTcsNDguMDdjMC41NCwwLDAuOC0wLjEyLDEuMTYtMC4yICAgICBjLTAuMTgsMC4wNC0wLjYyLDAuMDgtMS4xNiwwLjA4Yy0wLjU5LDAtMC45OS0wLjA0LTEuMTctMC4wOEMwLjM2LDQ3Ljk1LDAuNjIsNDguMDcsMS4xNyw0OC4wN3oiLz4mI3hhOwkJPC9nPiYjeGE7CQk8ZyBpZD0ic2hhcGU3MDg2LTQyIiB0cmFuc2Zvcm09InRyYW5zbGF0ZSg4Ljc1MTU1LC00MC44NjczKSI+JiN4YTsJCQk8dGl0bGUgaWQ9InRpdGxlMzExNzMzIj5TaGVldC43MDg2PC90aXRsZT4mI3hhOwkJCTxwYXRoIGlkPSJwYXRoMzExNzM1IiBpbmtzY2FwZTpjb25uZWN0b3ItY3VydmF0dXJlPSIwIiBzdHlsZT0iZmlsbDojQkIxNDFBOyIgZD0iTTEuMjksNDguMDdjLTAuMzgsMC0wLjYxLTAuMS0wLjg2LTAuMTUgICAgIGMtMC4wOS0wLjA1LTAuMi0wLjEtMC4zMS0wLjE0Yy0wLjAzLDAtMC4wMywwLTAuMDcsMEwwLDQ3LjczYzAuMDUtMC4wNSwwLjA1LTAuMDUsMC4wOS0wLjA1YzAsMCwwLjAzLDAsMC4wNywwICAgICBjMC4xOCwwLjA1LDAuNjEsMC4xLDEuMTMsMC4xYzAuNDgsMCwwLjkxLTAuMDUsMS4xMy0wLjFjMC4wMywwLDAuMDMsMCwwLjA3LDBzMC4wNCwwLDAuMDQsMC4wNWMwLDAsMCwwLjA1LTAuMDQsMC4wNSAgICAgYzAsMC0wLjA0LDAtMC4wNywwYy0wLjA3LDAuMDQtMC4xOCwwLjA5LTAuMzEsMC4xNEMxLjksNDcuOTcsMS42Myw0OC4wNywxLjI5LDQ4LjA3eiBNMC42MSw0Ny44N2MwLjE5LDAuMDUsMC40MSwwLjEsMC42OCwwLjEgICAgIHMwLjQ4LTAuMDUsMC42OC0wLjFjLTAuMjMsMC0wLjQ1LDAtMC42OCwwQzEuMDIsNDcuODcsMC44LDQ3Ljg3LDAuNjEsNDcuODd6Ii8+JiN4YTsJCTwvZz4mI3hhOwkJPGcgaWQ9InNoYXBlNzA4Ny00NCIgdHJhbnNmb3JtPSJ0cmFuc2xhdGUoOS4zMzQ4NywtNDEuODQwNCkiPiYjeGE7CQkJPHRpdGxlIGlkPSJ0aXRsZTMxMTczOCI+U2hlZXQuNzA4NzwvdGl0bGU+JiN4YTsJCQk8cGF0aCBpZD0icGF0aDMxMTc0MCIgaW5rc2NhcGU6Y29ubmVjdG9yLWN1cnZhdHVyZT0iMCIgc3R5bGU9ImZpbGw6I0JBOEQ1NzsiIGQ9Ik0xLjE3LDQ3LjQ4YzAsMC4xNS0wLjEsMC4zLTAuMjEsMC4yNSAgICAgYy0wLjA0LDAtMC4wNywwLjA5LTAuMTUsMC4xNGMtMC4wNiwwLjEtMC4xMywwLjItMC4yNCwwLjJjLTAuMDcsMC0wLjE4LTAuMS0wLjI0LTAuMmMtMC4wNy0wLjA1LTAuMTEtMC4xNC0wLjExLTAuMTQgICAgIEMwLjA3LDQ3Ljc4LDAsNDcuNjMsMCw0Ny40OGwwLDBDMS4xNyw0Ny40OCwxLjE3LDQ3LjQ4LDEuMTcsNDcuNDhMMS4xNyw0Ny40OHoiLz4mI3hhOwkJPC9nPiYjeGE7CQk8ZyBpZD0ic2hhcGU3MDg4LTQ2IiB0cmFuc2Zvcm09InRyYW5zbGF0ZSg3LjAwMTYxLC00Mi44MTM0KSI+JiN4YTsJCQk8dGl0bGUgaWQ9InRpdGxlMzExNzQzIj5TaGVldC43MDg4PC90aXRsZT4mI3hhOwkJCTxwYXRoIGlkPSJwYXRoMzExNzQ1IiBpbmtzY2FwZTpjb25uZWN0b3ItY3VydmF0dXJlPSIwIiBzdHlsZT0iZmlsbDojRkZCOTAwOyIgZD0iTTYuMDMsNDUuNTRjMCwyLjUzLDAsMi41MywwLDIuNTMgICAgIGMtMC4yNiwwLTAuMjYsMC0wLjI2LDBjLTAuMTQtMy4wNC0wLjE0LTMuMDQtMC4xNC0zLjA0QzQuOCw0NS4xNyw0LjgsNDUuMTcsNC44LDQ1LjE3Yy0xLjE5LDAuMTUtMi4zOCwwLjE1LTMuNTYsMCAgICAgYy0wLjgzLTAuMTQtMC44My0wLjE0LTAuODMtMC4xNGMtMC4xOCwzLTAuMTgsMy0wLjE4LDNjLTAuMjMsMC0wLjIzLDAtMC4yMywwYzAtMi40OSwwLTIuNDksMC0yLjQ5YzAtMS41MSwxLjA1LTIuNzMsMi4zMS0yLjczICAgICBjMS4zOCwwLDEuMzgsMCwxLjM4LDBDNC45OSw0Mi44MSw2LjAzLDQ0LjAzLDYuMDMsNDUuNTR6Ii8+JiN4YTsJCTwvZz4mI3hhOwkJPGcgaWQ9InNoYXBlNzA4OS00OCIgdHJhbnNmb3JtPSJ0cmFuc2xhdGUoMTAuODkwNCwtNDQuMTc1NikiPiYjeGE7CQkJPHRpdGxlIGlkPSJ0aXRsZTMxMTc0OCI+U2hlZXQuNzA4OTwvdGl0bGU+JiN4YTsJCQk8cGF0aCBpZD0icGF0aDMxMTc1MCIgaW5rc2NhcGU6Y29ubmVjdG9yLWN1cnZhdHVyZT0iMCIgc3R5bGU9ImZpbGw6I0ZGQjkwMDsiIGQ9Ik0wLjk3LDQ4LjA3YzAsMC0wLjA2LTAuMDMtMC4xNi0wLjEgICAgIGMtMC4wMywwLTAuMDYtMC4wMi0wLjEzLTAuMDZjLTAuMDItMC4wNC0wLjA2LTAuMDQtMC4wNi0wLjA0cy0wLjA0LTAuMDItMC4wNi0wLjAyYzAsMCwwLDAtMC4wNCwwYy0wLjEzLTAuMDQtMC4yNSwwLTAuMzUsMCAgICAgYy0wLjA0LDAtMC4wNywwLTAuMSwwcy0wLjA3LDAtMC4wNywwbDAsMGMwLTAuMDQsMC0wLjA0LDAtMC4wNHMwLjA3LTAuMDMsMC4xNy0wLjA2YzAuMS0wLjAzLDAuMjItMC4wNywwLjM5LTAuMDMgICAgIGMwLDAsMC4wMiwwLDAuMDYsMGMwLDAsMCwwLDAuMDQsMC4wM2MwLjAyLDAsMC4wNiwwLjAzLDAuMDksMC4wM2MwLjA2LDAuMDcsMC4xLDAuMDksMC4xMiwwLjEzYzAuMDQsMC4wNCwwLjA4LDAuMSwwLjEsMC4xICAgICBDMC45Nyw0OC4wNCwwLjk3LDQ4LjA3LDAuOTcsNDguMDdMMC45Nyw0OC4wN0MwLjk3LDQ4LjA3LDAuOTcsNDguMDcsMC45Nyw0OC4wN3oiLz4mI3hhOwkJPC9nPiYjeGE7CQk8ZyBpZD0ic2hhcGU3MDkwLTUwIiB0cmFuc2Zvcm09InRyYW5zbGF0ZSg4LjE2ODI0LC00NC4xODE3KSI+JiN4YTsJCQk8dGl0bGUgaWQ9InRpdGxlMzExNzUzIj5TaGVldC43MDkwPC90aXRsZT4mI3hhOwkJCTxwYXRoIGlkPSJwYXRoMzExNzU1IiBpbmtzY2FwZTpjb25uZWN0b3ItY3VydmF0dXJlPSIwIiBzdHlsZT0iZmlsbDojRkZCOTAwOyIgZD0iTTAuOTUsNDcuODVjMCwwLTAuMDYsMC0wLjE2LTAuMDMgICAgIGMtMC4wNCwwLTAuMSwwLTAuMTYsMGMtMC4wMiwwLTAuMDYsMC0wLjEsMEgwLjUxSDAuNDdjLTAuMTIsMC4wMy0wLjIxLDAuMS0wLjMxLDAuMTZjLTAuMDMsMC4wMy0wLjA2LDAuMDMtMC4wOSwwLjA3ICAgICBjLTAuMDMsMC0wLjAzLDAtMC4wMywwYzAsMC4wMi0wLjA0LDAuMDItMC4wNCwwbDAsMGMwLDAsMC4wNC0wLjA3LDAuMS0wLjEzYzAuMDktMC4xLDAuMTktMC4xNiwwLjM1LTAuMjRoMC4wMiAgICAgYzAuMDQsMCwwLjA0LDAsMC4wNiwwYzAuMDQsMCwwLjEsMCwwLjE0LDBjMC4wNiwwLDAuMDgsMC4wNCwwLjE2LDAuMDRjMC4wMiwwLjA0LDAuMDgsMC4wNiwwLjA4LDAuMDYgICAgIGMwLjA0LDAuMDQsMC4wNiwwLjA0LDAuMDYsMC4wNHMwLDAsMCwwLjAzQzAuOTcsNDcuODUsMC45NSw0Ny44NSwwLjk1LDQ3Ljg1eiIvPiYjeGE7CQk8L2c+JiN4YTsJCTxnIGlkPSJzaGFwZTcwOTEtNTIiIHRyYW5zZm9ybT0idHJhbnNsYXRlKDkuMzM0ODcsLTQyLjQyNDIpIj4mI3hhOwkJCTx0aXRsZSBpZD0idGl0bGUzMTE3NTgiPlNoZWV0LjcwOTE8L3RpdGxlPiYjeGE7CQkJPHBhdGggaWQ9InBhdGgzMTE3NjAiIGlua3NjYXBlOmNvbm5lY3Rvci1jdXJ2YXR1cmU9IjAiIHN0eWxlPSJmaWxsOiNEOUIwN0Y7IiBkPSJNMC43OCw0Ni4zMmMwLDEuNzUsMCwxLjc1LDAsMS43NSAgICAgYy0wLjc4LDAtMC43OCwwLTAuNzgsMGMwLTAuMDQsMC4wNS0wLjExLDAuMS0wLjE1YzAuMTMtMC4xMSwwLjIzLTAuMywwLjI4LTAuNTNjMC4wMy0wLjc2LDAuMDMtMC43NiwwLjAzLTAuNzYgICAgIEMwLjQxLDQ2LjQsMC42OSw0Ni4zMiwwLjc4LDQ2LjMyeiIvPiYjeGE7CQk8L2c+JiN4YTsJCTxnIGlkPSJzaGFwZTcwOTItNTQiIHRyYW5zZm9ybT0idHJhbnNsYXRlKDIuMzM1MSwtMjQuNTIwNCkiPiYjeGE7CQkJPHRpdGxlIGlkPSJ0aXRsZTMxMTc2MyI+U2hlZXQuNzA5MjwvdGl0bGU+JiN4YTsJCQk8cGF0aCBpZD0icGF0aDMxMTc2NSIgaW5rc2NhcGU6Y29ubmVjdG9yLWN1cnZhdHVyZT0iMCIgc3R5bGU9ImZpbGw6I0U2MUUyNzsiIGQ9Ik00LjA2LDQ4LjA3bDYuMDUtNS45bC00LjEyLTQuMjJMMCw0My44OCAgICAgTDQuMDYsNDguMDd6Ii8+JiN4YTsJCTwvZz4mI3hhOwkJPGcgaWQ9InNoYXBlNzA5My01NiIgdHJhbnNmb3JtPSJ0cmFuc2xhdGUoMi4zMzUxLC0yNC41MjA0KSI+JiN4YTsJCQk8dGl0bGUgaWQ9InRpdGxlMzExNzY4Ij5TaGVldC43MDkzPC90aXRsZT4mI3hhOwkJCTxwYXRoIGlkPSJwYXRoMzExNzcwIiBpbmtzY2FwZTpjb25uZWN0b3ItY3VydmF0dXJlPSIwIiBzdHlsZT0iZmlsbDojRUQ0RTVBOyIgZD0iTTQuMDYsNDguMDdsNi4wNS01Ljg0TDAsNDMuOTNMNC4wNiw0OC4wN3oiLz4mI3hhOwkJPC9nPiYjeGE7CQk8ZyBpZD0ic2hhcGU3MDk0LTU4IiB0cmFuc2Zvcm09InRyYW5zbGF0ZSgwLjM5MDcxNSwtMzAuOTQyNCkiPiYjeGE7CQkJPHRpdGxlIGlkPSJ0aXRsZTMxMTc3MyI+U2hlZXQuNzA5NDwvdGl0bGU+JiN4YTsJCQk8cGF0aCBpZD0icGF0aDMxMTc3NSIgaW5rc2NhcGU6Y29ubmVjdG9yLWN1cnZhdHVyZT0iMCIgc3R5bGU9ImZpbGw6I0NFOUM1RTsiIGQ9Ik0wLDQ2LjRsMi4zNiwxLjY3bDQuMDYtNC42NGwtMy4yNC0yLjM3TDAsNDYuNCAgICAgeiIvPiYjeGE7CQk8L2c+JiN4YTsJCTxnIGlkPSJzaGFwZTcwOTUtNjAiIHRyYW5zZm9ybT0idHJhbnNsYXRlKDMuMTgyNzQsLTM0LjcxNzQpIj4mI3hhOwkJCTx0aXRsZSBpZD0idGl0bGUzMTE3NzgiPlNoZWV0LjcwOTU8L3RpdGxlPiYjeGE7CQkJPHBhdGggaWQ9InBhdGgzMTE3ODAiIGlua3NjYXBlOmNvbm5lY3Rvci1jdXJ2YXR1cmU9IjAiIHN0eWxlPSJmaWxsOiNFNkU3RTg7IiBkPSJNMC4zOCw0NC45NWMwLjYzLTAuODYsMS44Ni0xLjA5LDIuNzYtMC40MiAgICAgYzAuODksMC42NCwxLjA3LDEuODUsMC40NCwyLjc0Yy0wLjY3LDAuODUtMS44NiwxLjA3LTIuNzYsMC40NUMtMC4wNyw0Ny4wOS0wLjI2LDQ1Ljg3LDAuMzgsNDQuOTV6Ii8+JiN4YTsJCTwvZz4mI3hhOwkJPGcgaWQ9InNoYXBlNzA5Ni02MiIgdHJhbnNmb3JtPSJ0cmFuc2xhdGUoNS40NDYxMSwtMjYuNTQzMikiPiYjeGE7CQkJPHRpdGxlIGlkPSJ0aXRsZTMxMTc4MyI+U2hlZXQuNzA5NjwvdGl0bGU+JiN4YTsJCQk8cGF0aCBpZD0icGF0aDMxMTc4NSIgaW5rc2NhcGU6Y29ubmVjdG9yLWN1cnZhdHVyZT0iMCIgc3R5bGU9ImZpbGw6I0NEOUI1RTsiIGQ9Ik0xLjUzLDQ2Ljk1YzAuOTIsMC44NywxLjM3LDAuOTQsMi40MiwxLjA5ICAgICBjMC42MywwLjEsMC44NS0wLjA4LDAuNjMtMC4zYzAuNTUsMC4yNiwxLjExLTAuMTIsMC43MS0wLjNjMC4xNCwwLDAuNTEtMC4xMSwwLjUxLTAuMzRjMC4wMy0wLjE4LTAuMzctMC4yMi0wLjUxLTAuMjIgICAgIGMwLjE0LTAuMiwwLjExLTAuNDUtMC4zOC0wLjQ5Yy0wLjM4LTAuMDMtMC42LTAuMjMtMC42LTAuMjNjMC40NS0wLjExLDAuNi0wLjQxLDAuNDktMC41OWMtMC40OSwwLjAzLTEuMjMtMC4xNi0xLjgyLTAuMTEgICAgIGMtMC4xMSwwLTAuMjIsMC4wMy0wLjMzLDAuMDdjLTIuMzgtMS40Ny0yLjM4LTEuNDctMi4zOC0xLjQ3QzAsNDYuMTMsMCw0Ni4xMywwLDQ2LjEzTDEuNTMsNDYuOTV6Ii8+JiN4YTsJCTwvZz4mI3hhOwkJPGcgaWQ9InNoYXBlNzA5Ny02NCIgdHJhbnNmb3JtPSJ0cmFuc2xhdGUoMCwtMzAuMzY3MSkiPiYjeGE7CQkJPHRpdGxlIGlkPSJ0aXRsZTMxMTc4OCI+U2hlZXQuNzA5NzwvdGl0bGU+JiN4YTsJCQk8cGF0aCBpZD0icGF0aDMxMTc5MCIgaW5rc2NhcGU6Y29ubmVjdG9yLWN1cnZhdHVyZT0iMCIgc3R5bGU9ImZpbGw6I0NFOUM1RTsiIGQ9Ik0yLjI1LDQ1LjQyYzAuNjgsMC40MiwwLjg2LDEuMjgsMC40OSwxLjk5ICAgICBjLTAuNDIsMC42NC0xLjMzLDAuODYtMi4wMSwwLjQ1QzAsNDcuNDktMC4xOSw0Ni41OCwwLjIsNDUuOTFDMC42NSw0NS4xOSwxLjUyLDQ0Ljk2LDIuMjUsNDUuNDJ6Ii8+JiN4YTsJCTwvZz4mI3hhOwkJPGcgaWQ9InNoYXBlNzA5OC02NiIgdHJhbnNmb3JtPSJ0cmFuc2xhdGUoMC43Nzk1OTEsLTI3LjYzNDEpIj4mI3hhOwkJCTx0aXRsZSBpZD0idGl0bGUzMTE3OTMiPlNoZWV0LjcwOTg8L3RpdGxlPiYjeGE7CQkJPHBhdGggaWQ9InBhdGgzMTE3OTUiIGlua3NjYXBlOmNvbm5lY3Rvci1jdXJ2YXR1cmU9IjAiIHN0eWxlPSJmaWxsOiNDRTlDNUU7IiBkPSJNNi4yMiw0OC4wN2wwLjM5LTEuODNsLTUuMTMtMy40M0wwLDQ1LjE2ICAgICBMNi4yMiw0OC4wN3oiLz4mI3hhOwkJPC9nPiYjeGE7CQk8ZyBpZD0ic2hhcGU3MDk5LTY4IiB0cmFuc2Zvcm09InRyYW5zbGF0ZSgxLjE2ODQ3LC0zMi4zMDQ2KSI+JiN4YTsJCQk8dGl0bGUgaWQ9InRpdGxlMzExNzk4Ij5TaGVldC43MDk5PC90aXRsZT4mI3hhOwkJCTxwYXRoIGlkPSJwYXRoMzExODAwIiBpbmtzY2FwZTpjb25uZWN0b3ItY3VydmF0dXJlPSIwIiBzdHlsZT0iZmlsbDojRTZFN0U4OyIgZD0iTTAsNDUuOTVsMy4yMSwyLjEybDMuNC0zLjk4bC0yLjczLTEuNjdIMi40MiAgICAgTDAsNDUuOTV6Ii8+JiN4YTsJCTwvZz4mI3hhOwkJPGcgaWQ9InNoYXBlNzEwMC03MCIgdHJhbnNmb3JtPSJ0cmFuc2xhdGUoMTIuODM0OCwtMzEuMTM3KSI+JiN4YTsJCQk8dGl0bGUgaWQ9InRpdGxlMzExODAzIj5TaGVldC43MTAwPC90aXRsZT4mI3hhOwkJCTxwYXRoIGlkPSJwYXRoMzExODA1IiBpbmtzY2FwZTpjb25uZWN0b3ItY3VydmF0dXJlPSIwIiBzdHlsZT0iZmlsbDojQ0U5QzVFOyIgZD0iTTYuMjIsNDYuNzVsLTIuMzQsMS4zMkwwLDQzLjU0bDMuMTEtMi4yOCAgICAgTDYuMjIsNDYuNzV6Ii8+JiN4YTsJCTwvZz4mI3hhOwkJPGcgaWQ9InNoYXBlNzEwMS03MiIgdHJhbnNmb3JtPSJ0cmFuc2xhdGUoMTIuMzI5MSwtMzQuOTA3NSkiPiYjeGE7CQkJPHRpdGxlIGlkPSJ0aXRsZTMxMTgwOCI+U2hlZXQuNzEwMTwvdGl0bGU+JiN4YTsJCQk8cGF0aCBpZD0icGF0aDMxMTgxMCIgaW5rc2NhcGU6Y29ubmVjdG9yLWN1cnZhdHVyZT0iMCIgc3R5bGU9ImZpbGw6I0U2RTdFODsiIGQ9Ik0zLjYsNDQuOTFjLTAuNjYtMC44Ni0xLjg1LTEuMDUtMi43OS0wLjQxICAgICBjLTAuODksMC42Ny0xLjA4LDEuODYtMC40LDIuNzdjMC42MywwLjg4LDEuODYsMS4wNywyLjc2LDAuNDNDNC4wMiw0Ny4wNyw0LjIsNDUuODQsMy42LDQ0LjkxeiIvPiYjeGE7CQk8L2c+JiN4YTsJCTxnIGlkPSJzaGFwZTcxMDItNzQiIHRyYW5zZm9ybT0idHJhbnNsYXRlKDEzLjIyMzYsLTIyLjcwMSkiPiYjeGE7CQkJPHRpdGxlIGlkPSJ0aXRsZTMxMTgxMyI+U2hlZXQuNzEwMjwvdGl0bGU+JiN4YTsJCQk8cGF0aCBpZD0icGF0aDMxMTgxNSIgaW5rc2NhcGU6Y29ubmVjdG9yLWN1cnZhdHVyZT0iMCIgc3R5bGU9ImZpbGw6I0NEOUI1RTsiIGQ9Ik0zLjI5LDQ1LjEzYy0wLjE4LDEuMi0wLjQ3LDEuNTMtMS4xNCwyLjMgICAgIGMtMC40LDAuNDctMC42OCwwLjQ3LTAuNjQsMC4xOGMtMC4yNiwwLjU1LTAuOSwwLjU4LTAuNzIsMC4yMmMtMC4xMSwwLjA3LTAuNDMsMC4yNS0wLjU3LDAuMDdjLTAuMTUtMC4xMSwwLjExLTAuNCwwLjIyLTAuNDcgICAgIGMtMC4yMi0wLjA3LTAuMzctMC4yOSwwLTAuNjJjMC4yNC0wLjI2LDAuMzEtMC41NSwwLjMxLTAuNTVDMC4zMyw0Ni40NCwwLjA0LDQ2LjMzLDAsNDYuMTFjMC40LTAuMjUsMC44My0wLjg3LDEuMjktMS4yICAgICBjMC4xMS0wLjA3LDAuMjItMC4xNSwwLjMzLTAuMThjMC44NS0yLjU3LDAuODUtMi41NywwLjg1LTIuNTdjMS40MiwxLjM2LDEuNDIsMS4zNiwxLjQyLDEuMzZMMy4yOSw0NS4xM3oiLz4mI3hhOwkJPC9nPiYjeGE7CQk8ZyBpZD0ic2hhcGU3MTAzLTc2IiB0cmFuc2Zvcm09InRyYW5zbGF0ZSgxNy4wODA3LC0zMC43MjEyKSI+JiN4YTsJCQk8dGl0bGUgaWQ9InRpdGxlMzExODE4Ij5TaGVldC43MTAzPC90aXRsZT4mI3hhOwkJCTxwYXRoIGlkPSJwYXRoMzExODIwIiBpbmtzY2FwZTpjb25uZWN0b3ItY3VydmF0dXJlPSIwIiBzdHlsZT0iZmlsbDojQ0U5QzVFOyIgZD0iTTAuNTIsNDUuODZjLTAuNSwwLjM0LTAuNjgsMS4xMS0wLjM1LDEuNjYgICAgIGMwLjMxLDAuNTMsMC45OSwwLjcyLDEuNTMsMC4zOGMwLjUzLTAuMzEsMC42Ni0xLjA0LDAuMzUtMS42MUMxLjczLDQ1LjcxLDEuMDUsNDUuNTEsMC41Miw0NS44NnoiLz4mI3hhOwkJPC9nPiYjeGE7CQk8ZyBpZD0ic2hhcGU3MTA0LTc4IiB0cmFuc2Zvcm09InRyYW5zbGF0ZSgxNC45NzM2LC0yNS40OTM0KSI+JiN4YTsJCQk8dGl0bGUgaWQ9InRpdGxlMzExODIzIj5TaGVldC43MTA0PC90aXRsZT4mI3hhOwkJCTxwYXRoIGlkPSJwYXRoMzExODI1IiBpbmtzY2FwZTpjb25uZWN0b3ItY3VydmF0dXJlPSIwIiBzdHlsZT0iZmlsbDojQ0U5QzVFOyIgZD0iTTEuNTEsNDguMDdMMCw0Ni44OWwxLjctNi4wMmwyLjU4LDEuMDYgICAgIEwxLjUxLDQ4LjA3eiIvPiYjeGE7CQk8L2c+JiN4YTsJCTxnIGlkPSJzaGFwZTcxMDUtODAiIHRyYW5zZm9ybT0idHJhbnNsYXRlKDExLjg2MjYsLTMyLjQ5OTMpIj4mI3hhOwkJCTx0aXRsZSBpZD0idGl0bGUzMTE4MjgiPlNoZWV0LjcxMDU8L3RpdGxlPiYjeGE7CQkJPHBhdGggaWQ9InBhdGgzMTE4MzAiIGlua3NjYXBlOmNvbm5lY3Rvci1jdXJ2YXR1cmU9IjAiIHN0eWxlPSJmaWxsOiNFNkU3RTg7IiBkPSJNNi40Miw0NmwtMy4wOCwyLjA3TDAsNDQuMjZsMi42NC0xLjY0aDEuNDcgICAgIEw2LjQyLDQ2eiIvPiYjeGE7CQk8L2c+JiN4YTsJPC9nPiYjeGE7PC9nPiYjeGE7PC9zdmc+;" parent="1" vertex="1">
          <mxGeometry x="397.5" y="750.5" width="27" height="68" as="geometry" />
        </mxCell>
        <mxCell id="RLjyjs_sm2IHfBNOWAbh-1" value="3" style="ellipse;whiteSpace=wrap;html=1;aspect=fixed;fillColor=#4D9900;strokeColor=none;labelBackgroundColor=none;" parent="1" vertex="1">
          <mxGeometry x="274.5" y="410.5" width="23" height="23" as="geometry" />
        </mxCell>
        <mxCell id="RLjyjs_sm2IHfBNOWAbh-3" value="1" style="ellipse;whiteSpace=wrap;html=1;aspect=fixed;fillColor=#4D9900;strokeColor=none;labelBackgroundColor=none;" parent="1" vertex="1">
          <mxGeometry x="273" y="773.5" width="23" height="23" as="geometry" />
        </mxCell>
        <mxCell id="RLjyjs_sm2IHfBNOWAbh-5" value="4" style="ellipse;whiteSpace=wrap;html=1;aspect=fixed;fillColor=#4D9900;strokeColor=none;labelBackgroundColor=none;" parent="1" vertex="1">
          <mxGeometry x="490" y="414.5" width="23" height="23" as="geometry" />
        </mxCell>
        <mxCell id="ul5Ljdfapj6bAUza6q9H-5" value="" style="endArrow=classic;html=1;rounded=0;startArrow=none;" edge="1" parent="1" source="RLjyjs_sm2IHfBNOWAbh-4" target="AcxdMaKK0mU5kZiv2lnr-33">
          <mxGeometry width="50" height="50" relative="1" as="geometry">
            <mxPoint x="170" y="760" as="sourcePoint" />
            <mxPoint x="749" y="542" as="targetPoint" />
          </mxGeometry>
        </mxCell>
        <mxCell id="RLjyjs_sm2IHfBNOWAbh-4" value="1" style="ellipse;whiteSpace=wrap;html=1;aspect=fixed;fillColor=#4D9900;strokeColor=none;labelBackgroundColor=none;" parent="1" vertex="1">
          <mxGeometry x="230" y="579.5" width="23" height="23" as="geometry" />
        </mxCell>
        <mxCell id="ul5Ljdfapj6bAUza6q9H-7" value="" style="endArrow=none;html=1;rounded=0;" edge="1" parent="1" target="RLjyjs_sm2IHfBNOWAbh-4">
          <mxGeometry width="50" height="50" relative="1" as="geometry">
            <mxPoint x="170" y="760" as="sourcePoint" />
            <mxPoint x="235.70833333333326" y="674.5" as="targetPoint" />
            <Array as="points">
              <mxPoint x="170" y="680" />
              <mxPoint x="240" y="680" />
            </Array>
          </mxGeometry>
        </mxCell>
        <mxCell id="ul5Ljdfapj6bAUza6q9H-6" value="2" style="ellipse;whiteSpace=wrap;html=1;aspect=fixed;fillColor=#4D9900;strokeColor=none;labelBackgroundColor=none;" vertex="1" parent="1">
          <mxGeometry x="133" y="585" width="23" height="23" as="geometry" />
        </mxCell>
        <mxCell id="ul5Ljdfapj6bAUza6q9H-8" value="" style="edgeStyle=elbowEdgeStyle;rounded=0;orthogonalLoop=1;jettySize=auto;elbow=vertical;html=1;strokeColor=#000000;endArrow=none;" edge="1" parent="1" source="AcxdMaKK0mU5kZiv2lnr-37" target="ul5Ljdfapj6bAUza6q9H-6">
          <mxGeometry relative="1" as="geometry">
            <mxPoint x="144" y="760" as="sourcePoint" />
            <mxPoint x="144.5" y="451.5" as="targetPoint" />
          </mxGeometry>
        </mxCell>
        <mxCell id="ul5Ljdfapj6bAUza6q9H-13" value="" style="group" vertex="1" connectable="0" parent="1">
          <mxGeometry x="570" y="397.5" width="60" height="81.5" as="geometry" />
        </mxCell>
        <mxCell id="ul5Ljdfapj6bAUza6q9H-11" value="" style="shape=image;verticalLabelPosition=bottom;labelBackgroundColor=#ffffff;verticalAlign=top;aspect=fixed;imageAspect=0;image=data:image/svg+xml,PHN2ZyB4bWxuczpkYz0iaHR0cDovL3B1cmwub3JnL2RjL2VsZW1lbnRzLzEuMS8iIHhtbG5zOmNjPSJodHRwOi8vY3JlYXRpdmVjb21tb25zLm9yZy9ucyMiIHhtbG5zOnJkZj0iaHR0cDovL3d3dy53My5vcmcvMTk5OS8wMi8yMi1yZGYtc3ludGF4LW5zIyIgeG1sbnM6c3ZnPSJodHRwOi8vd3d3LnczLm9yZy8yMDAwL3N2ZyIgeG1sbnM9Imh0dHA6Ly93d3cudzMub3JnLzIwMDAvc3ZnIiB4bWxuczp4bGluaz0iaHR0cDovL3d3dy53My5vcmcvMTk5OS94bGluayIgeG1sbnM6c29kaXBvZGk9Imh0dHA6Ly9zb2RpcG9kaS5zb3VyY2Vmb3JnZS5uZXQvRFREL3NvZGlwb2RpLTAuZHRkIiB4bWxuczppbmtzY2FwZT0iaHR0cDovL3d3dy5pbmtzY2FwZS5vcmcvbmFtZXNwYWNlcy9pbmtzY2FwZSIgdmVyc2lvbj0iMS4xIiBpZD0iTGF5ZXJfMSIgeD0iMHB4IiB5PSIwcHgiIHZpZXdCb3g9IjAgMCA0NC4zNCA0NS44NCIgeG1sOnNwYWNlPSJwcmVzZXJ2ZSIgc29kaXBvZGk6ZG9jbmFtZT0iYW5zaWJsZS5zdmciIHdpZHRoPSI0NC4zNCIgaGVpZ2h0PSI0NS44NCIgaW5rc2NhcGU6dmVyc2lvbj0iMC45Mi4zICgyNDA1NTQ2LCAyMDE4LTAzLTExKSI+PG1ldGFkYXRhIGlkPSJtZXRhZGF0YTI5OTU2Ij48cmRmOlJERj48Y2M6V29yayByZGY6YWJvdXQ9IiI+PGRjOmZvcm1hdD5pbWFnZS9zdmcreG1sPC9kYzpmb3JtYXQ+PGRjOnR5cGUgcmRmOnJlc291cmNlPSJodHRwOi8vcHVybC5vcmcvZGMvZGNtaXR5cGUvU3RpbGxJbWFnZSIvPjxkYzp0aXRsZS8+PC9jYzpXb3JrPjwvcmRmOlJERj48L21ldGFkYXRhPjxkZWZzIGlkPSJkZWZzMjk5NTQiLz48c29kaXBvZGk6bmFtZWR2aWV3IHBhZ2Vjb2xvcj0iI2ZmZmZmZiIgYm9yZGVyY29sb3I9IiM2NjY2NjYiIGJvcmRlcm9wYWNpdHk9IjEiIG9iamVjdHRvbGVyYW5jZT0iMTAiIGdyaWR0b2xlcmFuY2U9IjEwIiBndWlkZXRvbGVyYW5jZT0iMTAiIGlua3NjYXBlOnBhZ2VvcGFjaXR5PSIwIiBpbmtzY2FwZTpwYWdlc2hhZG93PSIyIiBpbmtzY2FwZTp3aW5kb3ctd2lkdGg9IjE5MjAiIGlua3NjYXBlOndpbmRvdy1oZWlnaHQ9IjEwMTciIGlkPSJuYW1lZHZpZXcyOTk1MiIgc2hvd2dyaWQ9ImZhbHNlIiBmaXQtbWFyZ2luLXRvcD0iMCIgZml0LW1hcmdpbi1sZWZ0PSIwIiBmaXQtbWFyZ2luLXJpZ2h0PSIwIiBmaXQtbWFyZ2luLWJvdHRvbT0iMCIgaW5rc2NhcGU6em9vbT0iMS4wMzAzMDMiIGlua3NjYXBlOmN4PSIyNTQuMzU1IiBpbmtzY2FwZTpjeT0iLTE3Ny43NyIgaW5rc2NhcGU6d2luZG93LXg9Ii04IiBpbmtzY2FwZTp3aW5kb3cteT0iLTgiIGlua3NjYXBlOndpbmRvdy1tYXhpbWl6ZWQ9IjEiIGlua3NjYXBlOmN1cnJlbnQtbGF5ZXI9IkxheWVyXzEiLz4mI3hhOyYjeGE7PGcgaWQ9ImcyOTk0OSIgdHJhbnNmb3JtPSJ0cmFuc2xhdGUoLTQzLjAyLC0xOTcuMTQpIj4mI3hhOwk8ZGVmcyBpZD0iZGVmczI5OTMyIj4mI3hhOwkJPHJlY3QgaWQ9IlNWR0lEXzNfIiB4PSI0MC4yNSIgeT0iMTk0Ljc0MDAxIiB3aWR0aD0iNTAuOTkwMDAyIiBoZWlnaHQ9IjUwLjk5MDAwMiIvPiYjeGE7CTwvZGVmcz4mI3hhOwk8Y2xpcFBhdGggaWQ9IlNWR0lEXzRfIj4mI3hhOwkJPHVzZSB4bGluazpocmVmPSIjU1ZHSURfM18iIHN0eWxlPSJvdmVyZmxvdzp2aXNpYmxlIiBpZD0idXNlMjk5MzQiIHg9IjAiIHk9IjAiIHdpZHRoPSIxMDAlIiBoZWlnaHQ9IjEwMCUiLz4mI3hhOwk8L2NsaXBQYXRoPiYjeGE7CTxnIGNsaXAtcGF0aD0idXJsKCNTVkdJRF80XykiIGlkPSJnMjk5NDciPiYjeGE7CQk8ZGVmcyBpZD0iZGVmczI5OTM4Ij4mI3hhOwkJCTxyZWN0IGlkPSJTVkdJRF81XyIgeD0iNDAuMjUiIHk9IjE5NC43NSIgd2lkdGg9IjUxIiBoZWlnaHQ9IjUwLjk5MDAwMiIvPiYjeGE7CQk8L2RlZnM+JiN4YTsJCTxjbGlwUGF0aCBpZD0iU1ZHSURfNl8iPiYjeGE7CQkJPHVzZSB4bGluazpocmVmPSIjU1ZHSURfNV8iIHN0eWxlPSJvdmVyZmxvdzp2aXNpYmxlIiBpZD0idXNlMjk5NDAiIHg9IjAiIHk9IjAiIHdpZHRoPSIxMDAlIiBoZWlnaHQ9IjEwMCUiLz4mI3hhOwkJPC9jbGlwUGF0aD4mI3hhOwkJPHBhdGggc3R5bGU9ImZpbGw6I2NjMDAwMCIgZD0ibSA4Ny4zNiwyMjAuMDMgYyAwLDEyLjcgLTkuODksMjIuOTUgLTIyLjE3LDIyLjk1IC0xMi4yMywwIC0yMi4xNywtMTAuMjUgLTIyLjE3LC0yMi45NSAwLC0xMi42NCA5Ljk1LC0yMi44OSAyMi4xNywtMjIuODkgMTIuMjgsMCAyMi4xNywxMC4yNSAyMi4xNywyMi44OSB6IiBjbGlwLXBhdGg9InVybCgjU1ZHSURfNl8pIiBpZD0icGF0aDI5OTQzIiBpbmtzY2FwZTpjb25uZWN0b3ItY3VydmF0dXJlPSIwIi8+JiN4YTsJCTxwYXRoIHN0eWxlPSJmaWxsOiNmZmZmZmYiIGQ9Im0gNjQuODgsMjA5LjAxIDYuNTMsMTYuNDggLTkuODksLTcuOTcgeiBtIDExLjU3LDIwLjI1IC0xMC4wMSwtMjQuNzUgYyAtMC4zLC0wLjcyIC0wLjksLTEuMDggLTEuNTYsLTEuMDggLTAuNzIsMCAtMS4zMiwwLjM2IC0xLjYyLDEuMDggbCAtMTEuMDMsMjcuMTUgaCAzLjc4IGwgNC4zNywtMTEuMTUgMTMsMTAuNzMgYyAwLjU0LDAuNDggMC45LDAuNjYgMS40NCwwLjY2IDAuOTYsMCAxLjg2LC0wLjc4IDEuODYsLTEuODYgMC4wMSwtMC4xOCAtMC4xMSwtMC40MiAtMC4yMywtMC43OCIgY2xpcC1wYXRoPSJ1cmwoI1NWR0lEXzZfKSIgaWQ9InBhdGgyOTk0NSIgaW5rc2NhcGU6Y29ubmVjdG9yLWN1cnZhdHVyZT0iMCIvPiYjeGE7CTwvZz4mI3hhOzwvZz4mI3hhOzwvc3ZnPg==;" vertex="1" parent="ul5Ljdfapj6bAUza6q9H-13">
          <mxGeometry x="8" width="44" height="46" as="geometry" />
        </mxCell>
        <mxCell id="ul5Ljdfapj6bAUza6q9H-12" value="Ansible" style="text;html=1;strokeColor=none;fillColor=none;align=center;verticalAlign=middle;whiteSpace=wrap;rounded=0;" vertex="1" parent="ul5Ljdfapj6bAUza6q9H-13">
          <mxGeometry y="51.5" width="60" height="30" as="geometry" />
        </mxCell>
        <mxCell id="ul5Ljdfapj6bAUza6q9H-14" value="" style="group" vertex="1" connectable="0" parent="1">
          <mxGeometry x="831.5" y="539" width="76.5" height="135.5" as="geometry" />
        </mxCell>
        <mxCell id="ul5Ljdfapj6bAUza6q9H-1" value="" style="outlineConnect=0;dashed=0;verticalLabelPosition=bottom;verticalAlign=top;align=center;html=1;shape=mxgraph.aws3.ec2;fillColor=#F58534;gradientColor=none;" vertex="1" parent="ul5Ljdfapj6bAUza6q9H-14">
          <mxGeometry width="76.5" height="93" as="geometry" />
        </mxCell>
        <mxCell id="ul5Ljdfapj6bAUza6q9H-9" value="EC2 Instances" style="text;html=1;strokeColor=none;fillColor=none;align=center;verticalAlign=middle;whiteSpace=wrap;rounded=0;container=1;" vertex="1" parent="ul5Ljdfapj6bAUza6q9H-14">
          <mxGeometry x="8.25" y="105.5" width="60" height="30" as="geometry">
            <mxRectangle x="839.75" y="644.5" width="60" height="30" as="alternateBounds" />
          </mxGeometry>
        </mxCell>
        <mxCell id="RLjyjs_sm2IHfBNOWAbh-7" value="4" style="ellipse;whiteSpace=wrap;html=1;aspect=fixed;fillColor=#4D9900;strokeColor=none;labelBackgroundColor=none;" parent="1" vertex="1">
          <mxGeometry x="653" y="545.5" width="23" height="23" as="geometry" />
        </mxCell>
        <mxCell id="ul5Ljdfapj6bAUza6q9H-18" value="" style="edgeStyle=elbowEdgeStyle;rounded=0;orthogonalLoop=1;jettySize=auto;elbow=vertical;html=1;strokeColor=#000000;exitX=1;exitY=0.5;exitDx=0;exitDy=0;endArrow=none;" edge="1" parent="1" source="ul5Ljdfapj6bAUza6q9H-11" target="RLjyjs_sm2IHfBNOWAbh-7">
          <mxGeometry relative="1" as="geometry">
            <mxPoint x="600" y="443.5" as="sourcePoint" />
            <mxPoint x="830" y="560" as="targetPoint" />
            <Array as="points">
              <mxPoint x="620" y="421" />
              <mxPoint x="650" y="421" />
            </Array>
          </mxGeometry>
        </mxCell>
        <mxCell id="ul5Ljdfapj6bAUza6q9H-19" value="1" style="ellipse;whiteSpace=wrap;html=1;aspect=fixed;fillColor=#4D9900;strokeColor=none;labelBackgroundColor=none;" vertex="1" parent="1">
          <mxGeometry x="588.5" y="579.5" width="23" height="23" as="geometry" />
        </mxCell>
        <mxCell id="ul5Ljdfapj6bAUza6q9H-20" value="" style="edgeStyle=elbowEdgeStyle;rounded=0;orthogonalLoop=1;jettySize=auto;elbow=vertical;html=1;strokeColor=#000000;endArrow=none;" edge="1" parent="1" source="AcxdMaKK0mU5kZiv2lnr-33" target="ul5Ljdfapj6bAUza6q9H-19">
          <mxGeometry relative="1" as="geometry">
            <mxPoint x="397.5" y="590" as="sourcePoint" />
            <mxPoint x="830" y="590" as="targetPoint" />
            <Array as="points" />
          </mxGeometry>
        </mxCell>
        <mxCell id="ul5Ljdfapj6bAUza6q9H-21" value="" style="shape=image;verticalLabelPosition=bottom;labelBackgroundColor=#ffffff;verticalAlign=top;aspect=fixed;imageAspect=0;image=data:image/svg+xml,PHN2ZyB4bWxuczpkYz0iaHR0cDovL3B1cmwub3JnL2RjL2VsZW1lbnRzLzEuMS8iIHhtbG5zOmNjPSJodHRwOi8vY3JlYXRpdmVjb21tb25zLm9yZy9ucyMiIHhtbG5zOnJkZj0iaHR0cDovL3d3dy53My5vcmcvMTk5OS8wMi8yMi1yZGYtc3ludGF4LW5zIyIgeG1sbnM6c3ZnPSJodHRwOi8vd3d3LnczLm9yZy8yMDAwL3N2ZyIgeG1sbnM9Imh0dHA6Ly93d3cudzMub3JnLzIwMDAvc3ZnIiB4bWxuczpzb2RpcG9kaT0iaHR0cDovL3NvZGlwb2RpLnNvdXJjZWZvcmdlLm5ldC9EVEQvc29kaXBvZGktMC5kdGQiIHhtbG5zOmlua3NjYXBlPSJodHRwOi8vd3d3Lmlua3NjYXBlLm9yZy9uYW1lc3BhY2VzL2lua3NjYXBlIiB2ZXJzaW9uPSIxLjEiIGlkPSJzdmc0NDI4IiBpbmtzY2FwZTp2ZXJzaW9uPSIwLjkyLjMgKDI0MDU1NDYsIDIwMTgtMDMtMTEpIiBzb2RpcG9kaTpkb2NuYW1lPSJkb2NrZXJfc3dhcm0uc3ZnIiB4PSIwcHgiIHk9IjBweCIgdmlld0JveD0iMCAwIDYzLjk0IDQ2LjMzIiBzdHlsZT0iZW5hYmxlLWJhY2tncm91bmQ6bmV3IDAgMCA2My45NCA0Ni4zMzsiIHhtbDpzcGFjZT0icHJlc2VydmUiPjxtZXRhZGF0YSBpZD0ibWV0YWRhdGE4MzgiPjxyZGY6UkRGPjxjYzpXb3JrIHJkZjphYm91dD0iIj48ZGM6Zm9ybWF0PmltYWdlL3N2Zyt4bWw8L2RjOmZvcm1hdD48ZGM6dHlwZSByZGY6cmVzb3VyY2U9Imh0dHA6Ly9wdXJsLm9yZy9kYy9kY21pdHlwZS9TdGlsbEltYWdlIi8+PC9jYzpXb3JrPjwvcmRmOlJERj48L21ldGFkYXRhPjxkZWZzIGlkPSJkZWZzODM2Ij4mI3hhOwkmI3hhOzwvZGVmcz4mI3hhOzxzb2RpcG9kaTpuYW1lZHZpZXcgYm9yZGVyY29sb3I9IiM2NjY2NjYiIGJvcmRlcm9wYWNpdHk9IjEiIGZpdC1tYXJnaW4tYm90dG9tPSIwIiBmaXQtbWFyZ2luLWxlZnQ9IjAiIGZpdC1tYXJnaW4tcmlnaHQ9IjAiIGZpdC1tYXJnaW4tdG9wPSIwIiBncmlkdG9sZXJhbmNlPSIxMCIgZ3VpZGV0b2xlcmFuY2U9IjEwIiBpZD0ibmFtZWR2aWV3NDQzMCIgaW5rc2NhcGU6Y3VycmVudC1sYXllcj0ic3ZnNDQyOCIgaW5rc2NhcGU6Y3g9IjM1LjEwNTcxNyIgaW5rc2NhcGU6Y3k9IjIyLjA5MDEzNCIgaW5rc2NhcGU6cGFnZW9wYWNpdHk9IjAiIGlua3NjYXBlOnBhZ2VzaGFkb3c9IjIiIGlua3NjYXBlOndpbmRvdy1oZWlnaHQ9IjEwMTciIGlua3NjYXBlOndpbmRvdy1tYXhpbWl6ZWQ9IjEiIGlua3NjYXBlOndpbmRvdy13aWR0aD0iMTkyMCIgaW5rc2NhcGU6d2luZG93LXg9Ii04IiBpbmtzY2FwZTp3aW5kb3cteT0iLTgiIGlua3NjYXBlOnpvb209IjEyLjQyNjM1MyIgb2JqZWN0dG9sZXJhbmNlPSIxMCIgcGFnZWNvbG9yPSIjZmZmZmZmIiBzaG93Z3JpZD0iZmFsc2UiPiYjeGE7CTwvc29kaXBvZGk6bmFtZWR2aWV3PiYjeGE7JiN4YTs8cGF0aCBpZD0icGF0aDQ0MjMiIGlua3NjYXBlOmNvbm5lY3Rvci1jdXJ2YXR1cmU9IjAiIHN0eWxlPSJmaWxsOiMzRjU3NjU7IiBkPSJNMzMuOCw0Ni4yM2MtMi4wMy0wLjE1LTUuMDEtMC44Ny02LjU3LTEuNTkgIGMtMS4wNy0wLjQ5LTEuNzItMC45NC0yLjU5LTEuNzlsLTAuNzMtMC43MWwtMC45OCwwLjEzYy0zLjg1LDAuNTMtOC40Mi0wLjEzLTExLjU3LTEuNjVjLTIuNTUtMS4yNC00LjMxLTMuNjgtNS4wNi03LjAyICBjLTAuMzMtMS40NS0wLjI3LTEuNzksMC40NS0yLjQ0YzAuMjktMC4yNiwwLjk4LTAuNywxLjU1LTAuOThjMC41Ny0wLjI3LDEuMDMtMC41NCwxLjAzLTAuNTljMC0wLjA0LTAuMTQtMC4xNy0wLjMtMC4yOCAgYy0wLjU2LTAuMzYtMS43LTEuNTMtMi4yMS0yLjI1Yy0wLjU1LTAuNzktMS4yNi0yLjIyLTEuNDUtMi45NGMtMC4xNi0wLjU5LTAuMjYtMC42Ny0xLjE1LTAuODFjLTAuOTQtMC4xNS0yLjE2LTAuMDEtMy4yMywwLjM4ICBjLTAuOTIsMC4zMy0xLjEyLDAuMzYtMC45MiwwLjEyQzAuMywyMy41MywxLjg2LDIzLDIuODQsMjIuODZjMC42Ni0wLjA5LDEuMDktMC4xLDEuNDUtMC4wMmMwLjI5LDAuMDYsMC41NCwwLjA4LDAuNTcsMC4wNCAgYzAuMDItMC4wNC0wLjAxLTAuMzMtMC4wNy0wLjY0Yy0wLjE2LTAuNzgtMC4wNS0xLjI2LDAuMzktMS43YzAuNDUtMC40NiwxLjUzLTEuMSwyLjUyLTEuNTFjMC43MS0wLjI4LDAuNzUtMC4zMiwwLjc1LTAuNjYgIGMwLTAuMTktMC4wNS0wLjM1LTAuMS0wLjM1cy0wLjU3LDAuMjItMS4xNSwwLjQ5Yy0xLjI3LDAuNi0yLjE2LDAuODMtMy4yNywwLjgzYy0xLjE1LDAuMDEtMi4wOSwwLjE2LTIuNjUsMC40MyAgYy0wLjUxLDAuMjUtMC43MiwwLjIyLTAuMzgtMC4wNGMwLjQzLTAuMzMsMS40Ni0wLjYzLDIuNDgtMC43NGMxLjYzLTAuMTcsMi4zNS0wLjM3LDMuNzMtMS4wNWMwLjcxLTAuMzUsMS4zMS0wLjY2LDEuMzQtMC42OCAgczAuMDUtMC45MSwwLjA1LTEuOTh2LTEuOTVsMC45NC0wLjEzYzAuNTItMC4wNywxLjY5LTAuMTcsMi42Mi0wLjIxbDEuNjgtMC4wOFY5Ljk4YzAtMS42MSwwLjA1LTMsMC4xLTMuMDggIGMwLjE1LTAuMjMsMi41My0wLjM3LDUuODgtMC4zM2MyLjgsMC4wMywyLjk2LDAuMDMsMy4wMi0wLjE3YzAuMDMtMC4xMSwwLjAzLTEuNTMtMC4wMS0zLjE2Yy0wLjA1LTEuODItMC4wNC0yLjk3LDAuMDItMy4wMSAgYzAuMDYtMC4wNCwxLjA3LTAuMTIsMi4yNS0wLjE4YzIuMjgtMC4xMywxMi42LDAsMTcuOTUsMC4yMmMyLjcsMC4xMiw2Ljg1LDAuNDgsNy4wOCwwLjYyYzAuMDYsMC4wNCwwLjA4LDAuMjYsMC4wNSwwLjUyICBjLTAuMDQsMC4yNS0wLjEyLDEuMDgtMC4xOCwxLjgzQzQ5Ljg0LDQsNDkuNzUsNS4yMiw0OS42OSw1Ljk1Yy0wLjE3LDEuOTYtMC4zNiw1LjM2LTAuMzEsNS40MWMwLjAyLDAuMDIsMC40MiwwLjE0LDAuODgsMC4yNiAgYzEuMDcsMC4yNywxLjY1LDAuNTcsMi4wMywxLjA1YzAuMjEsMC4yNiwwLjQsMC4zOSwwLjYsMC4zOWMwLjQ5LDAsMC41NSwwLjE4LDAuNTEsMS43N2wtMC4wMywxLjQ3bDAuNDQsMC4wOCAgYzAuNjksMC4xMSwwLjc1LTAuMDEsMC42OS0xLjE3Yy0wLjAzLTAuNTUtMC4xMi0xLjQ2LTAuMTktMi4wM2MtMC4xNS0xLjIyLTAuMDQtMi4xNSwwLjM3LTMuMDRjMC4zLTAuNjYsMS4xOS0xLjYsMS41LTEuNiAgYzAuMzgsMCwxLjI3LDAuOTQsMS43MiwxLjgyYzAuMzgsMC43NiwwLjQzLDAuOTMsMC40MywxLjY5YzAsMC43Mi0wLjA1LDAuOTUtMC4zNiwxLjZjLTAuMTksMC40Mi0wLjM5LDAuNzMtMC40MywwLjY5ICBjLTAuMDMtMC4wMywwLjAyLTAuMzgsMC4xMy0wLjc2YzAuMjItMC43OSwwLjI1LTEuOCwwLjA3LTIuNDhjLTAuMTQtMC41MS0xLjEzLTIuMDYtMS4zOC0yLjE2Yy0wLjIyLTAuMDktMC44NSwwLjYzLTEuMjMsMS40MiAgYy0wLjMsMC42MS0wLjMyLDAuNzQtMC4zMiwxLjk4YzAsMC43MywwLjA0LDEuNzcsMC4wOSwyLjMzYzAuMTUsMS41MywwLDIuMDEtMC45LDIuOWwtMC43MywwLjcxbC0wLjA0LDEuMyAgYy0wLjA0LDEuMS0wLjA4LDEuMzMtMC4yNCwxLjQxYy0wLjE3LDAuMDktMy44NCwwLjYzLTEwLjkyLDEuNTljLTEuNTQsMC4yMi00LjM3LDAuNjItNi4yOCwwLjlsLTMuNDcsMC41MWwtMS43Mi0wLjEzbC0xLjcyLTAuMTIgIGwtMS4xNCwwLjQzYy0wLjYzLDAuMjMtMS4xNiwwLjQ4LTEuMTksMC41NWMtMC4wNiwwLjE4LDAuNTQsMC41MSwxLjU2LDAuODVjMS41OCwwLjUyLDMuMTUsMC4zNyw1LjY0LTAuNTYgIGMxLjQyLTAuNTMsMi41My0wLjgyLDMuNTYtMC45NWMxLjIzLTAuMTUsMS44OC0wLjA3LDQuNDgsMC41N2MyLjkyLDAuNzEsMy45OCwwLjgxLDUuNDMsMC41YzEuMjgtMC4yNywyLjI0LTAuNzMsNC40MS0yLjEzICBjMS42MS0xLjA1LDIuNzktMS42LDMuNjktMS43MmMwLjU5LTAuMDksMC41Ny0wLjA2LDAuNzYtMS4zM2MwLjE5LTEuMzgsMC4yOS0xLjY2LDAuNzEtMi4wM2MwLjQ5LTAuNDMsMS4yMi0wLjY0LDIuNzYtMC43OCAgYzEuNjQtMC4xNiwyLjMzLTAuMzEsMi45Mi0wLjYzYzAuNzEtMC4zOSwxLjI2LTAuODYsMS4xNi0xLjAxYy0wLjE0LTAuMjMtMS40Mi0wLjgyLTIuMS0wLjk3Yy0xLjMzLTAuMjktMy4xNi0wLjEtMy45OSwwLjQxICBjLTAuMjgsMC4xNy0wLjM2LDAuMTktMC4zNiwwLjA4YzAtMC4yNCwwLjI4LTAuNTgsMC4zNy0wLjQ1YzAuMDUsMC4wOCwwLjMsMC4wMiwwLjc2LTAuMTdjMC42Mi0wLjI3LDAuODEtMC4zLDIuMDYtMC4yOSAgYzEuNjEsMCwyLjM4LDAuMjMsMy4xMywwLjkzbDAuNDQsMC40MWwtMC4zLDAuNTJjLTAuMzUsMC41OS0xLjA1LDEuMDktMS44NywxLjMzYy0wLjI5LDAuMDktMS4xOSwwLjIyLTEuOTgsMC4yOSAgYy0xLjQ4LDAuMTMtMS45NSwwLjIzLTEuOTUsMC40MmMwLDAuMTcsMS4xMywwLjc2LDEuODIsMC45NGMwLjM5LDAuMSwxLjEzLDAuMTcsMS44NywwLjE3YzAuNjcsMCwxLjI5LDAuMDUsMS4zOCwwLjExICBjMC4xMiwwLjA4LDAuMDMsMC4xMS0wLjMzLDAuMWMtMC4yNy0wLjAxLTEuMDIsMC4wMi0xLjY3LDAuMDZjLTEuMzUsMC4xLTEuOTgtMC4wNC0zLjA0LTAuNjhjLTEtMC42LTEuMzEtMC4zLTEuMzcsMS4zNWwtMC4wNCwwLjk5ICBsMC43MiwwLjA3YzAuMzksMC4wNSwxLjgsMC4zNiwzLjEzLDAuNjljMS4zMywwLjM0LDIuNTIsMC42MiwyLjY0LDAuNjJzMC4xOCwwLjAzLDAuMTQsMC4wN2MtMC4xNSwwLjE1LTEuNzUsMC4wMi0zLjMyLTAuMjUgIGMtMi4wOC0wLjM3LTMuMjctMC40OS0zLjQ1LTAuMzVjLTAuMTcsMC4xNC0wLjE4LDAuODYtMC4wMSwwLjg2YzAuMDcsMCwwLjMyLTAuMDYsMC41NS0wLjEzYzAuNTMtMC4xNiwwLjczLTAuMDEsMS4xLDAuODIgIGMwLjIyLDAuNDksMC4yNiwwLjc2LDAuMjYsMS43OWMwLDEuMS0wLjAyLDEuMjYtMC4yOSwxLjc3Yy0wLjE3LDAuMzEtMC41NywwLjgxLTAuOTEsMS4xMmMtMC4zMywwLjMtMC41NywwLjU4LTAuNTQsMC42MiAgYzAuMDQsMC4wNCwwLjM1LDAuMDcsMC42OSwwLjA3YzEuNjgsMCwzLjg0LDEuMjQsNC41MSwyLjU5YzAuMjUsMC40OSwwLjI1LDAuNTIsMC4wNywwLjcyYy0wLjExLDAuMTItMC40NSwwLjM0LTAuNzUsMC40OSAgYy0wLjk3LDAuNDgtMS44NSwwLjQtNC41OS0wLjQzYy0xLjAxLTAuMzEtMS44NS0wLjM2LTIuMTEtMC4xNGMtMC40OCwwLjQtMS40MiwyLjExLTIuMzYsNC4zM2MtMC42NCwxLjQ3LTEuMjcsMi41LTIuMzYsMy44MiAgYy0xLjU2LDEuODgtMy41NSwzLjM0LTYuMDIsNC40M2MtMi4xOCwwLjk1LTMuOTMsMS40MS02LjE3LDEuNkMzNS45NCw0Ni4zNiwzNS41Miw0Ni4zNiwzMy44LDQ2LjIzTDMzLjgsNDYuMjN6IE0zNy43OCw0NS41NyAgYzEuOTQtMC4yMSwzLjg5LTAuODMsNi4xMS0xLjkyYzEuODItMC44OSwyLjg0LTEuNjEsNC4xOS0yLjk3YzEuNTYtMS41NywyLjMtMi42NywzLjgtNS43MmMwLjY2LTEuMzUsMS4zOC0yLjY1LDEuNi0yLjkxICBjMC43Mi0wLjg0LDEuNjItMC44OSwzLjg2LTAuMmMxLjYzLDAuNSwyLjY0LDAuNiwzLjUxLDAuMzRjMC4zNC0wLjEsMC42My0wLjIyLDAuNjMtMC4yN2MwLTAuMi0wLjctMS4wMi0xLjIxLTEuNDMgIGMtMS4xMi0wLjg4LTIuNTctMS4zOC0zLjg2LTEuMzNjLTAuMzcsMC4wMi0wLjcsMC0wLjc0LTAuMDRjLTAuMDMtMC4wNCwwLjI1LTAuNDEsMC42My0wLjgyYzAuODItMC44OSwxLjMyLTEuODcsMS4zOS0yLjc2ICBjMC4wNi0wLjY1LTAuMi0yLjE4LTAuNC0yLjM4Yy0wLjEzLTAuMTMtMC45LDAuMTktMS4xNCwwLjQ3Yy0wLjA5LDAuMDktMC4xOSwwLjMyLTAuMjMsMC41MWMtMC4xNiwwLjcyLTAuNzUsMi4zOS0xLjA4LDMuMDUgIGMtMS4xMywyLjMtMy4yMiw0LjY0LTUuMzgsNi4wMmMtMy4xMywyLjAxLTYuODIsMy4xMS0xMC40NywzLjExYy0yLjQzLDAtNC4xNC0wLjI2LTcuNjEtMS4xNWMtMy4xOS0wLjgyLTQuODEtMS4wNC02LjI4LTAuODUgIGMtMS40OCwwLjE4LTIuOTksMC45NS0zLjA4LDEuNTZjLTAuMDQsMC4zMiwwLjE0LDEuMiwwLjQ1LDIuMTdjMC4yNSwwLjc5LDAuNDYsMSwxLjc4LDEuNzhjMi45NiwxLjc0LDYuMTgsMi4xNCwxMC40MSwxLjI4ICBjMC43Ni0wLjE1LDEuNC0wLjI2LDEuNDMtMC4yM2MwLjE2LDAuMTYtMi4xNSwwLjg0LTMuNjQsMS4wN2MtMS4yMiwwLjE5LTMuNjQsMC4wOC00LjgyLTAuMjJjLTEuMi0wLjMxLTMuMjUtMS4zMS0zLjk1LTEuOTUgIGMtMC41MS0wLjQ2LTAuNzktMC42LTAuNzktMC40YzAsMC4xOCwwLjkxLDEuNjIsMS40NSwyLjNjMS4xMiwxLjQxLDIuNTksMi4zMyw0Ljc4LDNDMzEuOTIsNDUuNTQsMzUuMDcsNDUuODYsMzcuNzgsNDUuNTd6ICAgTTM3LjY2LDQxLjg2Yy0wLjQ2LTAuMTctMC45OS0wLjkxLTAuOTktMS4zOGMwLjAxLTAuNDcsMC40Mi0xLjE3LDAuODktMS41MWMwLjkyLTAuNjcsMi4wOS0wLjM4LDIuNjEsMC42NSAgYzAuNTgsMS4xNi0wLjMxLDIuMzMtMS43NiwyLjMxQzM4LjA5LDQxLjkzLDM3Ljc1LDQxLjg5LDM3LjY2LDQxLjg2eiBNMzkuMzgsNDEuMjhjMC42MS0wLjM5LDAuNzgtMS4xOSwwLjM4LTEuODUgIGMtMC4yNi0wLjQyLTAuNzMtMC41Mi0wLjYxLTAuMTNjMC4yNywwLjgzLTEuMDEsMS41Ni0xLjczLDAuOTljLTAuNDQtMC4zNC0wLjU2LTAuMDUtMC4yNCwwLjZDMzcuNSw0MS41OSwzOC41Nyw0MS43NywzOS4zOCw0MS4yOHogICBNMjIuMzYsNDEuNjRjMC41NC0wLjEsMC45Ni0wLjIxLDAuOTQtMC4yNWMtMC4wMS0wLjAzLTAuMjMtMC40NS0wLjQ4LTAuOTRjLTAuMjUtMC40OC0wLjUxLTEuMDctMC41OC0xLjI5ICBjLTAuMTctMC41My0wLjI3LTAuNTgtMC42Mi0wLjM1Yy0wLjM5LDAuMjYtMS40MywwLjI2LTEuOSwwYy0wLjQ0LTAuMjItMC44LTAuNzctMC44LTEuMmMwLTEuMSwxLjAyLTIuMDMsMi4xMi0xLjkzICBjMC41LDAuMDUsMC41NSwwLjAzLDAuNy0wLjI2bDAuMTYtMC4zMWwtMC44LTAuNjNjLTEuMDUtMC44NS0yLjczLTEuOTYtMy41Ni0yLjM1Yy0wLjQzLTAuMjEtMS4xMi0wLjQtMS45OC0wLjU0ICBjLTEuNzQtMC4zLTMuMTctMC42Ny00LjUxLTEuMTdsLTEuMDktMC40MWwtMC42NywwLjI1Yy0wLjk0LDAuMzQtMi4wNiwwLjkxLTIuNDksMS4yOGMtMC4zNSwwLjI5LTAuMzYsMC4zMi0wLjMsMC45MSAgYzAuMDMsMC4zNCwwLjE4LDEuMDIsMC4zNCwxLjUyYzAuMjcsMC44MywwLjM1LDAuOTUsMC45NywxLjVjMS4yMSwxLjA5LDMuMTgsMiw0Ljg3LDIuMjhjMC44NSwwLjE0LDMuNSwwLjE0LDQuNTgsMCAgYzAuNDUtMC4wNiwwLjg3LTAuMDcsMC45Mi0wLjAyYzAuMTksMC4xOS0wLjI0LDAuMzUtMS40MiwwLjUzYy0zLjI2LDAuNDktNi41LTAuMjYtOC41Ni0xLjk3Yy0wLjM2LTAuMy0wLjYzLTAuNDctMC42My0wLjM4ICBjMCwwLjIxLDAuNzMsMS4zMywxLjQyLDIuMTVjMS4wMywxLjI0LDIuMzEsMi4wNCw0LjI1LDIuNjZDMTYuMzQsNDEuNzIsMjAuMDMsNDIuMDksMjIuMzYsNDEuNjR6IE0yMS42MSwzOC4zNiAgYzAuMTUtMC4xLDAuMjktMC4yNSwwLjMyLTAuMzJjMC4wOS0wLjI0LTAuMjktMS44Ny0wLjQ1LTEuOTJjLTAuMS0wLjAzLTAuMTIsMC4wMy0wLjA3LDAuMjNjMC4wOCwwLjMyLTAuMTksMC45LTAuNSwxLjA3ICBjLTAuMzYsMC4xOS0xLjA1LDAuMTMtMS4yNy0wLjExYy0wLjM4LTAuNDItMC41MywwLjA2LTAuMjIsMC42N2MwLjEsMC4xOSwwLjM0LDAuNDEsMC41MywwLjVDMjAuMzcsMzguNjcsMjEuMjIsMzguNjEsMjEuNjEsMzguMzZ6ICAgTTQwLjY2LDM1LjU0YzIuNDQtMC4yNSwzLjc1LTAuNjIsNS45Ny0xLjcxYzIuMjUtMS4wOSwzLjIyLTEuNzUsNC42LTMuMTNjMi4xOC0yLjE4LDMuNTEtNC41Miw0LjE5LTcuMzMgIGMwLjEyLTAuNDksMC4yMS0xLDAuMjEtMS4xNWMwLTAuMjMtMC4wMy0wLjI0LTAuMzYtMC4xOGMtMC43NCwwLjE2LTEuNjIsMC42LTMuMTcsMS41OWMtMy4xMywyLTQuMTgsMi4zOC02LjU1LDIuMzggIGMtMS40NywwLTEuNjUtMC4wMy0zLjU5LTAuNTJjLTMuOTgtMS00LjQzLTAuOTgtOC42LDAuNDVjLTEuODcsMC42NC0yLjg5LDAuODEtNC4xMywwLjY3Yy0xLjA1LTAuMTEtMS43LTAuMzItMi44LTAuOSAgYy0wLjc4LTAuNDItMC44MS0wLjQyLTEuMDMtMC4yM2MtMC4xOCwwLjE2LTAuMjEsMC4yOS0wLjE2LDAuNzVjMC4wOCwwLjc5LDAuNTksMi4zMiwwLjg4LDIuNjRjMC4zNiwwLjM5LDIuMTcsMS40NCwzLjE1LDEuODEgIGMxLjUzLDAuNTksMi40NywwLjczLDQuODcsMC43MmMxLjg4LDAsMi4zMi0wLjA0LDMuNTUtMC4zYzEuNTQtMC4zMiwxLjcyLTAuMzUsMS41Ny0wLjE5Yy0wLjIsMC4xOC0yLjMsMC43Ni0zLjQ2LDAuOTUgIGMtMi4wOSwwLjM0LTQuNjUsMC4wNy02LjQzLTAuNjhjLTAuOTItMC4zOS0yLjA2LTEuMDctMi42Ni0xLjU5Yy0wLjc5LTAuNy0wLjc2LTAuMzIsMC4wOCwwLjk4YzEuNCwyLjE1LDIuODQsMy4yMSw1LjQ3LDQuMDIgIEMzNS4wOSwzNS40NywzOC4wNSwzNS44LDQwLjY2LDM1LjU0eiBNNDAuOCwzMS43NWMtMC43NS0wLjMyLTEuMDgtMS4xNS0wLjc3LTEuODljMC42Mi0xLjQ5LDIuMzYtMS43MywzLjMtMC40NSAgYzAuMzIsMC40MiwwLjMsMS4yNC0wLjAzLDEuN0M0Mi44MiwzMS43OSw0MS42MSwzMi4xLDQwLjgsMzEuNzV6IE00Mi43NSwzMS4wNGMwLjM3LTAuMzcsMC40My0wLjUsMC40My0wLjkzICBjMC0wLjQtMC4wNy0wLjU2LTAuMzMtMC44NWMtMC4zOC0wLjQtMC41NC0wLjM3LTAuNDcsMC4xMWMwLjA0LDAuMjctMC4wMywwLjQtMC4zNCwwLjcyYy0wLjQ2LDAuNDUtMC44OSwwLjUtMS4zNCwwLjE1ICBjLTAuNjItMC40OS0wLjY2LDAuNDMtMC4wNCwwLjk1YzAuMjcsMC4yMywwLjQ0LDAuMjgsMC45OSwwLjI4QzQyLjI4LDMxLjQ3LDQyLjM0LDMxLjQ0LDQyLjc1LDMxLjA0eiBNMjcsMzIuODggIGMwLjUzLTAuMTYsMC42Mi0wLjM1LDAuMzMtMC42OGMtMC40MS0wLjQ1LTEuMTYtMS42NC0xLjQ4LTIuMzRjLTAuMTctMC4zOS0wLjM4LTAuNzEtMC40Ni0wLjcxcy0wLjY2LDAuMDgtMS4zLDAuMTggIGMtMy4wNiwwLjQ2LTYuNjgtMC40OC04LjcyLTIuMjdjLTAuMjgtMC4yNC0wLjU0LTAuNDQtMC41Ny0wLjQ0Yy0wLjE2LDAtMC4wNCwwLjM2LDAuMzEsMC45NmMxLjMxLDIuMjMsMy4wNCwzLjYyLDUuNDcsNC4zOCAgQzIzLjIxLDMyLjc5LDI1Ljk4LDMzLjE4LDI3LDMyLjg4eiBNMTcuMTYsMzAuOTdjMC0wLjAzLTAuMzEtMC4zNi0wLjY5LTAuNzRjLTAuNTktMC41OS0xLjA5LTEuMjgtMS44LTIuNDcgIGMtMC4xMy0wLjIxLTAuMjctMC4yNC0xLjUtMC4yOWMtMS42Ni0wLjA3LTIuODYtMC4zNi00LjI2LTEuMDNjLTEuMDUtMC40OS0yLjQ1LTEuNC0yLjQ1LTEuNTljMC0wLjA2LTAuMDctMC4xMS0wLjE3LTAuMTEgIGMtMC4yNiwwLTAuMTEsMC4zNiwwLjU3LDEuMzljMS40LDIuMTIsMi43MSwzLjExLDUuMTcsMy45YzEuMDcsMC4zNCwzLjE0LDAuODMsMy45MiwwLjkyQzE2LjU2LDMxLjAyLDE3LjE2LDMxLjAzLDE3LjE2LDMwLjk3eiAgIE0yNC4zLDI4LjgzYzAuNDUtMC4wNSwwLjg0LTAuMTMsMC44OC0wLjE2YzAuMDMtMC4wNC0wLjA3LTAuNjctMC4yNC0xLjRjLTAuMy0xLjMxLTAuMzEtMS4zMy0wLjg3LTEuODggIGMtMS4wNC0xLjAxLTMuMS0yLjA4LTQuMzItMi4yNGMtMC4zMS0wLjA0LTAuOC0wLjAyLTEuMDksMC4wNWMtMC43NSwwLjE2LTIuNDgsMC44Mi0zLjU3LDEuMzZjLTAuOSwwLjQzLTAuOTIsMC40NS0wLjg1LDAuNzggIGMwLjE3LDAuODEsMC44MiwxLjM5LDIuNTksMi4zMUMxOC44NSwyOC43LDIxLjYyLDI5LjE0LDI0LjMsMjguODN6IE0xNC4wOSwyN2MwLjA3LTAuMDctMC4zNy0xLjU1LTAuNDktMS42NiAgYy0wLjA0LTAuMDQtMC4zOCwwLjAzLTAuNzYsMC4xNmMtMS44MSwwLjU5LTMuMDMsMC40MS01LjM1LTAuNzhjLTAuODItMC40Mi0xLjUxLTAuNzQtMS41NC0wLjcxYy0wLjE0LDAuMTQsMC4zNiwwLjU3LDEuMzUsMS4xOCAgYzEuMjQsMC43NSwyLjM2LDEuMjEsMy42LDEuNDhDMTIuMTEsMjYuOTQsMTMuOTcsMjcuMTMsMTQuMDksMjd6IE0xMi43OCwyNC43NGwwLjY0LTAuMjVsLTAuMDctMC41N2MtMC4wOC0wLjY3LDAuMDMtMS4wMSwwLjUtMS40OCAgYzAuMi0wLjIsMC4zNC0wLjM3LDAuMzItMC4zOWMtMC4wMy0wLjAyLTAuOTktMC4xNS0yLjE0LTAuMjhjLTMuMzQtMC4zOC0zLjI1LTAuMzUtMy4yNS0xLjE0YzAtMC42NS0wLjEyLTEuMjktMC4yNC0xLjI5ICBjLTAuMjgsMC0xLjkyLDAuNzItMi41MSwxLjFjLTAuODYsMC41Ni0wLjk3LDAuOC0wLjc5LDEuNjljMC4yMSwxLjA0LDAuMywxLjE1LDEuMjgsMS41OGMxLjQyLDAuNjIsMi41LDEuMDUsMy4wMywxLjIxICBDMTAuMywyNS4xNCwxMS45OSwyNS4wNSwxMi43OCwyNC43NHogTTI2LjY5LDI0LjA2YzAuNC0wLjIsMC43Mi0wLjM5LDAuNzItMC40M2MwLTAuMDktMi44Ni0wLjQ3LTMuMTQtMC40MiAgYy0wLjE0LDAuMDMsMC4wOCwwLjIyLDAuNzMsMC42MmMwLjUxLDAuMzEsMC45MywwLjU3LDAuOTUsMC41OEMyNS45NiwyNC40MSwyNi4zLDI0LjI1LDI2LjY5LDI0LjA2eiBNMTQuNzcsMjMuODUgIGMwLjM3LTAuMTksMC45LTAuNDMsMS4xOC0wLjU0YzAuMjctMC4xMSwwLjc5LTAuMzQsMS4xNS0wLjUxYzAuNjUtMC4zLDAuNjUtMC4zMSwwLjM0LTAuMzljLTAuMTctMC4wNC0wLjc3LTAuMTItMS4zMi0wLjE2ICBjLTEuMS0wLjA4LTEuMzUtMC4wMS0yLjA0LDAuNTdjLTAuMzQsMC4yOS0wLjQ1LDAuNzUtMC4yNywxLjJDMTMuOSwyNC4yNSwxMy45OCwyNC4yNCwxNC43NywyMy44NXogTTMwLjk1LDIxLjMgIGMwLjAxLTEuMTEsMC4wNS0yLjg2LDAuMDktMy44OWMwLjA0LTEuMDMsMC4wNC0xLjkxLDAtMS45NmMtMC4wNy0wLjA5LTEuNzItMC4yMy04LjkyLTAuNzNjLTguMTYtMC41OC0xMS44NC0wLjgyLTEyLjU3LTAuODMgIGwtMC43Mi0wLjAxbDAuMDMsMC4zM2MwLjExLDEuMjYsMC4zNiw1LjQsMC4zNiw1Ljk3YzAsMC4zOCwwLjA1LDAuNzIsMC4xMSwwLjc2YzAuMDYsMC4wMywwLjkxLDAuMTMsMS45LDAuMjIgIGM2Ljg3LDAuNTksMTQuMSwxLjM4LDE4LjExLDEuOThjMC41NSwwLjA4LDEuMTMsMC4xNSwxLjMsMC4xNmwwLjMsMC4wMUwzMC45NSwyMS4zeiBNMTguODUsMjAuNWMtMC4yNC0wLjE3LTAuMjktMC42My0wLjEtMC45MyAgYzAuMDYtMC4xLDAuMDMtMC4yLTAuMDktMC4yOWMtMC4xOS0wLjE0LTAuMjQtMC4zOC0wLjA4LTAuMzhjMC4wNSwwLDAuMTYsMC4wNywwLjIzLDAuMTZjMC4yNCwwLjI5LDAuMzUsMC4xOCwwLjE3LTAuMTYgIGMtMC4wOS0wLjE3LTAuMTctMC40OS0wLjE3LTAuNzFjMC0wLjIxLTAuMDUtMC40MS0wLjExLTAuNDVjLTAuMi0wLjEyLTAuMTEtMC4yNywwLjE2LTAuMjdjMC4xNiwwLDAuMzIsMC4wOSwwLjM5LDAuMjIgIGMwLjA3LDAuMTIsMC4yMiwwLjIyLDAuMzQsMC4yMmMwLjI2LDAsMC4yOC0wLjE0LDAuMDUtMC4zM2MtMC4yLTAuMTctMC4yMi0wLjQ2LTAuMDMtMC42NGMwLjItMC4yMSwwLjMtMC4xNiwwLjMsMC4xNCAgYzAsMC4yOSwwLjMyLDAuNTMsMC42NCwwLjQ3YzAuMTUtMC4wMiwwLjIsMC4wNywwLjI1LDAuNDFjMC4wNiwwLjQ4LDAuMjMsMC41OCwxLjAyLDAuNmMwLjI4LDAsMC40MSwwLjA2LDAuNDEsMC4xNyAgYzAsMC4wOSwwLjA1LDAuMTcsMC4xMSwwLjE3YzAuMjYsMCwwLjA3LDAuMzgtMC40MywwLjg4Yy0wLjM5LDAuMzktMC43LDAuNTgtMS4xMiwwLjcxQzIwLjA1LDIwLjcxLDE5LjE1LDIwLjcxLDE4Ljg1LDIwLjV6ICAgTTE4LjM3LDE4LjM1YzAtMC4wNiwwLjA1LTAuMTEsMC4xMS0wLjExYzAuMDYsMCwwLjExLDAuMDUsMC4xMSwwLjExYzAsMC4wNi0wLjA1LDAuMTEtMC4xMSwwLjExICBDMTguNDIsMTguNDYsMTguMzcsMTguNDEsMTguMzcsMTguMzV6IE01My43NiwxNy4xOWMwLjA4LTAuMSwwLjExLTAuMiwwLjA3LTAuMjRjLTAuMTEtMC4xMS0wLjQsMC4wNi0wLjQsMC4yNCAgQzUzLjQzLDE3LjQsNTMuNTgsMTcuNCw1My43NiwxNy4xOXogTTMyLjg3LDE0Ljc3YzAuNzMtMC4wOSwxLjQyLTAuMTcsMS41NC0wLjE3YzAuMTgtMC4wMSwwLjE5LTAuMDMsMC4wNi0wLjEgIGMtMC4wOS0wLjA1LTAuODEtMC4xMi0xLjYtMC4xNmMtNC43OS0wLjI0LTEwLjExLTAuNTUtMTIuMjQtMC43M2MtNS4xNy0wLjQ0LTcuNzMtMC41LTkuMjYtMC4yM2wtMC40NCwwLjA4bDAuNjEsMC4wNyAgYzAuMzMsMC4wNCwxLjI3LDAuMSwyLjA5LDAuMTNjNC4xMSwwLjE4LDE1Ljg5LDEuMDMsMTYuNjUsMS4yMUMzMC42NSwxNC45NSwzMS42MiwxNC45MiwzMi44NywxNC43N3ogTTM1LjgzLDEzLjU4ICBjMC4wNi0wLjQsMC4yOS00LjYyLDAuMjktNS4zM1Y3Ljc5bC0yLjA3LTAuMDdjLTEuMTMtMC4wNC0zLjAxLTAuMDktNC4xNi0wLjEyYy0xLjE1LTAuMDMtMi41OS0wLjA4LTMuMi0wLjExICBjLTAuNi0wLjAzLTEuOTItMC4wOC0yLjkyLTAuMTFzLTMuNTQtMC4xMS01LjY1LTAuMThjLTIuMTEtMC4wNy0zLjg2LTAuMS0zLjktMC4wN2MtMC4wMywwLjA0LTAuMDIsMS4zMiwwLjAzLDIuODZsMC4xLDIuNzkgIGwwLjk5LDAuMDNjMC41NCwwLjAxLDEuODEsMC4wNywyLjgxLDAuMTNjMSwwLjA3LDQuNjIsMC4yNyw4LjA1LDAuNDVjMy40MiwwLjE5LDYuNjUsMC4zOCw3LjE2LDAuNDNjMC41MiwwLjA1LDEuMjcsMC4wOSwxLjY4LDAuMSAgbDAuNzQsMC4wMkwzNS44MywxMy41OHogTTI0LjMyLDEyLjIzYzAtMC4wOCwwLjEzLTAuMjIsMC4yOC0wLjMyYzAuMzMtMC4yMiwwLjM2LTAuNTEsMC4wNS0wLjU5Yy0wLjI5LTAuMDctMC4yOC0wLjMzLDAuMDMtMC4zOSAgYzAuMjMtMC4wNCwwLjIyLTAuMDUtMC4wOC0wLjEzYy0wLjE4LTAuMDUtMC40Ni0wLjE5LTAuNjItMC4zMWMtMC4yOC0wLjIxLTAuMjktMC4yMS0wLjcsMC4wOGMtMC41LDAuMzQtMC41NywwLjM0LTAuNzIsMC4wNyAgYy0wLjE1LTAuMy0wLjE0LTAuMzcsMC4wNi0wLjNjMC4xOCwwLjA3LDAuNi0wLjEsMC42LTAuMjRjMC0wLjA0LTAuMDUtMC4xNS0wLjEtMC4yM2MtMC4wOS0wLjE0LTAuMTMtMC4xNC0wLjI4LTAuMDIgIGMtMC4xNSwwLjEzLTAuMjIsMC4xMy0wLjQ1LDAuMDFsLTAuMjctMC4xNWwwLjI1LTAuMTdjMC4xMy0wLjEsMC4zMy0wLjE2LDAuNDQtMC4xNGMwLjEyLDAuMDIsMC4yMy0wLjA3LDAuMy0wLjI1ICBjMC4wOC0wLjIxLDAuMTktMC4yOCwwLjQxLTAuMjhjMC4xOSwwLDAuMzktMC4xMSwwLjU1LTAuMzFjMC4yNS0wLjMsMC4yNS0wLjMsMC40Mi0wLjA4YzAuMSwwLjEzLDAuMTUsMC4zMywwLjExLDAuNDcgIGMtMC4wOSwwLjM2LDAuMTIsMC42OSwwLjQ0LDAuNjljMC4yMSwwLDAuMjgsMC4wNiwwLjI4LDAuMjNjMCwwLjQ1LDAuMiwwLjY1LDAuNjcsMC42NWMwLjY1LDAsMC44OS0wLjE2LDAuNzYtMC40OSAgYy0wLjExLTAuMy0wLjAyLTAuNDMsMC4yMS0wLjI5YzAuMDksMC4wNiwwLjEyLDAuMTgsMC4wOCwwLjI4Yy0wLjA1LDAuMTMsMCwwLjIxLDAuMTUsMC4yNWMwLjI5LDAuMDcsMC4yOCwwLjE3LTAuMDMsMC4zMSAgYy0wLjEzLDAuMDYtMC4yNiwwLjIxLTAuMjgsMC4zNWMtMC4wNCwwLjMtMC44LDAuOTktMS4zMywxLjIxQzI1LjAzLDEyLjM2LDI0LjMyLDEyLjQxLDI0LjMyLDEyLjIzeiBNMjUuNTEsMTEuNTMgIGMwLjA0LTAuMS0wLjAzLTAuMTMtMC4yLTAuMTFjLTAuMTQsMC4wMi0wLjI3LDAuMS0wLjMsMC4xOGMtMC4wMywwLjEsMC4wMywwLjE0LDAuMiwwLjExQzI1LjM1LDExLjY5LDI1LjQ5LDExLjYxLDI1LjUxLDExLjUzeiAgIE0yNC4wNyw5LjQ3YzAuMDMtMC4xLDAuMDMtMC4yLTAuMDEtMC4yNGMtMC4wNy0wLjA4LTAuNCwwLjE3LTAuNCwwLjMxQzIzLjY2LDkuNzEsMjQsOS42NSwyNC4wNyw5LjQ3eiBNNTIuMDQsMTIuOTQgIGMwLjE0LTAuMTQtMS40Mi0wLjg2LTIuMDUtMC45NGwtMC41MS0wLjA3bC0wLjA1LDAuNTNjLTAuMDIsMC4zLTAuMDMsMC41Ny0wLjAyLDAuNkM0OS40NiwxMy4xNSw1MS45MywxMy4wNCw1Mi4wNCwxMi45NHogICBNMzMuMiw2Ljk4Yy01Ljk0LTAuMjktOS44Ni0wLjM4LTkuNzEtMC4yNGMwLjA4LDAuMDksNy4yNywwLjMzLDkuOTMsMC4zM2gxLjU0TDMzLjIsNi45OHogTTQ0LjQ0LDUuNyAgYzAuMDgtMS4yOSwwLjI1LTMuMzUsMC4zNS00LjNsMC4wNy0wLjY5aC0zLjE4Yy0zLjUxLDAtNi42OS0wLjA3LTExLjU5LTAuMjNjLTEuNzctMC4wNS00LjA5LTAuMS01LjE3LTAuMWgtMS45NWwwLjA3LDAuNTIgIGMwLjA0LDAuMjksMC4xLDEuNjEsMC4xNCwyLjkzYzAuMDUsMS42LDAuMTIsMi40MiwwLjIsMi40NWMwLjA2LDAuMDIsMy42MSwwLjA5LDcuODksMC4xN2M0LjI3LDAuMDcsOC43MSwwLjE3LDkuODcsMC4yMSAgYzEuMTUsMC4wNCwyLjM1LDAuMDgsMi42NiwwLjA5bDAuNTcsMC4wMkw0NC40NCw1Ljd6IE0zMi40Niw1LjMyYy0wLjAzLTAuMDctMC4xOS0wLjEzLTAuMzYtMC4xNGMtMC4xNywwLTAuMzQtMC4wNy0wLjM2LTAuMTQgIGMtMC4wNS0wLjE1LDAuMDUtMC4xNywwLjk3LTAuMTRjMC40OSwwLjAxLDAuNjUtMC4wMywwLjgxLTAuMjJjMC4yMS0wLjIyLDAuMi0wLjIyLTAuMDgtMC4yMmMtMC4xNiwwLTAuNDEsMC4wNS0wLjU2LDAuMTIgIGMtMC4yMiwwLjEtMC4zNywwLjA5LTAuNzMtMC4wNWMtMC4yNS0wLjEtMC41Ny0wLjE2LTAuNzEtMC4xMmMtMC4yMSwwLjA1LTAuMywwLjAxLTAuNDItMC4yNWMtMC4yNC0wLjQ4LTAuMTQtMC42NSwwLjM4LTAuNjcgIGMwLjI5LTAuMDEsMC41LTAuMDgsMC41Ni0wLjE5YzAuMDgtMC4xNSwwLjEyLTAuMTUsMC4zMS0wLjAxYzAuMTgsMC4xMSwwLjMsMC4xMiwwLjU0LDAuMDNjMC4yMS0wLjA4LDAuMzktMC4wOCwwLjU2LTAuMDEgIGMwLjE5LDAuMDgsMC4zNSwwLjA2LDAuNjctMC4xYzAuNTMtMC4yNiwwLjctMC4yLDAuOCwwLjI3YzAuMDYsMC4yOSwwLjAzLDAuNC0wLjE1LDAuNTNjLTAuMTQsMC4xMS0wLjE5LDAuMjItMC4xMiwwLjMyICBjMC4xMSwwLjE5LDAuNzUsMC4wNywxLjAyLTAuMTljMC4xLTAuMSwwLjI3LTAuMjQsMC4zNi0wLjMyczAuMTctMC4yNCwwLjE3LTAuMzVjMC0wLjI4LDAuMTktMC4zOSwwLjM4LTAuMjMgIGMwLjA5LDAuMDcsMC4yOSwwLjEyLDAuNDYsMC4xYzAuMzctMC4wNSwwLjQ4LDAuMTksMC4xMywwLjI5Yy0wLjY3LDAuMTgtMS4wNywwLjQ1LTEuMTIsMC43NUMzNS45Myw0LjU3LDM1LjgsNC43MiwzNS42LDQuOCAgYy0wLjE3LDAuMDctMC4zOSwwLjE3LTAuNSwwLjIyYy0wLjI2LDAuMTQtMC4zLDAuMTItMC4zLTAuMDhjMC0wLjE5LDAtMC4xOS0xLjQxLDAuMDhDMzIuOTUsNS4xLDMyLjcsNS4yLDMyLjcsNS4zICBDMzIuNyw1LjQ4LDMyLjUyLDUuNSwzMi40Niw1LjMyeiBNMzMuMjUsMi4zNmMwLTAuMDYsMC4wNi0wLjExLDAuMTItMC4xMWMwLjA2LDAsMC4wOSwwLjA1LDAuMDUsMC4xMXMtMC4wOSwwLjExLTAuMTIsMC4xMSAgQzMzLjI4LDIuNDcsMzMuMjUsMi40MiwzMy4yNSwyLjM2eiIvPiYjeGE7PC9zdmc+;" vertex="1" parent="1">
          <mxGeometry x="836" y="297" width="64" height="46" as="geometry" />
        </mxCell>
        <mxCell id="ul5Ljdfapj6bAUza6q9H-22" value="Docker Swarm" style="text;html=1;strokeColor=none;fillColor=none;align=center;verticalAlign=middle;whiteSpace=wrap;rounded=0;" vertex="1" parent="1">
          <mxGeometry x="838" y="350" width="60" height="30" as="geometry" />
        </mxCell>
        <mxCell id="ul5Ljdfapj6bAUza6q9H-23" value="" style="endArrow=classic;html=1;rounded=0;strokeColor=#000000;entryX=0.5;entryY=0;entryDx=0;entryDy=0;entryPerimeter=0;exitX=0.5;exitY=1;exitDx=0;exitDy=0;" edge="1" parent="1" source="ul5Ljdfapj6bAUza6q9H-22" target="ul5Ljdfapj6bAUza6q9H-1">
          <mxGeometry width="50" height="50" relative="1" as="geometry">
            <mxPoint x="820" y="479" as="sourcePoint" />
            <mxPoint x="870" y="429" as="targetPoint" />
          </mxGeometry>
        </mxCell>
        <mxCell id="ul5Ljdfapj6bAUza6q9H-24" value="5" style="ellipse;whiteSpace=wrap;html=1;aspect=fixed;fillColor=#4D9900;strokeColor=none;labelBackgroundColor=none;" vertex="1" parent="1">
          <mxGeometry x="630" y="308.5" width="23" height="23" as="geometry" />
        </mxCell>
        <mxCell id="RLjyjs_sm2IHfBNOWAbh-8" value="5" style="ellipse;whiteSpace=wrap;html=1;aspect=fixed;fillColor=#4D9900;strokeColor=none;labelBackgroundColor=none;" parent="1" vertex="1">
          <mxGeometry x="858.25" y="428.5" width="23" height="23" as="geometry" />
        </mxCell>
        <mxCell id="ul5Ljdfapj6bAUza6q9H-27" value="" style="group" vertex="1" connectable="0" parent="1">
          <mxGeometry x="930" y="310" width="400" height="490" as="geometry" />
        </mxCell>
        <mxCell id="qhazRgXepDI2F2iA60wV-1" value="" style="rounded=0;whiteSpace=wrap;html=1;fillColor=#EAEDED;fontSize=22;fontColor=#FFFFFF;strokeColor=none;labelBackgroundColor=none;" parent="ul5Ljdfapj6bAUza6q9H-27" vertex="1">
          <mxGeometry width="399.25925925925924" height="448" as="geometry" />
        </mxCell>
        <mxCell id="qhazRgXepDI2F2iA60wV-11" value="Engineer makes changes in IDE of choice, and then runs the Terraform plan to create the necessary infrastructure, in this case just creating EC2 instances running ubuntu and the necessary security groups.&lt;br&gt;&lt;br&gt;" style="text;html=1;align=left;verticalAlign=top;spacingTop=-4;fontSize=14;labelBackgroundColor=none;whiteSpace=wrap;" parent="ul5Ljdfapj6bAUza6q9H-27" vertex="1">
          <mxGeometry x="51.48148148148148" y="8" width="332.5925925925926" height="56.5" as="geometry" />
        </mxCell>
        <mxCell id="qhazRgXepDI2F2iA60wV-12" value="Code changes are pushed to Github.&amp;nbsp;" style="text;html=1;align=left;verticalAlign=top;spacingTop=-4;fontSize=14;labelBackgroundColor=none;whiteSpace=wrap;" parent="ul5Ljdfapj6bAUza6q9H-27" vertex="1">
          <mxGeometry x="50.74074074074074" y="131" width="333.33333333333337" height="115" as="geometry" />
        </mxCell>
        <mxCell id="qhazRgXepDI2F2iA60wV-13" value="&lt;span&gt;Github uses a webhook to make a post request to the Jenkins server, and the pipeline starts.&lt;/span&gt;" style="text;html=1;align=left;verticalAlign=top;spacingTop=-4;fontSize=14;labelBackgroundColor=none;whiteSpace=wrap;" parent="ul5Ljdfapj6bAUza6q9H-27" vertex="1">
          <mxGeometry x="51.48148148148148" y="249" width="333.33333333333337" height="117" as="geometry" />
        </mxCell>
        <mxCell id="qhazRgXepDI2F2iA60wV-14" value="The Ansible playbook is run to install the necessary software, in this case Docker, and Nginx, and then creating the swarm." style="text;html=1;align=left;verticalAlign=top;spacingTop=-4;fontSize=14;labelBackgroundColor=none;whiteSpace=wrap;" parent="ul5Ljdfapj6bAUza6q9H-27" vertex="1">
          <mxGeometry x="50.74074074074074" y="365" width="333.33333333333337" height="121" as="geometry" />
        </mxCell>
        <mxCell id="qhazRgXepDI2F2iA60wV-22" value="1" style="ellipse;whiteSpace=wrap;html=1;aspect=fixed;fillColor=#4D9900;strokeColor=none;labelBackgroundColor=none;" parent="ul5Ljdfapj6bAUza6q9H-27" vertex="1">
          <mxGeometry x="14.814814814814897" y="14.5" width="17.037037037037038" height="17.037037037037038" as="geometry" />
        </mxCell>
        <mxCell id="qhazRgXepDI2F2iA60wV-23" value="2" style="ellipse;whiteSpace=wrap;html=1;aspect=fixed;fillColor=#4D9900;strokeColor=none;labelBackgroundColor=none;" parent="ul5Ljdfapj6bAUza6q9H-27" vertex="1">
          <mxGeometry x="14.814814814814897" y="135.5" width="17.037037037037038" height="17.037037037037038" as="geometry" />
        </mxCell>
        <mxCell id="qhazRgXepDI2F2iA60wV-24" value="3" style="ellipse;whiteSpace=wrap;html=1;aspect=fixed;fillColor=#4D9900;strokeColor=none;labelBackgroundColor=none;" parent="ul5Ljdfapj6bAUza6q9H-27" vertex="1">
          <mxGeometry x="14.814814814814897" y="256.5" width="17.037037037037038" height="17.037037037037038" as="geometry" />
        </mxCell>
        <mxCell id="qhazRgXepDI2F2iA60wV-25" value="4" style="ellipse;whiteSpace=wrap;html=1;aspect=fixed;fillColor=#4D9900;strokeColor=none;labelBackgroundColor=none;" parent="ul5Ljdfapj6bAUza6q9H-27" vertex="1">
          <mxGeometry x="14.81481481481456" y="373.5" width="17.037037037037038" height="17.037037037037038" as="geometry" />
        </mxCell>
      </root>
    </mxGraphModel>
  </diagram>
</mxfile>
